<svg width="136" height="68" viewBox="0 0 136 68" fill="none" xmlns="http://www.w3.org/2000/svg">
<mask id="mask0_11_6716" style="mask-type:luminance" maskUnits="userSpaceOnUse" x="2" y="21" width="131" height="25">
<path d="M133 21H2V46H133V21Z" fill="white"/>
</mask>
<g mask="url(#mask0_11_6716)">
<path d="M51.2328 39.4507C50.9264 38.754 50.6359 38.0506 50.3434 37.3481C48.9327 33.98 47.5243 30.6094 46.1183 27.2362C46.0268 27.016 45.9143 26.9536 45.6835 26.9546C43.5532 26.963 41.4232 26.963 39.2936 26.9546C39.0369 26.9546 38.9086 26.9916 38.9245 27.2869C38.9504 27.7692 38.9434 28.2534 38.9245 28.7357C38.9166 28.9764 38.9991 29.0426 39.2369 29.0378C39.8855 29.0232 40.5352 29.0436 41.1828 29.028C41.5032 29.0202 41.527 29.1108 41.4116 29.3817C40.6347 31.2125 39.8706 33.0492 39.1036 34.8839C38.439 36.475 37.7765 38.0671 37.083 39.7294C38.1445 39.7294 39.1444 39.7226 40.1452 39.7294C40.3581 39.7294 40.3959 39.6115 40.4516 39.4634C40.7083 38.7813 40.9809 38.0993 41.2276 37.4114C41.3102 37.1844 41.4126 37.0811 41.6763 37.083C43.3277 37.0947 44.9785 37.0947 46.6286 37.083C46.8644 37.083 46.9758 37.1512 47.0554 37.3753C47.2962 38.0525 47.5638 38.7209 47.8215 39.3932C47.8901 39.5725 47.9408 39.7381 48.2144 39.7323C49.1595 39.7157 50.1047 39.7196 51.0498 39.7323C51.3114 39.7372 51.3263 39.6641 51.2328 39.4507ZM45.6736 34.7816C44.6469 34.7621 43.6192 34.7738 42.5895 34.7767C42.3906 34.7767 42.2503 34.7767 42.3518 34.5127C42.9149 33.0609 43.468 31.6052 44.0271 30.1534C44.0628 30.0853 44.1041 30.0202 44.1505 29.9585C44.435 30.6747 44.7046 31.3509 44.9712 32.0281C45.2826 32.8251 45.585 33.625 45.9024 34.4201C46.0009 34.6657 46.0198 34.7894 45.6736 34.7816Z" fill="black"/>
<path d="M62.3632 30.6556C62.3632 30.413 62.2737 30.3516 62.0419 30.3546C61.2958 30.3663 60.5496 30.3682 59.8005 30.3546C59.5518 30.3546 59.4821 30.4432 59.4951 30.6703C59.51 30.9392 59.4951 31.211 59.4951 31.5998C57.8496 29.5001 54.3308 29.7826 52.8972 31.8921C52.0795 33.0906 51.9094 34.4254 52.1073 35.8168C52.5053 38.6317 55.2182 40.2628 57.9103 39.3118C58.4724 39.117 58.922 38.7525 59.3896 38.24C59.3896 38.585 59.3896 38.8149 59.3896 39.0439C59.3757 40.2131 58.8096 40.9293 57.6576 41.2342C56.5692 41.5217 55.5077 41.3589 54.4582 41.0394C53.9359 40.8796 53.4633 40.6116 52.9211 40.3047C52.9211 40.9867 52.944 41.585 52.9132 42.1862C52.8962 42.5175 53.0196 42.686 53.3171 42.8137C55.1716 43.6392 57.267 43.7858 59.2225 43.2268C61.1565 42.6919 62.3065 41.2303 62.3374 39.2699C62.3811 36.3946 62.3533 33.5261 62.3632 30.6556ZM59.0414 36.8204C58.4849 37.2058 57.8132 37.3988 57.1323 37.369C55.8141 37.3066 54.9685 36.2611 55.0163 34.7781C55.0571 33.5553 55.6132 32.7096 56.62 32.4709C57.577 32.2419 58.4555 32.4631 59.2334 33.0652C59.2922 33.1113 59.3382 33.1712 59.3669 33.2394C59.3956 33.3075 59.4061 33.3817 59.3976 33.455C59.3916 33.9227 59.3976 34.3913 59.3976 34.859C59.3976 35.2868 59.3727 35.7155 59.4065 36.1403C59.4284 36.4628 59.2921 36.6538 59.0414 36.8204Z" fill="black"/>
<path d="M95.6363 32.3124C94.7061 30.4806 92.4796 29.6865 90.5158 30.3754C89.9782 30.5791 89.4999 30.909 89.123 31.3361C88.9907 31.1724 89.0414 31.0302 89.0404 30.8986C89.0404 29.5599 89.0334 28.2211 89.0404 26.8823C89.0404 26.6485 89.0056 26.5345 88.7231 26.5413C87.9341 26.5598 87.1442 26.5559 86.3543 26.5413C86.1096 26.5413 86.0469 26.6193 86.0479 26.8492C86.0539 31.0467 86.0539 35.2433 86.0479 39.4388C86.0479 39.6337 86.0758 39.7389 86.3175 39.7311C87.0928 39.7162 87.8681 39.7162 88.6435 39.7311C88.8802 39.7311 88.928 39.6425 88.9171 39.4388C88.9031 39.1709 88.9171 38.901 88.9171 38.5395C89.1449 38.7665 89.2881 38.9293 89.4513 39.0686C91.1157 40.5126 94.0624 40.1404 95.3408 38.2482C96.6192 36.356 96.654 34.3196 95.6363 32.3124ZM92.4916 37.1608C91.6031 37.9403 90.0044 37.7454 89.1091 36.9425C88.9986 36.8451 89.0315 36.7136 89.0305 36.5937C89.0305 36.0685 89.0305 35.5434 89.0305 35.0201C89.0305 34.5641 89.0583 34.1062 89.0215 33.656C88.9937 33.3043 89.1399 33.1007 89.4195 32.9107C90.4352 32.214 91.8777 32.2812 92.6438 33.0763C93.6167 34.0857 93.5401 36.2332 92.4916 37.1608Z" fill="black"/>
<path d="M14.5541 45.8242C14.5471 45.872 14.5401 45.9217 14.5322 45.9665C14.3929 45.9752 14.2526 45.9908 14.1123 45.9908C10.2324 45.9908 6.3525 45.9908 2.47954 45.9996C2.13333 45.9996 1.99803 45.9548 2.00002 45.5602C2.01892 41.7504 2.01096 37.9397 2.01196 34.129C2.01196 34.0053 2.02091 33.8806 2.02589 33.7568L2.24575 33.7627C2.32036 33.825 2.39796 33.8845 2.4676 33.9517C6.43175 37.8368 10.3956 41.7225 14.3591 45.6089C14.4287 45.6771 14.4894 45.7482 14.5541 45.8242Z" fill="#00CD69"/>
<path d="M14.551 21.1949C14.4764 21.2777 14.4067 21.3634 14.3271 21.4414C10.3749 25.3141 6.422 29.1878 2.46847 33.0625C2.39883 33.1288 2.32123 33.1892 2.24661 33.2515H2.02576L2.01083 22.5794C2.00984 22.1692 2.02874 21.7512 1.99989 21.3381C1.98795 21.0565 2.09938 21 2.36202 21C4.26417 21.0097 6.16632 21 8.06848 21.0058C10.2234 21.0058 12.3789 21.0104 14.535 21.0195C14.54 21.076 14.545 21.1335 14.551 21.1949Z" fill="#00CD69"/>
<path d="M27.1908 45.9986C23.159 45.9888 19.1265 45.9856 15.0934 45.9888C15.0514 45.9856 15.0097 45.9784 14.9691 45.9674C14.9631 45.9226 14.9581 45.8778 14.9521 45.8329C15.0158 45.7608 15.0775 45.6848 15.1451 45.6166L27.0406 33.9585C27.1202 33.8815 27.2077 33.8114 27.2913 33.7393L27.4753 33.8367C27.48 35.8796 27.4846 37.9225 27.4893 39.9654C27.4893 41.8566 27.4893 43.7478 27.4893 45.639C27.4932 45.8554 27.4922 45.9996 27.1908 45.9986Z" fill="#00CD69"/>
<path d="M27.4961 21.299C27.4815 25.2841 27.4742 29.2689 27.4742 33.2533L27.2912 33.2679C27.2076 33.1958 27.1191 33.1266 27.0405 33.0497C23.0863 29.1737 19.1331 25.2977 15.1809 21.4217C15.1013 21.3447 15.0316 21.259 14.958 21.1762C14.958 21.1245 14.963 21.0719 14.967 21.0193C17.8262 21.0141 20.685 21.0092 23.5436 21.0047C24.7374 21.0047 25.9372 21.0047 27.134 21.0047C27.3558 20.9998 27.4971 21.0086 27.4961 21.299Z" fill="#00CD69"/>
<path d="M132.894 39.656C132.695 39.8908 132.178 39.7213 131.799 39.7281C131.165 39.7398 130.529 39.7203 129.895 39.7369C129.792 39.7464 129.689 39.7263 129.598 39.6788C129.507 39.6313 129.432 39.5587 129.383 39.4699C128.676 38.4059 127.939 37.3614 127.249 36.2886C127.024 35.9378 126.775 35.816 126.362 35.8336C125.607 35.8677 125.606 35.8433 125.606 36.5741C125.606 37.5134 125.596 38.4527 125.613 39.3919C125.613 39.6628 125.54 39.7437 125.263 39.7369C124.501 39.72 123.738 39.72 122.975 39.7369C122.715 39.7369 122.61 39.693 122.611 39.4036C122.621 35.2327 122.621 31.0622 122.611 26.8919C122.611 26.623 122.681 26.5344 122.964 26.5412C123.696 26.5597 124.43 26.5655 125.163 26.5412C125.509 26.5285 125.612 26.6191 125.61 26.9689C125.593 29.095 125.61 31.2229 125.592 33.348C125.592 33.7027 125.705 33.7475 126.037 33.7816C126.691 33.8488 127.084 33.6277 127.424 33.0693C127.936 32.2295 128.564 31.4597 129.123 30.6481C129.265 30.4425 129.408 30.3499 129.666 30.3558C130.513 30.3733 131.358 30.3616 132.302 30.3616C131.569 31.3847 130.884 32.3405 130.2 33.2954C130.086 33.4542 129.97 33.6101 129.858 33.7689C129.303 34.5562 129.302 34.5572 129.868 35.362C130.332 36.0197 130.819 36.6628 131.261 37.336C131.477 37.6654 131.72 37.7862 132.12 37.7706C132.955 37.7375 132.958 37.7599 132.954 38.5842C132.959 38.9505 133.084 39.4368 132.894 39.656Z" fill="black"/>
<path d="M108.076 37.9467C107.336 38.0062 107.145 37.8132 107.142 37.0854C107.142 35.9162 107.161 34.7382 107.128 33.566C107.094 32.4085 106.584 31.4478 105.542 30.9012C103.259 29.7027 100.956 29.9668 98.6775 30.9869C98.6204 31.0113 98.5725 31.0526 98.5406 31.1051C98.5086 31.1575 98.4943 31.2184 98.4994 31.2792C98.5054 31.9418 98.4994 32.6034 98.4994 33.3098C98.5569 33.2974 98.6134 33.2811 98.6686 33.2611C98.781 33.2026 98.8904 33.1402 99.0009 33.0798C100.195 32.429 101.47 32.163 102.828 32.389C103.668 32.5283 104.169 33.0808 104.245 33.8593C104.276 34.1701 104.251 34.289 103.857 34.213C102.365 33.9207 100.882 33.9353 99.4595 34.5414C97.5126 35.3715 97.0808 37.5619 98.5641 38.9825C99.933 40.2871 102.949 40.255 104.108 38.964C104.284 38.7691 104.375 38.736 104.517 38.999C104.674 39.2804 104.921 39.5043 105.219 39.6372C106.183 40.0971 107.156 40.0124 108.132 39.6752C108.3 39.6168 108.319 39.496 108.317 39.3479C108.317 38.9581 108.317 38.5752 108.317 38.1874C108.33 38.0179 108.32 37.9282 108.076 37.9467ZM103.726 37.5414C102.993 38.0013 102.211 38.1065 101.391 37.821C100.96 37.67 100.686 37.3631 100.686 36.8915C100.686 36.4433 100.935 36.1354 101.347 35.9707C102.265 35.6044 103.199 35.7096 104.119 35.959C104.438 36.0458 104.176 36.3751 104.259 36.567C104.388 37.0601 104.084 37.3163 103.726 37.5414Z" fill="black"/>
<path d="M120.187 39.447C120.187 39.6565 120.131 39.7393 119.902 39.7393C119.098 39.7286 118.294 39.7228 117.49 39.7393C117.176 39.7452 117.201 39.5727 117.201 39.3701C117.201 37.7536 117.195 36.1381 117.201 34.5226C117.201 33.749 117.095 33.0143 116.266 32.6987C115.359 32.3537 114.475 32.4668 113.661 33.0368C113.462 33.1741 113.462 33.3466 113.462 33.5424C113.462 35.4619 113.455 37.3824 113.472 39.3019C113.472 39.639 113.394 39.7549 113.034 39.7403C112.316 39.713 111.595 39.714 110.877 39.7403C110.547 39.753 110.485 39.6429 110.486 39.3457C110.499 37.1495 110.486 34.9543 110.504 32.7581C110.504 32.3732 110.387 32.2894 110.031 32.3148C109.623 32.344 109.213 32.3148 108.804 32.3245C108.596 32.3303 108.492 32.2846 108.5 32.0527C108.515 31.584 108.512 31.1134 108.5 30.6447C108.5 30.4343 108.562 30.3524 108.788 30.3524C110.087 30.3602 111.385 30.3602 112.682 30.3524C112.903 30.3524 112.968 30.4382 113.003 30.632C113.063 30.9701 113.154 31.3034 113.244 31.6892C114.566 30.2394 116.143 29.8379 117.957 30.3592C119.27 30.7373 120.124 31.8081 120.146 33.1488C120.202 35.2485 120.178 37.3493 120.187 39.447Z" fill="black"/>
<path d="M83.9008 32.5765C82.8701 30.8227 81.1778 30.1933 79.414 30.1465C78.6748 30.1572 78.1565 30.1972 77.6481 30.3267C75.8514 30.7886 74.564 31.8233 74.0666 33.6045C73.5533 35.4431 73.8567 37.1667 75.3052 38.5308C76.6751 39.8208 78.3893 40.1463 80.2158 39.8696C84.4728 39.2206 85.401 35.1284 83.9008 32.5765ZM81.5549 35.0874C81.527 36.0462 81.2296 36.8734 80.3272 37.384C79.212 38.0154 77.7078 37.5642 77.1537 36.4272C76.6801 35.4528 76.704 34.4785 77.2303 33.5285C77.7038 32.673 78.7484 32.2618 79.7761 32.4966C80.7351 32.7129 81.4594 33.5986 81.5539 34.6753C81.5648 34.8117 81.5549 34.9501 81.5549 35.0874Z" fill="black"/>
<path d="M72.933 30.7437C72.9009 31.3226 72.8985 31.9028 72.9261 32.4819C72.934 32.7742 72.9261 32.9184 72.5281 32.8492C71.6129 32.6904 70.7016 32.743 69.851 33.1747C69.261 33.4728 68.9198 33.8733 68.9447 34.6021C68.9974 36.1874 68.9536 37.7766 68.9666 39.3628C68.9666 39.6454 68.8999 39.7525 68.5935 39.7409C67.8613 39.7194 67.1271 39.7184 66.3949 39.7409C66.0666 39.7516 65.9701 39.6678 65.973 39.3345C65.989 37.1403 65.973 34.95 65.99 32.7518C65.99 32.4137 65.9163 32.289 65.5552 32.3153C65.1354 32.3465 64.7106 32.3153 64.2878 32.326C64.0689 32.3338 63.9893 32.2646 63.9893 32.0454C64.0022 31.5767 64.0012 31.1071 63.9893 30.6384C63.9893 30.4231 64.0619 30.3461 64.2878 30.352C65.5837 30.3604 66.8804 30.3604 68.1776 30.352C68.4055 30.352 68.4671 30.4494 68.504 30.6336C68.5905 31.0525 68.69 31.4686 68.7736 31.8876C68.7954 31.9996 68.8124 32.1029 68.9168 32.1691C69.5824 30.8197 70.5086 30.1016 72.3849 30.1756C72.7649 30.1922 72.9689 30.3081 72.933 30.7437Z" fill="black"/>
<path d="M14.9669 21.02C14.9669 21.0726 14.961 21.1252 14.958 21.1769C14.8167 21.0327 14.6824 21.0707 14.5511 21.1954C14.5451 21.1389 14.5401 21.0814 14.5342 21.0249L14.9669 21.02Z" fill="black"/>
<path d="M14.9689 45.9684H14.5352C14.5431 45.9217 14.5501 45.871 14.557 45.8262C14.6874 45.9577 14.8187 45.9879 14.955 45.8349C14.958 45.8788 14.9629 45.9236 14.9689 45.9684Z" fill="black"/>
<path d="M2.24694 33.2515C2.22207 33.2992 2.1962 33.3489 2.16934 33.3947C2.00917 33.459 1.99027 33.3849 2.02608 33.2554L2.24694 33.2515Z" fill="black"/>
<path d="M2.24589 33.7637L2.02603 33.7579C2.00513 33.677 1.99618 33.601 2.09765 33.563L2.24589 33.7637Z" fill="black"/>
<path d="M27.475 33.8383L27.291 33.7408L27.4044 33.5723C27.5337 33.6346 27.4919 33.7399 27.475 33.8383Z" fill="black"/>
<path d="M27.4044 33.4381L27.291 33.2685L27.474 33.2539C27.4989 33.3328 27.5098 33.4069 27.4044 33.4381Z" fill="black"/>
</g>
</svg>
