<svg width="868" height="457" viewBox="0 0 868 457" fill="none" xmlns="http://www.w3.org/2000/svg">
<g clip-path="url(#clip0_11_6580)">
<path d="M434.001 865.043C672.588 865.043 866.001 671.63 866.001 433.043C866.001 194.456 672.588 1.04346 434.001 1.04346C195.414 1.04346 2.00098 194.456 2.00098 433.043C2.00098 671.63 195.414 865.043 434.001 865.043Z" stroke="#A59B85" stroke-opacity="0.3" stroke-width="2.08696" stroke-dasharray="10.43 10.43"/>
<path d="M433.589 786.828C629.206 786.828 787.785 628.249 787.785 432.632C787.785 237.015 629.206 78.436 433.589 78.436C237.972 78.436 79.3926 237.015 79.3926 432.632C79.3926 628.249 237.972 786.828 433.589 786.828Z" fill="#13E0B2" fill-opacity="0.1"/>
<path d="M434 713.346C588.807 713.346 714.302 587.85 714.302 433.044C714.302 278.238 588.807 152.743 434 152.743C279.194 152.743 153.699 278.238 153.699 433.044C153.699 587.85 279.194 713.346 434 713.346Z" fill="#D2CDC2" fill-opacity="0.9"/>
</g>
<defs>
<clipPath id="clip0_11_6580">
<rect width="866.087" height="504" fill="white" transform="translate(0.957031)"/>
</clipPath>
</defs>
</svg>
