<svg width="29" height="28" viewBox="0 0 29 28" fill="none" xmlns="http://www.w3.org/2000/svg">
<rect x="0.75" width="28" height="28" rx="14" fill="#BA8D5B"/>
<path d="M18.5436 14.5479L11.7149 19.2759C11.6149 19.3451 11.4978 19.3857 11.3763 19.3931C11.2549 19.4005 11.1337 19.3746 11.0259 19.3181C10.9182 19.2615 10.8279 19.1766 10.765 19.0725C10.7021 18.9683 10.6689 18.8489 10.6689 18.7272V9.27258C10.6689 9.1509 10.7021 9.03151 10.765 8.92737C10.8279 8.82322 10.9182 8.73828 11.0259 8.68176C11.1337 8.62524 11.2549 8.59928 11.3763 8.60671C11.4978 8.61414 11.6149 8.65467 11.7149 8.72391L18.5436 13.4519C18.6322 13.5133 18.7045 13.5952 18.7545 13.6906C18.8045 13.786 18.8306 13.8922 18.8306 13.9999C18.8306 14.1077 18.8045 14.2138 18.7545 14.3092C18.7045 14.4047 18.6322 14.4866 18.5436 14.5479Z" fill="#021923"/>
</svg>
