<svg width="136" height="68" viewBox="0 0 136 68" fill="none" xmlns="http://www.w3.org/2000/svg">
<path fill-rule="evenodd" clip-rule="evenodd" d="M41.0132 29.329L45.949 24.3935C44.0539 22.3639 41.5919 20.9514 38.8832 20.3398C36.1745 19.7282 33.3445 19.9457 30.7611 20.9642C28.1777 21.9826 25.9606 23.7548 24.3981 26.0503C22.8356 28.3458 22 31.0583 22 33.835C22 36.6117 22.8356 39.3242 24.3981 41.6197C25.9606 43.9152 28.1777 45.6874 30.7611 46.7058C33.3445 47.7243 36.1745 47.9418 38.8832 47.3302C41.5919 46.7186 44.0539 45.3061 45.949 43.2765L41.0132 38.3424C39.5631 40.0075 37.935 40.7269 35.7171 40.6799C34.9375 40.6651 34.1714 40.4737 33.4764 40.1201C32.7556 39.754 32.7314 38.6743 33.5818 38.5632C34.3666 38.4566 35.1235 38.1998 35.8111 37.8069C36.2755 38.0804 37.3994 38.4293 38.0404 38.5675C38.7732 38.2738 39.429 37.8163 39.9577 37.23C39.2127 37.5149 37.2327 37.146 36.5319 36.7657V35.1988L38.0176 33.7374H34.3952V30.6693C34.3959 30.4092 34.2999 30.158 34.1259 29.9646C33.952 29.7712 33.7124 29.6492 33.4536 29.6224L30.6688 29.3261C31.312 28.5859 32.1065 27.9923 32.9988 27.5856C33.8911 27.1788 34.8604 26.9683 35.841 26.9683C36.8216 26.9683 37.7909 27.1788 38.6832 27.5856C39.5755 27.9923 40.37 28.5859 41.0132 29.3261L38.066 32.2732V30.6351C38.065 30.3795 38.1576 30.1323 38.3264 29.9403C38.4951 29.7482 38.7283 29.6245 38.9819 29.5925L41.0132 29.3261V29.329ZM32.4095 34.4567H34.3382L35.0946 35.2003C35.0946 35.5877 35.0946 36.2073 35.0946 36.7671C34.3909 37.1488 32.3682 37.5163 31.6232 37.2243C30.7685 36.8725 30.0962 34.3442 32.4109 34.461L32.4095 34.4567ZM32.7912 33.1933C31.5591 33.1933 30.1175 32.1464 30.1175 30.8374L32.7927 31.1223L32.7912 33.1933Z" fill="url(#paint0_linear_11_6885)"/>
<path fill-rule="evenodd" clip-rule="evenodd" d="M54.0759 34.6178C54.6974 34.6257 55.3119 34.4866 55.8693 34.2119C56.3776 33.9746 56.8212 33.6184 57.1627 33.1735L55.8693 31.9186C55.3878 32.4755 54.8409 32.749 54.2084 32.749C53.9858 32.754 53.7645 32.7131 53.5584 32.6288C53.3523 32.5445 53.1657 32.4186 53.0104 32.259C52.701 31.9236 52.5292 31.484 52.5292 31.0277C52.5292 30.5713 52.701 30.1317 53.0104 29.7963C53.1666 29.6344 53.3545 29.5065 53.5623 29.4205C53.7701 29.3345 53.9935 29.2922 54.2184 29.2963C54.7881 29.2963 55.3408 29.5598 55.8408 30.0883L57.0673 28.7579C56.4163 27.9375 55.3309 27.4176 54.0859 27.4176C53.6111 27.4058 53.1388 27.4909 52.698 27.6678C52.2571 27.8446 51.857 28.1094 51.5219 28.446C50.8324 29.1254 50.4834 29.9943 50.4834 31.0512C50.4834 32.1081 50.8225 32.957 51.5019 33.6264C51.8418 33.9544 52.2436 34.2114 52.6838 34.3826C53.1239 34.5537 53.5938 34.6356 54.0659 34.6235L54.0759 34.6178ZM64.3192 34.5138L61.9133 27.5344H59.9974L57.5146 34.5138H59.5259L59.8749 33.3743H61.9788L62.3093 34.5138H64.3192ZM60.3464 31.6836L60.9504 29.7578L61.5358 31.6836H60.3464ZM67.3704 34.5138V31.4984L68.9558 33.6791H69.7207L71.3062 31.4984V34.5181H73.2506V27.5386H71.7207L69.3433 30.923L66.9559 27.5443H65.4402V34.5238L67.3704 34.5138ZM79.5011 30.6823C79.7869 30.5701 80.0319 30.374 80.2038 30.1196C80.3758 29.8653 80.4665 29.5648 80.464 29.2579C80.4649 29.0289 80.4163 28.8025 80.3217 28.5941C80.2271 28.3856 80.0885 28.2 79.9156 28.05C79.5481 27.711 79.0386 27.541 78.3872 27.5401H74.9998V34.5195H78.5609C79.2319 34.5195 79.7789 34.3315 80.2033 33.9498C80.4106 33.7619 80.5745 33.5313 80.6837 33.2737C80.7929 33.0162 80.8448 32.738 80.8358 32.4585C80.8358 31.591 80.3728 30.8916 79.5054 30.6936L79.5011 30.6823ZM78.0097 29.1824C78.0779 29.1774 78.1465 29.1867 78.2109 29.2097C78.2754 29.2327 78.3344 29.2689 78.3841 29.3159C78.4338 29.363 78.4732 29.4198 78.4997 29.4829C78.5262 29.546 78.5393 29.6139 78.5381 29.6823C78.5381 29.9473 78.3501 30.1738 77.9256 30.1738H76.9285V29.1767L78.0097 29.1824ZM76.9242 32.853V31.7135H78.1892C78.5951 31.7135 78.8116 31.967 78.8116 32.2833C78.8116 32.5995 78.6051 32.853 78.1236 32.853H76.9242ZM88.1304 34.5138L86.706 31.9941C87.5279 31.5796 87.9054 30.7862 87.9054 29.9088C87.9152 29.5946 87.8608 29.2817 87.7454 28.9892C87.6301 28.6968 87.4562 28.431 87.2345 28.2081C86.7915 27.7651 86.1305 27.5472 85.263 27.5472H82.2232V34.5267H84.1861V32.3388H84.7887L85.8941 34.5181L88.1304 34.5138ZM85.2402 29.3277C85.3268 29.3226 85.4134 29.336 85.4944 29.3671C85.5753 29.3982 85.6486 29.4463 85.7095 29.5081C85.7703 29.5699 85.8172 29.6439 85.8471 29.7253C85.877 29.8067 85.8891 29.8936 85.8827 29.98C85.8827 30.3475 85.6562 30.6395 85.1932 30.6395H84.1861V29.3277H85.2402ZM89.4438 34.5181H91.4252V27.5386H89.4452V34.5181H89.4438ZM96.0633 34.5181C97.1753 34.5181 98.0433 34.2066 98.6672 33.5837C99.2996 32.9613 99.6116 32.1123 99.6116 31.0369C99.6116 29.9615 99.2996 29.1012 98.6771 28.473C98.0547 27.8449 97.1957 27.5386 96.0818 27.5386H93.1759V34.5181H96.0633ZM95.1388 29.4316H96.1573C96.3571 29.4195 96.5568 29.4562 96.7392 29.5386C96.9217 29.621 97.0813 29.7466 97.2042 29.9045C97.4544 30.2242 97.585 30.6212 97.5732 31.027C97.5863 31.4381 97.4559 31.841 97.2042 32.1665C97.0812 32.3242 96.9216 32.4496 96.7391 32.5318C96.5567 32.6139 96.357 32.6504 96.1573 32.6379H95.1402V29.4316H95.1388ZM104.439 34.6178C105.637 34.6178 106.704 34.1834 107.637 33.3245V30.225H104.47V31.8859H105.876V32.3003C105.602 32.5368 105.036 32.7533 104.47 32.7533C104.232 32.7663 103.995 32.7275 103.773 32.6397C103.552 32.5519 103.352 32.4172 103.188 32.2448C102.879 31.9077 102.711 31.4655 102.717 31.0084C102.711 30.7851 102.751 30.5629 102.834 30.3554C102.917 30.1478 103.041 29.9591 103.198 29.8006C103.363 29.6351 103.561 29.5054 103.779 29.4194C103.996 29.3334 104.229 29.2929 104.463 29.3006C105.013 29.303 105.544 29.4998 105.963 29.8561L107.189 28.3748C106.434 27.737 105.471 27.398 104.483 27.4218C103.397 27.4218 102.501 27.7623 101.776 28.4417C101.051 29.1211 100.701 29.98 100.701 31.0369C100.687 31.5146 100.772 31.9899 100.951 32.433C101.13 32.8762 101.398 33.2776 101.739 33.6122C102.437 34.2831 103.333 34.6221 104.429 34.6221L104.439 34.6178ZM114.342 34.5138V32.7063H111.124V31.9329H114.115V30.131H111.124V29.3562H114.36V27.5443H109.141V34.5238L114.342 34.5138Z" fill="#2C1F82"/>
<path fill-rule="evenodd" clip-rule="evenodd" d="M53.2333 40.1257V39.4349H51.8402V37.2556H51.1094V40.1257H53.2333ZM55.8301 40.1257V39.4605H54.4897V39.0332H55.7318V38.3652H54.4897V37.9379H55.8329V37.2655H53.7589V40.1357L55.8301 40.1257ZM58.9796 40.1257L57.9582 37.2556H57.283L56.2346 40.1257H56.9839L57.1548 39.6015H58.0679L58.2346 40.1257H58.9796ZM57.3372 38.972L57.6221 38.1173L57.8941 38.972H57.3372ZM61.8171 40.1257L61.1946 39.0617C61.3564 38.9867 61.4925 38.8655 61.5857 38.7135C61.679 38.5615 61.7253 38.3853 61.7188 38.2071C61.7231 38.0815 61.7015 37.9564 61.6554 37.8395C61.6094 37.7227 61.5398 37.6165 61.451 37.5276C61.3459 37.4312 61.2221 37.3574 61.0874 37.3106C60.9527 37.2638 60.8098 37.2451 60.6676 37.2556H59.471V40.1257H60.1975V39.1756H60.4824L60.9866 40.1271L61.8171 40.1257ZM60.659 37.9208C61.0636 37.8894 61.0977 38.5646 60.6319 38.5418H60.1975V37.9208H60.659ZM64.233 38.8124L62.9054 37.2556H62.3855V40.1257H63.0977V38.5874L64.4025 40.1257H64.9509V37.2556H64.2387V38.8124H64.233ZM65.7059 40.1257H66.4366V37.2556H65.7059V40.1257ZM69.0434 38.8124L67.7186 37.2556H67.1987V40.1257H67.9109V38.5874L69.2143 40.1257H69.7627V37.2556H69.0505V38.8124H69.0434ZM71.8923 40.1684C72.1372 40.1698 72.3799 40.122 72.606 40.0278C72.8321 39.9336 73.037 39.7949 73.2085 39.62V38.378H71.8994V38.999H72.5518V39.2483C72.3705 39.3974 72.1428 39.4786 71.908 39.4776C71.8019 39.4812 71.6962 39.4622 71.598 39.4219C71.4998 39.3817 71.4112 39.321 71.3382 39.244C71.196 39.0932 71.1183 38.8929 71.1217 38.6857C71.1185 38.5811 71.1368 38.477 71.1756 38.3799C71.2143 38.2827 71.2727 38.1946 71.347 38.121C71.4212 38.0474 71.5099 37.9898 71.6074 37.9519C71.7049 37.9141 71.8091 37.8967 71.9137 37.9008C72.1638 37.9009 72.4048 37.9949 72.5889 38.1643L73.0504 37.6245C72.7387 37.3499 72.3362 37.2007 71.9208 37.2057C71.5123 37.1939 71.1159 37.3445 70.8183 37.6245C70.5399 37.9078 70.3827 38.2882 70.3797 38.6853C70.3768 39.0825 70.5284 39.4652 70.8026 39.7525C70.9481 39.8916 71.12 40.0001 71.3081 40.0715C71.4963 40.143 71.6969 40.1759 71.898 40.1684H71.8923ZM75.9534 40.1684C76.2078 40.1723 76.4593 40.1151 76.687 40.0018C76.8949 39.9019 77.0772 39.7558 77.2198 39.5745L76.7383 39.113C76.6512 39.2262 76.5395 39.3182 76.4117 39.3821C76.2839 39.446 76.1433 39.4801 76.0004 39.4819C75.8983 39.4841 75.7968 39.4655 75.702 39.4273C75.6073 39.3891 75.5212 39.3321 75.4492 39.2597C75.3767 39.1863 75.3197 39.099 75.2818 39.003C75.2439 38.9071 75.2257 38.8045 75.2284 38.7013C75.225 38.5964 75.2429 38.4919 75.2808 38.394C75.3187 38.2961 75.376 38.2069 75.4492 38.1316C75.5213 38.0578 75.6079 37.9998 75.7034 37.9611C75.799 37.9223 75.9016 37.9038 76.0047 37.9065C76.1435 37.9116 76.2797 37.9461 76.4042 38.0077C76.5287 38.0694 76.6387 38.1567 76.7269 38.264L77.1884 37.7783C77.0405 37.5955 76.8527 37.4491 76.6393 37.3504C76.4259 37.2516 76.1928 37.2031 75.9577 37.2086C75.7611 37.2048 75.5658 37.241 75.3836 37.315C75.2014 37.3889 75.0361 37.4991 74.8977 37.6388C74.7594 37.7785 74.6508 37.9448 74.5786 38.1277C74.5064 38.3106 74.4721 38.5062 74.4777 38.7027C74.4712 38.8996 74.5058 39.0957 74.5794 39.2784C74.653 39.4611 74.7639 39.6265 74.905 39.7639C75.0446 39.898 75.2094 40.003 75.3898 40.0729C75.5703 40.1429 75.7628 40.1763 75.9563 40.1713L75.9534 40.1684ZM79.8194 40.1257V39.4605H78.479V39.0332H79.7225V38.3652H78.479V37.9379H79.8223V37.2655H77.7454V40.1357L79.8194 40.1257ZM82.3492 38.8124L81.0202 37.2556H80.496V40.1257H81.2083V38.5874L82.5131 40.1257H83.0601V37.2556H82.3478V38.8124H82.3492ZM84.3848 40.1257H85.1184V37.9549H85.9104V37.2556H83.5885V37.9549H84.3848V40.1257ZM88.5157 40.1257V39.4605H87.1753V39.0332H88.4189V38.3652H87.1753V37.9379H88.5157V37.2655H86.4403V40.1357L88.5157 40.1257ZM91.5427 40.1257L90.9202 39.0617C91.0821 38.9868 91.2183 38.8657 91.3116 38.7136C91.4048 38.5616 91.4511 38.3853 91.4444 38.2071C91.4487 38.0815 91.4271 37.9564 91.381 37.8395C91.335 37.7227 91.2654 37.6165 91.1766 37.5276C91.0715 37.4312 90.9478 37.3574 90.813 37.3106C90.6783 37.2638 90.5354 37.2451 90.3932 37.2556H89.1966V40.1257H89.9231V39.1756H90.208L90.7122 40.1271L91.5427 40.1257ZM90.3846 37.9208C90.7892 37.8894 90.8233 38.5646 90.3575 38.5418H89.9302V37.9208H90.3846Z" fill="#2C1F82"/>
<defs>
<linearGradient id="paint0_linear_11_6885" x1="33.9208" y1="36.0278" x2="43.5439" y2="25.0012" gradientUnits="userSpaceOnUse">
<stop stop-color="#2C1F82"/>
<stop offset="1" stop-color="#00A6E8"/>
</linearGradient>
</defs>
</svg>
