<svg width="48" height="48" viewBox="0 0 48 48" fill="none" xmlns="http://www.w3.org/2000/svg">
<path d="M42.9231 2.30859H5.07694C2.27747 2.30859 0 4.61846 0 7.45755V28.5213V31.798C0 34.6371 2.27747 36.9469 5.07694 36.9469H17.3356L15.8587 44.4363H11.0769C10.5671 44.4363 10.1539 44.8554 10.1539 45.3724C10.1539 45.8895 10.5671 46.3086 11.0769 46.3086H36.9231C37.4329 46.3086 37.8461 45.8895 37.8461 45.3724C37.8461 44.8554 37.4329 44.4363 36.9231 44.4363H32.1413L30.6644 36.9469H42.9231C45.7224 36.9469 48 34.6372 48 31.798V28.5213V7.45755C48 4.61846 45.7225 2.30859 42.9231 2.30859ZM17.7413 44.4363L19.2183 36.9469H28.7817L30.2587 44.4363H17.7413ZM46.1539 31.798C46.1539 33.6047 44.7046 35.0746 42.9231 35.0746H5.07694C3.2955 35.0746 1.84612 33.6048 1.84612 31.798V29.4576H46.1538L46.1539 31.798ZM46.1539 27.5853H1.84612V25.713H7.38459C7.89441 25.713 8.30766 25.2939 8.30766 24.7768C8.30766 24.2598 7.89441 23.8407 7.38459 23.8407H1.84612V7.45755C1.84612 5.65084 3.29541 4.18091 5.07694 4.18091H42.9231C44.7045 4.18091 46.1539 5.65074 46.1539 7.45755V27.5853Z" fill="#4E6575"/>
<path d="M43 6.05469H5V21.2675H43V6.05469Z" fill="#4E6575"/>
<path d="M23.9994 30C22.9815 30 22.1533 30.8282 22.1533 31.8461C22.1533 32.8641 22.9815 33.6923 23.9994 33.6923C25.0174 33.6923 25.8456 32.8641 25.8456 31.8461C25.8456 30.8282 25.0174 30 23.9994 30Z" fill="#4E6575"/>
<path d="M31.5575 19.9871L29.5994 18.0289L31.2312 16.3972C31.4685 16.1599 31.5583 15.8126 31.4657 15.49C31.3732 15.1675 31.113 14.9206 30.786 14.845L22.3006 12.8869C21.9906 12.8155 21.6655 12.9085 21.4403 13.1336C21.2153 13.3587 21.122 13.6837 21.1936 13.9939L23.1519 22.4792C23.2274 22.8061 23.4743 23.0664 23.7969 23.1589C24.1196 23.2514 24.4667 23.1616 24.7041 22.9244L26.3358 21.2926L28.294 23.2507C28.4743 23.431 28.7105 23.5211 28.9467 23.5211C29.1828 23.5211 29.4192 23.431 29.5994 23.2507L31.5575 21.2926C31.9179 20.9321 31.9179 20.3477 31.5575 19.9871ZM28.9467 21.2926L26.9885 19.3344C26.8082 19.1541 26.572 19.064 26.3358 19.064C26.0997 19.064 25.8633 19.1541 25.6831 19.3344L24.5763 20.4413L23.3248 15.018L28.7481 16.2694L27.6412 17.3763C27.2807 17.7367 27.2807 18.3213 27.6412 18.6817L29.5994 20.6399L28.9467 21.2926Z" fill="#4E6575"/>
<path d="M20.2 10.5879L19.277 9.66488C18.9165 9.30441 18.332 9.30441 17.9715 9.66488C17.611 10.0254 17.611 10.6098 17.9715 10.9704L18.8947 11.8934C19.0749 12.0737 19.3112 12.1638 19.5474 12.1638C19.7835 12.1638 20.0199 12.0737 20.2 11.8934C20.5605 11.533 20.5605 10.9485 20.2 10.5879Z" fill="#4E6575"/>
<path d="M18.4013 13.0859H17.0959C16.5861 13.0859 16.1729 13.4992 16.1729 14.009C16.1729 14.5188 16.5861 14.9321 17.0959 14.9321H18.4013C18.9111 14.9321 19.3244 14.5188 19.3244 14.009C19.3244 13.4992 18.9111 13.0859 18.4013 13.0859Z" fill="#4E6575"/>
<path d="M20.1999 16.1258C19.8396 15.7654 19.2551 15.7654 18.8946 16.1258L17.9715 17.0489C17.611 17.4094 17.611 17.9939 17.9715 18.3544C18.1518 18.5346 18.388 18.6247 18.6242 18.6247C18.8604 18.6247 19.0967 18.5346 19.2769 18.3544L20.1999 17.4313C20.5604 17.0709 20.5604 16.4864 20.1999 16.1258Z" fill="#4E6575"/>
<path d="M26.662 9.66488C26.3015 9.30441 25.7171 9.30441 25.3565 9.66488L24.4334 10.5879C24.073 10.9484 24.073 11.5329 24.4334 11.8934C24.6137 12.0737 24.85 12.1638 25.0862 12.1638C25.3225 12.1638 25.5587 12.0737 25.7389 11.8934L26.662 10.9704C27.0224 10.61 27.0224 10.0254 26.662 9.66488Z" fill="#4E6575"/>
<path d="M22.3167 7.86328C21.8069 7.86328 21.3936 8.27653 21.3936 8.78634V10.0917C21.3936 10.6015 21.8069 11.0148 22.3167 11.0148C22.8265 11.0148 23.2398 10.6015 23.2398 10.0917V8.78634C23.2398 8.27653 22.8265 7.86328 22.3167 7.86328Z" fill="#4E6575"/>
<path d="M11.0591 24.2817C11.0481 24.2227 11.0296 24.1646 11.0065 24.1082C10.9835 24.0528 10.9549 23.9993 10.9216 23.9494C10.8884 23.8986 10.8496 23.8515 10.8071 23.8091C10.7646 23.7666 10.7176 23.7279 10.6668 23.6946C10.6169 23.6614 10.5634 23.6327 10.5071 23.6097C10.4517 23.5866 10.3936 23.5681 10.3345 23.5571C10.2155 23.5331 10.0936 23.5331 9.97451 23.5571C9.91545 23.5681 9.85732 23.5866 9.80192 23.6097C9.74557 23.6327 9.69204 23.6613 9.64226 23.6946C9.59145 23.7278 9.54437 23.7666 9.50191 23.8091C9.45944 23.8515 9.42073 23.8986 9.38745 23.9494C9.35426 23.9993 9.32557 24.0528 9.30251 24.1082C9.27945 24.1646 9.26098 24.2227 9.24992 24.2817C9.23792 24.3408 9.23145 24.4018 9.23145 24.4618C9.23145 24.5218 9.23792 24.5827 9.24992 24.6417C9.26098 24.7008 9.27945 24.7589 9.30251 24.8143C9.32557 24.8707 9.35417 24.9242 9.38745 24.974C9.42063 25.0248 9.45944 25.0719 9.50191 25.1143C9.54437 25.1568 9.59145 25.1955 9.64226 25.2288C9.69213 25.262 9.74567 25.2907 9.80192 25.3137C9.85732 25.3368 9.91545 25.3553 9.97451 25.3673C10.0336 25.3793 10.0945 25.3848 10.1545 25.3848C10.2145 25.3848 10.2755 25.3793 10.3345 25.3673C10.3936 25.3553 10.4517 25.3368 10.5071 25.3137C10.5635 25.2907 10.617 25.2621 10.6668 25.2288C10.7176 25.1956 10.7646 25.1568 10.8071 25.1143C10.8496 25.0719 10.8883 25.0248 10.9216 24.974C10.9548 24.9241 10.9835 24.8706 11.0065 24.8143C11.0296 24.7589 11.0481 24.7008 11.0591 24.6417C11.0711 24.5827 11.0776 24.5218 11.0776 24.4618C11.0776 24.4018 11.0711 24.3408 11.0591 24.2817Z" fill="#4E6575"/>
</svg>
