<svg width="136" height="68" viewBox="0 0 136 68" fill="none" xmlns="http://www.w3.org/2000/svg">
<path d="M98.1536 41.952C98.1536 42.6704 98.0138 42.9192 97.2369 42.9093C94.7643 42.8794 94.7643 42.9093 94.7643 40.4395C94.7643 35.0355 94.7643 29.6322 94.7643 24.2295C94.7643 22.3866 93.9654 21.7916 92.1679 22.2792C91.8184 22.3747 91.4849 22.5319 91.1434 22.6593C90.3325 22.9618 90.0489 23.4912 90.0549 24.4007C90.1048 30.2339 90.0549 36.0671 90.1008 41.9022C90.1008 42.6983 89.8631 42.8814 89.1022 42.8675C86.7894 42.8237 86.7894 42.8675 86.7894 40.5449C86.7894 35.141 86.7894 29.7383 86.7894 24.337C86.7894 22.3608 85.9905 21.7637 84.0971 22.2991C82.3376 22.7966 82.1099 23.0951 82.1099 24.8962C82.1099 30.5324 82.0859 36.1666 82.1338 41.8007C82.1338 42.7102 81.8782 42.8933 81.0234 42.8695C78.7465 42.8097 78.7445 42.8515 78.7445 40.6265C78.7445 33.8301 78.7605 27.0357 78.7266 20.2412C78.7266 19.4173 78.9263 19.0849 79.7631 19.2143C80.0614 19.2432 80.3617 19.2432 80.6599 19.2143C81.5606 19.1765 82.5333 19.0392 82.0799 20.6671C83.6178 19.3855 85.1197 18.7844 86.8733 19.0053C87.8299 19.1247 88.7167 19.4571 89.248 20.2969C89.6295 20.894 89.8811 20.7089 90.3065 20.3785C91.7305 19.27 93.3303 18.7307 95.1538 19.0571C96.6997 19.3377 97.6383 20.2711 97.9699 21.7796C98.0821 22.3317 98.1356 22.8941 98.1297 23.4573C98.1397 29.6229 98.1237 35.7884 98.1536 41.952Z" fill="#464648"/>
<path d="M63.1972 22.958C62.9975 20.1717 60.9823 18.6035 58.2041 19.0194C57.2452 19.1616 56.3385 19.5452 55.5698 20.1339C55.2682 20.3608 54.8807 20.532 54.9127 19.9508C54.9566 19.1548 54.5132 19.1985 53.978 19.2165C53.4801 19.2563 52.9799 19.2563 52.482 19.2165C51.6832 19.113 51.4834 19.4155 51.4834 20.2115C51.5214 24.8526 51.5014 29.4937 51.5014 34.1427V46.4818C51.5014 49.1108 51.5014 49.0889 54.1837 49.0372C54.7829 49.0272 54.8907 48.8262 54.8827 48.2948C54.8548 46.4062 54.8667 44.5135 54.8827 42.6248C54.8827 42.3442 54.7389 41.9581 55.0285 41.8049C55.3181 41.6516 55.5338 42.0298 55.7715 42.179C57.4991 43.2597 59.3285 43.5602 61.174 42.6308C62.9216 41.7512 63.2291 40.0675 63.2411 38.3022C63.2411 38.0375 63.2411 37.7728 63.2411 37.5061C63.2411 33.8256 63.2411 30.1451 63.2411 26.4647C63.2391 25.2765 63.2811 24.1123 63.1972 22.958ZM59.8998 37.6852C59.8998 39.55 59.1268 40.1889 57.2654 39.8744C56.8748 39.8 56.4928 39.6867 56.125 39.5361C55.2462 39.1998 54.7908 38.6684 54.8408 37.6036C54.9406 35.4144 54.8707 33.2253 54.8707 31.046C54.8707 28.7295 54.8927 26.4089 54.8548 24.0924C54.8288 23.832 54.8849 23.57 55.0151 23.3429C55.1454 23.1157 55.3435 22.9345 55.5817 22.8246C56.297 22.3987 57.1096 22.1617 57.9425 22.136C59.2507 22.136 59.8618 22.6714 59.8878 23.9789C59.9237 25.8338 59.9018 27.6886 59.9018 29.5514C59.9018 32.2521 59.9077 34.9687 59.8998 37.6832V37.6852Z" fill="#464648"/>
<path d="M76.7003 24.0634C76.6604 20.6224 74.8748 18.9746 71.4476 18.9507C66.81 18.9188 65.2842 20.4334 65.2822 25.0705C65.2822 27.5701 65.2822 27.5502 67.7727 27.5263C68.3719 27.5263 68.6016 27.3791 68.5716 26.7522C68.5237 25.8267 68.5317 24.8953 68.5716 23.9659C68.6335 22.5847 69.3425 22.0096 70.9024 22.0076C72.4622 22.0056 73.1832 22.5668 73.2391 23.95C73.2871 25.1083 73.2211 26.2725 73.2731 27.4308C73.299 28.0099 73.0733 28.2408 72.5461 28.408C71.0581 28.8836 69.5762 29.3851 68.1122 29.9245C66.4266 30.5434 65.376 31.7475 65.3281 33.5605C65.2535 35.7105 65.2928 37.8629 65.4459 40.0087C65.5917 41.8754 66.8001 42.8884 68.6655 43.0835C70.3891 43.2626 71.861 42.6854 73.4289 41.4336C72.8696 43.1113 73.8702 42.8586 74.6751 42.8486C75.1425 42.8486 75.6098 42.8168 76.0732 42.8486C76.6184 42.8964 76.7383 42.6496 76.7363 42.1581C76.7283 36.1318 76.7702 30.0956 76.7003 24.0634ZM72.4762 39.3599C71.8276 39.7015 71.1189 39.915 70.3891 39.9888C69.2507 40.0684 68.6235 39.5131 68.6016 38.3688C68.5756 37.0433 68.6016 35.7159 68.6016 34.3884C68.5796 33.9529 68.6973 33.5217 68.9374 33.1571C69.1776 32.7926 69.5279 32.5136 69.9377 32.3604C70.8225 31.9823 71.7352 31.6719 72.632 31.3156C73.1213 31.1166 73.2811 31.2818 73.2711 31.7873C73.2491 32.8819 73.2711 33.9765 73.2711 35.0691C73.2711 36.0642 73.2231 37.0592 73.2871 38.0543C73.321 38.729 73.0514 39.0832 72.4762 39.3599Z" fill="#464648"/>
<path d="M47.1454 35.192C46.3146 35.1721 45.8992 35.3154 46.039 36.2527C46.0943 36.8145 46.0976 37.3801 46.049 37.9424C45.999 39.4549 45.3499 40.0002 43.6303 39.9962C41.9107 39.9923 41.2816 39.433 41.2596 37.8946C41.2376 36.3562 41.2916 34.776 41.2356 33.2197C41.2097 32.4814 41.4973 32.346 42.1584 32.358C44.2535 32.3938 46.3525 32.3401 48.4476 32.3898C49.1726 32.4057 49.3264 32.1669 49.3164 31.4903C49.2765 29.102 49.3164 26.7138 49.2965 24.3256C49.2685 20.6637 47.5669 18.9681 43.9059 18.9502H43.3068C39.6938 18.9601 37.9143 20.6896 37.8683 24.3237C37.8424 26.0133 37.8503 27.7069 37.8543 29.3926C37.8543 29.9897 37.8543 30.5867 37.8543 31.1838C37.8543 31.5559 37.8543 31.9281 37.8543 32.3022C37.8543 34.382 37.8284 36.4637 37.8663 38.5434C37.9143 41.0888 39.3782 42.6869 41.9007 43.0551C43.0208 43.2243 44.16 43.2243 45.28 43.0551C47.5049 42.7148 48.875 41.3774 49.1986 39.1643C49.2728 38.5703 49.3049 37.9718 49.2945 37.3732C49.3124 35.2099 49.3044 35.2477 47.1454 35.192ZM41.2916 24.047C41.3355 22.6081 42.0545 22.0807 43.8041 22.1026C45.3419 22.1225 45.9831 22.6997 46.021 24.1406C46.039 24.8351 46.021 25.5337 46.021 26.2243C46.021 26.9845 45.995 27.7467 46.021 28.507C46.045 29.0304 45.8472 29.1996 45.334 29.1876C44.2075 29.1598 43.0771 29.1598 41.9387 29.1876C41.4334 29.1996 41.2336 29.0443 41.2436 28.513C41.2976 27.0144 41.2476 25.5178 41.2916 24.0371V24.047Z" fill="#464648"/>
<path d="M33.6314 40.534C33.196 40.534 33.0522 40.2256 32.8485 40.0365C30.4678 37.8194 28.107 35.5785 25.7104 33.3774C25.225 32.9316 25.1272 32.452 25.0453 31.831C24.8196 30.1215 25.4447 28.9413 26.7529 27.8228C29.0657 25.8326 31.2167 23.6654 33.6214 21.3926C33.6214 22.935 33.6334 24.2644 33.6214 25.5938C33.6214 25.9182 33.2998 26.0834 33.0881 26.2844C31.6701 27.6357 30.27 29.007 28.8121 30.3145C28.1969 30.8638 28.0451 31.1862 28.7721 31.8091C30.2521 33.0808 31.6302 34.474 33.0801 35.7954C33.271 35.9491 33.4219 36.1464 33.5199 36.3706C33.618 36.5947 33.6603 36.8391 33.6434 37.0831C33.6054 38.2274 33.6314 39.3738 33.6314 40.534Z" fill="#39C2D7"/>
<path d="M109.191 34.488C107.016 36.2234 105.087 38.2693 103.045 40.16C102.886 40.3073 102.772 40.5441 102.39 40.5302C102.39 39.2246 102.39 37.9171 102.39 36.6115C102.39 36.2135 102.698 36.0443 102.932 35.8154C104.431 34.4044 105.927 32.9834 107.449 31.6062C107.913 31.1883 107.911 30.9475 107.449 30.5296C105.935 29.1364 104.469 27.6876 102.961 26.2905C102.757 26.123 102.596 25.9091 102.492 25.6666C102.387 25.4242 102.343 25.1604 102.362 24.8974C102.408 23.8127 102.374 22.7261 102.374 21.3608C105.266 24.0933 107.967 26.6447 110.663 29.1882C110.91 29.423 110.904 29.6977 110.94 29.9982C111.168 31.8252 110.747 33.2461 109.191 34.488Z" fill="#39C2D7"/>
</svg>
