<svg width="17" height="17" viewBox="0 0 17 17" fill="none" xmlns="http://www.w3.org/2000/svg">
<path d="M14.4515 7.47051C14.7675 7.88385 14.7675 8.44185 14.4515 8.85451C13.4561 10.1538 11.0681 12.8292 8.28011 12.8292C5.49211 12.8292 3.10411 10.1538 2.10878 8.85451C1.95504 8.6566 1.87158 8.41313 1.87158 8.16251C1.87158 7.9119 1.95504 7.66843 2.10878 7.47051C3.10411 6.17118 5.49211 3.49585 8.28011 3.49585C11.0681 3.49585 13.4561 6.17118 14.4515 7.47051Z" stroke="black" stroke-opacity="0.35" stroke-width="1.5" stroke-linecap="round" stroke-linejoin="round"/>
<path d="M8.27979 10.1599C9.38436 10.1599 10.2798 9.26448 10.2798 8.15991C10.2798 7.05534 9.38436 6.15991 8.27979 6.15991C7.17522 6.15991 6.27979 7.05534 6.27979 8.15991C6.27979 9.26448 7.17522 10.1599 8.27979 10.1599Z" stroke="black" stroke-opacity="0.35" stroke-width="1.5" stroke-linecap="round" stroke-linejoin="round"/>
</svg>
