<svg width="136" height="68" viewBox="0 0 136 68" fill="none" xmlns="http://www.w3.org/2000/svg">
<mask id="mask0_11_6703" style="mask-type:luminance" maskUnits="userSpaceOnUse" x="21" y="22" width="94" height="24">
<path d="M114.813 22.1777H21V45.8224H114.813V22.1777Z" fill="white"/>
</mask>
<g mask="url(#mask0_11_6703)">
<path d="M90.2809 43.096C89.4246 43.6952 88.4626 43.5671 87.5807 43.2943C86.741 43.0348 86.5476 42.2017 86.4699 41.4057C86.4261 40.9603 86.4591 40.5065 86.4484 40.0569C86.3591 36.3194 86.2682 32.582 86.1756 28.8445C86.1756 28.7478 86.1566 28.6511 86.1409 28.5064C85.8723 28.5891 85.8293 28.804 85.7599 28.9685C84.9896 30.7934 84.0069 32.5109 83.1076 34.2705C83.0591 34.3806 83.0171 34.4935 82.982 34.6085C82.5159 35.4929 82.0357 36.369 81.5894 37.2633C81.1968 38.051 80.6438 38.6196 79.7157 38.594C78.8065 38.5683 78.2478 38.0228 77.8387 37.2352C76.6865 35.016 75.3591 32.8902 74.2847 30.6273C74.0607 30.1537 73.8301 29.6834 73.5945 29.1941C73.3011 29.3305 73.4078 29.5619 73.4036 29.7379C73.3155 33.6589 73.2306 37.5796 73.1491 41.5C73.1292 42.4166 72.5515 43.2241 71.7961 43.4117C70.8869 43.6381 70.0918 43.3075 69.6472 42.5273C69.4339 42.1546 69.3992 41.7363 69.4256 41.3405C69.5405 39.4825 69.4496 37.6212 69.548 35.7648C69.7083 32.7249 69.7389 29.6826 69.7959 26.6402C69.8125 25.8062 69.8439 24.9649 69.9753 24.1433C70.1191 23.2391 70.7662 22.7449 71.6837 22.7002C72.3151 22.6696 72.9499 22.6176 73.5797 22.6498C74.3293 22.6878 75.0145 22.8763 75.4029 23.6474C76.6948 26.2096 78.0081 28.766 79.3156 31.3232C79.538 31.7579 79.7702 32.1877 80 32.6183C80.1446 32.8886 80.2438 32.9357 80.4422 32.6183C81.172 31.4612 81.6646 30.1859 82.3059 28.9817C82.9052 27.8618 83.4283 26.6923 83.9837 25.5418C84.3226 24.8954 84.6582 24.2474 85.0012 23.6036C85.3194 23.0052 85.8492 22.7358 86.5013 22.711C87.1344 22.687 87.7691 22.6961 88.4023 22.6977C89.6569 22.6977 90.3908 23.3738 90.4561 24.6276C90.5264 25.9501 90.5553 27.2807 90.6041 28.6081C90.7595 32.8508 90.9154 37.095 91.0719 41.3405C91.0991 42.0587 90.8892 42.6703 90.2809 43.096Z" fill="url(#paint0_linear_11_6703)"/>
<path d="M114.359 28.9557C113.789 26.7497 112.512 25.0025 110.546 23.7727C109.389 23.0453 108.109 22.6668 106.804 22.3387L106.441 22.3164C106.258 22.3114 106.074 22.3164 105.892 22.3006C104.422 22.1411 102.932 22.1031 101.497 22.4081C98.1437 23.1214 95.6451 25.0025 94.2913 28.2143C93.5161 30.0541 93.3574 31.9981 93.5524 33.9817C93.8252 36.7637 94.7715 39.2391 96.7295 41.288C97.3849 41.9732 98.2172 42.4054 98.9702 42.9468C99.005 42.9499 99.0388 42.9603 99.0694 42.9774C100.79 43.7551 102.595 44.0411 104.476 43.9692C108.368 43.8179 111.284 42.0318 113.161 38.6589C114.857 35.6091 115.229 32.3245 114.359 28.9557ZM109.813 33.6858C109.698 35.1685 109.405 36.5901 108.768 37.9307C108.185 39.1581 107.363 40.1706 106.081 40.7408C105.724 40.8995 105.367 41.0425 104.964 40.9979C103.692 41.1632 102.475 41.064 101.403 40.259C101.325 40.2606 101.248 40.239 101.181 40.197C101.115 40.1549 101.062 40.0943 101.03 40.0226L100.909 39.8962C100.365 39.4689 99.8595 39.0101 99.6859 38.2977C99.675 38.2888 99.6664 38.2771 99.6612 38.264C99.656 38.2508 99.6543 38.2365 99.6562 38.2225C99.0685 37.5547 98.9123 36.7025 98.7239 35.8851C98.2387 33.7965 98.1743 31.6815 98.7322 29.6037C99.095 28.2507 99.6083 26.9332 100.897 26.1323V26.1398C100.941 26.1009 100.986 26.0637 101.032 26.0257C101.514 25.4257 102.235 25.2653 102.916 25.1397C103.766 24.9835 104.652 24.8711 105.491 25.2695C105.996 25.2695 106.401 25.529 106.802 25.7835C107.541 26.1406 108.082 26.7415 108.496 27.4027C109.702 29.3177 109.987 31.4459 109.814 33.6825L109.813 33.6858Z" fill="url(#paint1_linear_11_6703)"/>
<path d="M65.6624 35.958C65.65 37.5482 65.2731 39.0616 64.4383 40.4451C63.1556 42.5701 61.1744 43.6148 58.8106 43.8652C57.0526 44.0512 55.25 44.1371 53.5053 43.671C50.8365 42.9569 48.9818 41.3386 48.1644 38.6434C47.8903 37.7727 47.7175 36.8733 47.6495 35.963C47.6456 32.1578 47.642 28.3528 47.6387 24.5481C47.6387 24.4655 47.6387 24.3828 47.6429 24.3002L47.6503 24.1787C48.3338 22.4521 50.7538 21.9925 52.0118 23.3439C52.3664 23.7241 52.4093 24.1803 52.4102 24.6514C52.4168 28.169 52.4102 31.6866 52.4226 35.2034C52.4226 36.3556 52.6036 37.4656 53.2706 38.4566C53.8037 39.2484 54.5632 39.7145 55.4434 39.9385C56.9196 40.3137 58.3271 40.1302 59.5181 39.0905C60.5215 38.2152 60.9075 37.0408 60.9166 35.7564C60.9414 32.0751 60.9306 28.3938 60.9281 24.7126C60.9281 24.0439 61.1273 23.4728 61.6513 23.0364C62.4853 22.343 64.7218 22.5364 65.3888 23.3811C65.6252 23.6794 65.6756 24.0572 65.6756 24.4241C65.6797 28.269 65.6938 32.1139 65.6624 35.958Z" fill="url(#paint2_linear_11_6703)"/>
<path d="M43.6818 26.3688C43.6769 31.4816 43.6769 36.5946 43.6818 41.7079C43.6818 42.6535 42.9967 43.3213 42.0553 43.3238C41.5649 43.3238 41.0742 43.3207 40.5833 43.3147C39.4997 43.299 38.9104 42.7221 38.9096 41.6517C38.9096 39.3607 38.8947 37.0696 38.9335 34.7802C38.9443 34.1652 38.7757 33.9694 38.1492 33.9685C35.6143 33.9685 33.0794 33.9206 30.5453 33.8611C30.0651 33.8495 29.8982 33.9669 29.9197 34.4669C30.042 37.2522 30.3924 39.9921 31.4504 42.5981C31.5718 42.8965 31.7653 43.1659 31.9248 43.4494C31.7653 43.8478 31.4958 43.7131 31.2189 43.6048C29.8337 43.0609 28.9725 41.9708 28.2344 40.7533C27.2905 39.2045 26.7632 37.4977 26.4153 35.7331C26.1009 34.217 25.987 32.6662 26.0764 31.1204C26.1491 30.0178 26.3111 29.1103 26.4549 28.0466C26.4754 27.8972 26.5063 27.7495 26.5475 27.6044C26.5657 27.5416 26.5921 27.4813 26.6112 27.4193C26.7286 27.0016 26.8744 26.5923 27.0475 26.1944C27.142 25.9283 27.2622 25.6719 27.4063 25.4291C27.4794 25.2974 27.5688 25.1755 27.6724 25.0662C27.8377 24.891 27.9964 24.7092 28.1575 24.5282C28.3923 24.2653 28.6631 24.0368 28.9617 23.8496C29.3915 23.5802 29.8411 23.3537 30.3668 23.2711C30.9131 23.1884 31.028 23.2793 30.8478 23.7934C30.161 25.7878 29.9916 27.8557 29.9172 29.9434C29.8957 30.5468 30.1073 30.7047 30.6883 30.6989C33.2042 30.6741 35.7193 30.6865 38.2351 30.7047C38.6162 30.7047 38.8914 30.6551 38.8906 30.2088C38.8906 28.4334 39.1708 26.6606 38.9302 24.8836C38.8897 24.586 38.8269 24.2885 38.5608 24.1455C38.0566 23.8761 38.3244 23.6389 38.5608 23.4083C39.8733 22.1379 42.023 22.4834 43.0239 24.1124C43.4527 24.787 43.6809 25.5695 43.6818 26.3688Z" fill="url(#paint3_linear_11_6703)"/>
<path d="M23.0229 39.1106C23.232 40.0686 23.8289 40.8042 24.3537 41.5902C25.0645 42.6555 25.5712 43.4911 26.8109 44.0193C26.8646 44.0482 27.2333 44.2672 27.287 44.2962L27.4804 44.3788C27.6082 44.4104 27.7285 44.4666 27.8349 44.5441C27.9225 44.6061 28.0084 44.6408 28.077 44.5317C28.22 44.3044 27.9613 44.2193 27.7729 44.1598C27.6873 44.1292 27.6084 44.0823 27.5406 44.0217C26.7778 43.2853 25.9869 42.5712 25.4232 41.6588C25.0397 41.0381 24.6908 40.3967 24.3272 39.7644V39.7586C24.0858 39.1426 23.8443 38.5271 23.6024 37.9122C23.5198 37.6444 23.4751 37.4816 23.3545 37.1617C23.3479 37.1204 23.3411 37.0981 23.3337 37.0576C23.2322 36.3139 23.086 35.5769 22.8958 34.8508L22.8453 34.4797C22.8453 33.6631 22.8452 32.8466 22.8519 32.03C22.861 30.8172 23.2376 29.6356 23.9321 28.6413C24.2974 28.0852 24.7537 27.5946 25.2819 27.1899C25.2819 27.3693 25.3082 27.4586 25.2778 27.5205C24.7908 28.533 24.6653 29.624 24.6 30.7233C24.4215 33.7268 24.9546 36.6171 26.0704 39.4016C26.6869 40.9397 27.444 42.3985 28.7978 43.4515C29.5812 44.0679 30.4765 44.5268 31.4344 44.8028C31.4881 45.0623 31.246 45.1896 31.1707 45.3921C29.464 46.1103 27.7762 45.8599 26.129 45.2152C23.5436 44.2036 21.9675 42.2315 21.1294 39.652C20.9137 38.9908 20.9882 38.1891 21.1758 37.5609C21.2864 37.177 21.4918 36.8271 21.7733 36.5435C21.8997 36.4187 22.0288 36.3212 22.1131 36.3286C22.1901 36.782 22.3272 37.2231 22.5205 37.6403C22.5564 37.7213 22.5881 37.804 22.6156 37.8882C22.6195 37.8978 22.6238 37.9072 22.6287 37.9163C22.6632 38.0708 22.7116 38.2219 22.7733 38.3676C22.7973 38.4246 22.847 38.4651 22.8561 38.5255C22.9735 38.9057 23.0214 39.104 23.0214 39.104" fill="url(#paint4_linear_11_6703)"/>
</g>
<defs>
<linearGradient id="paint0_linear_11_6703" x1="93.2025" y1="39.9561" x2="70.5961" y2="27.8033" gradientUnits="userSpaceOnUse">
<stop offset="0.33" stop-color="#9C8837"/>
<stop offset="0.56" stop-color="#F7E59E"/>
<stop offset="0.6" stop-color="#F0DE96"/>
<stop offset="0.67" stop-color="#DECB80"/>
<stop offset="0.75" stop-color="#C1AD5D"/>
<stop offset="0.79" stop-color="#B39F4D"/>
</linearGradient>
<linearGradient id="paint1_linear_11_6703" x1="120.251" y1="42.252" x2="92.229" y2="25.5661" gradientUnits="userSpaceOnUse">
<stop offset="0.33" stop-color="#9C8837"/>
<stop offset="0.56" stop-color="#F7E59E"/>
<stop offset="0.6" stop-color="#F0DE96"/>
<stop offset="0.67" stop-color="#DECB80"/>
<stop offset="0.75" stop-color="#C1AD5D"/>
<stop offset="0.79" stop-color="#B39F4D"/>
</linearGradient>
<linearGradient id="paint2_linear_11_6703" x1="67.8785" y1="38.8222" x2="45.2057" y2="24.4961" gradientUnits="userSpaceOnUse">
<stop offset="0.33" stop-color="#9C8837"/>
<stop offset="0.56" stop-color="#F7E59E"/>
<stop offset="0.6" stop-color="#F0DE96"/>
<stop offset="0.67" stop-color="#DECB80"/>
<stop offset="0.75" stop-color="#C1AD5D"/>
<stop offset="0.79" stop-color="#B39F4D"/>
</linearGradient>
<linearGradient id="paint3_linear_11_6703" x1="39.3346" y1="35.4867" x2="24.924" y2="24.5096" gradientUnits="userSpaceOnUse">
<stop offset="0.33" stop-color="#9C8837"/>
<stop offset="0.56" stop-color="#F7E59E"/>
<stop offset="0.6" stop-color="#F0DE96"/>
<stop offset="0.67" stop-color="#DECB80"/>
<stop offset="0.75" stop-color="#C1AD5D"/>
<stop offset="0.79" stop-color="#B39F4D"/>
</linearGradient>
<linearGradient id="paint4_linear_11_6703" x1="33.7492" y1="42.5824" x2="19.234" y2="31.7025" gradientUnits="userSpaceOnUse">
<stop offset="0.33" stop-color="#9C8837"/>
<stop offset="0.56" stop-color="#F7E59E"/>
<stop offset="0.6" stop-color="#F0DE96"/>
<stop offset="0.67" stop-color="#DECB80"/>
<stop offset="0.75" stop-color="#C1AD5D"/>
<stop offset="0.79" stop-color="#B39F4D"/>
</linearGradient>
</defs>
</svg>
