<svg width="136" height="68" viewBox="0 0 136 68" fill="none" xmlns="http://www.w3.org/2000/svg">
<mask id="mask0_11_6685" style="mask-type:luminance" maskUnits="userSpaceOnUse" x="20" y="25" width="96" height="18">
<path d="M116 25H20V43H116V25Z" fill="white"/>
</mask>
<g mask="url(#mask0_11_6685)">
<path d="M99.2436 42.7256C98.676 42.7256 98.1082 42.7177 97.5409 42.7302C97.365 42.7343 97.292 42.6771 97.2393 42.5124C96.8942 41.4319 96.5336 40.3544 96.1895 39.2727C96.1379 39.1101 96.0652 39.0666 95.9004 39.0683C93.7438 39.074 91.5869 39.074 89.4299 39.0683C89.2472 39.0683 89.1801 39.1317 89.13 39.2964C88.8075 40.3593 88.4669 41.4173 88.1491 42.482C88.089 42.6832 87.999 42.734 87.7988 42.7323C86.6798 42.7226 85.5608 42.7276 84.4421 42.7276C84.1701 42.7276 84.1698 42.7276 84.2595 42.4753L88.9916 29.2121C89.3409 28.2339 89.69 27.2558 90.039 26.2779C90.3448 25.4206 90.9323 25.0065 91.8387 25.0062C92.7308 25.0062 93.6226 25.0117 94.5144 25.0015C94.6926 24.9995 94.7615 25.0599 94.8201 25.2211C96.9135 30.9713 99.0101 36.7203 101.11 42.468C101.203 42.7247 101.203 42.725 100.921 42.725L99.2436 42.7256ZM92.6722 28.6211C92.6379 28.6795 92.6326 28.6859 92.63 28.6932C91.8347 31.093 91.0391 33.4927 90.2431 35.8923C90.1701 36.1122 90.3196 36.0675 90.4313 36.0675C91.915 36.0675 93.3983 36.0652 94.882 36.0719C95.0816 36.0719 95.1285 36.0407 95.0596 35.8342C94.4323 33.9557 93.8161 32.0733 93.1958 30.1927C93.0281 29.682 92.8566 29.1742 92.6722 28.6211Z" fill="#EC1D25"/>
<path d="M74.1279 30.7766C74.4061 30.3678 74.6702 30.0265 75.0035 29.7449C75.9868 28.9139 77.1503 28.6645 78.4018 28.7097C80.6125 28.7918 83.0278 30.6771 83.3353 33.3552C83.3941 33.827 83.426 34.3018 83.4309 34.7773C83.4309 37.3437 83.4326 39.91 83.4359 42.4761C83.4359 42.6668 83.4066 42.7339 83.1934 42.7313C82.1879 42.7179 81.1824 42.7196 80.1772 42.7313C79.9898 42.7333 79.9549 42.6814 79.9552 42.505C79.9617 40.205 79.967 37.9051 79.9552 35.6052C79.9511 34.8392 79.8934 34.0753 79.5234 33.3736C79.067 32.508 78.4144 31.9027 77.3898 31.8305C75.8241 31.7202 74.7582 32.4852 74.3302 34.0061C74.1949 34.4879 74.1267 34.986 74.1276 35.4863C74.1276 37.8187 74.1247 40.151 74.1329 42.4831C74.1329 42.6834 74.088 42.7339 73.8846 42.7316C72.855 42.7196 71.8249 42.7225 70.7953 42.7298C70.6376 42.7298 70.5954 42.6907 70.5957 42.5318C70.5998 36.7618 70.5998 30.9917 70.5957 25.2216C70.5957 25.0572 70.6332 24.9988 70.8088 25.0032C71.2948 25.0151 71.7815 25.0072 72.2681 25.0072C73.3801 25.0072 74.1229 25.7425 74.1264 26.8557C74.1302 28.0661 74.1264 29.2766 74.1264 30.4873L74.1279 30.7766Z" fill="#010101"/>
<path d="M51.0625 36.808C49.6512 36.808 48.24 36.8118 46.8287 36.8037C46.6215 36.8037 46.574 36.8515 46.6001 37.06C46.6493 37.4525 46.6901 37.8447 46.8252 38.2194C47.3019 39.5407 48.2725 40.0135 49.4759 39.9849C49.9633 39.9783 50.4421 39.8567 50.8731 39.6301C51.0877 39.5162 51.2768 39.3696 51.4046 39.1801C51.7414 38.6807 52.2143 38.488 52.7927 38.4877C53.5956 38.4877 54.3986 38.4924 55.2016 38.4836C55.3859 38.4816 55.3716 38.5566 55.3335 38.6843C54.6619 40.9354 53.1621 42.3135 50.8684 42.8131C49.6169 43.085 48.3517 43.0718 47.116 42.7077C45.4623 42.2203 44.2624 41.1623 43.6242 39.5854C42.6108 37.0822 42.5832 34.5224 43.6298 32.0274C44.4433 30.084 46.0129 29.0298 48.1086 28.7732C49.354 28.6213 50.5861 28.7028 51.7731 29.1344C53.6478 29.8157 54.7181 31.2077 55.2441 33.0725C55.5665 34.2196 55.6067 35.3941 55.5868 36.5747C55.5835 36.7619 55.5082 36.8136 55.32 36.8124C53.9014 36.8042 52.4808 36.808 51.0625 36.808ZM49.2317 34.483H51.324C51.8634 34.483 51.8707 34.483 51.7863 33.9588C51.6954 33.3952 51.5298 32.857 51.1217 32.431C50.2842 31.5567 48.6372 31.4489 47.6364 32.1956C46.941 32.7142 46.683 33.4457 46.5983 34.2689C46.5793 34.4532 46.6317 34.4859 46.7988 34.4844C47.6097 34.4792 48.4206 34.483 49.2317 34.483Z" fill="#010101"/>
<path d="M36.6742 35.4373C36.6742 33.105 36.671 30.7723 36.6795 28.44C36.6795 28.2151 36.6388 28.1433 36.3946 28.1453C34.8215 28.1582 33.2484 28.1491 31.6748 28.1555C31.4956 28.1555 31.4262 28.1263 31.4288 27.924C31.4414 27.0202 31.4391 26.1161 31.4303 25.2123C31.4303 25.0394 31.4804 24.9997 31.6481 25C35.7028 25.0047 39.7574 25.0062 43.812 25.0047C44.8043 25.0047 45.6117 25.8247 45.6281 26.8377C45.6337 27.1925 45.6164 27.5484 45.6337 27.9027C45.6436 28.1018 45.5906 28.1582 45.3851 28.1567C43.9984 28.1474 42.6118 28.1518 41.2252 28.1518C40.9907 28.1518 40.7561 28.1585 40.5198 28.1494C40.3894 28.1442 40.344 28.1921 40.3563 28.3162C40.3592 28.3726 40.3592 28.4291 40.3563 28.4855C40.3563 33.1424 40.3581 37.7992 40.3618 42.4557C40.3618 42.6811 40.3 42.7299 40.0833 42.7275C39.0293 42.7163 37.9752 42.7163 36.9208 42.7275C36.7247 42.7296 36.6672 42.6908 36.6678 42.4831C36.6777 40.1344 36.6742 37.7857 36.6742 35.4373Z" fill="#010101"/>
<path d="M67.3029 33.192C66.8001 33.192 66.2968 33.1817 65.7946 33.1966C65.5853 33.2031 65.4654 33.1505 65.3651 32.9522C64.5589 31.3587 62.1551 31.4004 61.2214 32.438C60.7617 32.9481 60.5421 33.5684 60.4334 34.2263C60.2211 35.5112 60.2021 36.799 60.6022 38.0558C61.2363 40.0486 63.1025 40.2906 64.5202 39.7311C64.8468 39.6021 65.1048 39.3883 65.3194 39.1211C65.6732 38.6805 66.1247 38.4743 66.6931 38.4836C67.4714 38.4962 68.2501 38.4915 69.0284 38.4836C69.214 38.4816 69.2447 38.5274 69.1911 38.7026C68.4617 41.0829 66.8429 42.4551 64.3986 42.8709C63.2359 43.0689 62.0718 43.0403 60.9352 42.6928C59.1323 42.1417 57.924 40.9313 57.3157 39.1924C56.5429 36.9815 56.5215 34.7245 57.2893 32.5028C58.1042 30.1459 60.1068 28.765 62.6121 28.7171C63.6906 28.6961 64.7457 28.7915 65.7603 29.1799C67.4061 29.8098 68.3958 31.0413 68.9671 32.6526C69.158 33.1905 69.1518 33.1928 68.5922 33.1928L67.3029 33.192Z" fill="#010101"/>
<path d="M110.294 32.794C110.294 30.2847 110.297 27.7753 110.289 25.2663C110.289 25.0517 110.341 24.9933 110.556 25.0006C111.066 25.0175 111.577 25.0059 112.088 25.0061C113.096 25.0061 113.87 25.7695 113.878 26.7766C113.884 27.4544 113.891 28.1325 113.873 28.8097C113.867 29.0433 113.946 29.0845 114.157 29.0792C114.699 29.0652 115.241 29.0792 115.786 29.071C115.943 29.0687 115.995 29.1093 115.991 29.2719C115.981 29.7801 115.958 30.2905 115.993 30.7966C116.067 31.8382 115.28 32.69 114.174 32.6705C113.925 32.6658 113.871 32.7329 113.873 32.9741C113.884 34.8784 113.879 36.7824 113.879 38.6866C113.879 39.3504 114.157 39.6348 114.832 39.6657C114.994 39.673 115.158 39.6684 115.316 39.6982C115.749 39.7805 115.961 40.0013 115.975 40.4393C115.996 41.1568 115.981 41.8752 115.99 42.5932C115.99 42.7299 115.915 42.7258 115.822 42.7319C114.778 42.7982 113.734 42.7643 112.691 42.696C112.417 42.6779 112.14 42.6709 111.87 42.6084C110.984 42.4022 110.451 41.7674 110.334 40.7792C110.305 40.539 110.291 40.2972 110.292 40.0553C110.294 37.6349 110.295 35.2144 110.294 32.794Z" fill="#EC1D25"/>
<path d="M105.265 38.8549C105.265 40.0735 105.262 41.2924 105.269 42.511C105.269 42.6754 105.235 42.7306 105.058 42.7294C103.979 42.721 102.901 42.721 101.822 42.7294C101.667 42.7294 101.619 42.6938 101.619 42.532C101.628 40.2075 101.605 37.8828 101.639 35.5589C101.662 33.9852 102.063 32.5123 103.089 31.2633C103.927 30.2413 105.038 29.6692 106.3 29.3427C107.264 29.093 108.244 29.0025 109.237 29.0165C109.36 29.0183 109.405 29.0478 109.404 29.1783C109.4 30.2921 109.4 31.4059 109.404 32.5199C109.404 32.6895 109.324 32.6922 109.197 32.6951C108.638 32.7056 108.076 32.6475 107.52 32.7322C106.071 32.9532 105.345 33.7618 105.272 35.2245C105.269 35.2727 105.265 35.3212 105.265 35.3706C105.265 36.5312 105.265 37.6927 105.265 38.8549Z" fill="#EC1D25"/>
<path d="M25.7309 36.1774C25.7309 34.0869 25.7341 31.9966 25.7256 29.906C25.7256 29.694 25.7758 29.6397 25.9895 29.6432C27.0923 29.6552 28.1955 29.6514 29.2983 29.6456C29.449 29.6456 29.5035 29.6733 29.5035 29.84C29.4992 34.0694 29.4994 38.2983 29.5041 42.5268C29.5041 42.6815 29.4683 42.7297 29.3059 42.7286C28.187 42.7213 27.0677 42.7195 25.9484 42.7286C25.7561 42.7306 25.7268 42.6669 25.7271 42.4949C25.7328 40.3903 25.734 38.2844 25.7309 36.1774Z" fill="#EC1D25"/>
<path d="M23.8146 31.5583C23.8146 32.1149 23.8093 32.6718 23.8178 33.2281C23.8202 33.3857 23.7944 33.4538 23.6126 33.4526C22.4778 33.4439 21.3427 33.4456 20.2079 33.4526C20.0546 33.4526 19.9983 33.419 20 33.2543C20.0088 32.5205 19.9953 31.7861 20.0062 31.0519C20.0203 30.1204 20.4873 29.6611 21.4251 29.6503C22.1547 29.6424 22.8844 29.6552 23.6138 29.6441C23.7955 29.6415 23.8219 29.7069 23.819 29.8652C23.8093 30.4288 23.8146 30.9935 23.8146 31.5583Z" fill="#EC1D25"/>
<path d="M21.9095 42.7257C21.3419 42.7257 20.7741 42.7213 20.2068 42.7286C20.0576 42.7301 19.999 42.7024 19.999 42.5342C20.0072 41.4286 20.0072 40.3231 19.999 39.2177C19.999 39.0548 20.0515 39.0171 20.2062 39.0171C21.3413 39.0229 22.4765 39.0229 23.6118 39.0171C23.7657 39.0171 23.82 39.0524 23.8188 39.216C23.8118 40.3215 23.8118 41.4271 23.8188 42.5327C23.8188 42.7 23.7602 42.7292 23.6115 42.7272C23.0446 42.7205 22.477 42.7257 21.9095 42.7257Z" fill="#EC1D25"/>
<path d="M27.5969 28.1539H25.9209C25.8251 28.1539 25.7245 28.1767 25.7266 28.019C25.7345 27.4145 25.7055 26.8083 25.7447 26.2061C25.7952 25.4303 26.2361 25.027 27.0211 25.0089C27.7895 24.9928 28.5593 25.0086 29.3289 25.0039C29.4558 25.0039 29.4963 25.0427 29.4957 25.1695C29.4913 26.1127 29.4898 27.0559 29.4957 27.9991C29.4957 28.1624 29.4077 28.1557 29.2972 28.1554C28.7308 28.1539 28.1639 28.1539 27.5969 28.1539Z" fill="#EC1D25"/>
</g>
</svg>
