<svg width="136" height="68" viewBox="0 0 136 68" fill="none" xmlns="http://www.w3.org/2000/svg">
<mask id="mask0_11_6838" style="mask-type:luminance" maskUnits="userSpaceOnUse" x="22" y="18" width="94" height="32">
<path d="M115.023 18H22V50H115.023V18Z" fill="white"/>
</mask>
<g mask="url(#mask0_11_6838)">
<path d="M21.9998 45.3747C22.4593 45.3393 22.93 45.33 23.3765 45.2631C24.3607 45.118 24.904 44.5189 25.0286 43.5496C25.103 43.0019 25.144 42.4502 25.1514 41.8975C25.1514 36.8482 25.1756 31.8007 25.1365 26.7514C25.1365 25.8733 25.3561 25.5273 26.2696 25.6147C27.0705 25.6845 27.876 25.6845 28.677 25.6147C29.4417 25.5552 29.6072 25.8696 29.6072 26.5673C29.5831 30.4463 29.5961 34.3235 29.5942 38.2026C29.5942 39.9273 29.6165 41.6519 29.5756 43.3747C29.477 47.5477 27.3803 49.624 23.1942 49.7487C22.7942 49.7598 22.3961 49.7914 21.9961 49.8156L21.9998 45.3747Z" fill="#2A43D4"/>
<path d="M91.0234 33.5886C90.6011 31.4677 89.5091 30.1226 87.5426 29.611C85.7249 29.1403 84.1751 29.6891 82.9453 31.0658C81.4141 32.7775 81.5072 35.4454 83.109 37.1216C83.8775 37.9415 84.9251 38.4441 86.0454 38.5306C87.1658 38.617 88.2779 38.281 89.163 37.5886C89.6655 37.1789 90.1421 36.7384 90.59 36.2696C93.4662 33.3858 96.311 30.4649 99.2245 27.6184C101.756 25.1421 104.845 24.4184 108.207 25.3728C111.569 26.3272 113.65 28.6454 114.506 32.0221C114.666 32.6487 114.751 33.2919 114.759 33.9384C114.787 36.4947 114.759 39.0528 114.783 41.611C114.783 42.2156 114.597 42.4351 113.991 42.4147C113.003 42.3793 112.011 42.3793 111.023 42.4147C110.408 42.4351 110.229 42.1914 110.236 41.5998C110.261 39.1663 110.249 36.731 110.236 34.2956C110.236 32.13 109.193 30.4891 107.373 29.7542C105.513 29.01 103.695 29.4342 102.142 30.9933C99.0923 34.0575 96.0281 37.1049 92.9993 40.1877C89.0923 44.1598 82.6216 43.7635 79.3044 39.6128C77.1686 36.943 76.6589 33.9291 77.8775 30.7589C79.1073 27.5551 81.5109 25.6128 84.9472 25.0621C88.7314 24.4575 92.3723 26.1263 94.2644 29.2277C94.5769 29.7375 94.5732 30.0705 94.1248 30.4947C93.0979 31.4658 92.1174 32.4891 91.0234 33.5886Z" fill="#2A43D4"/>
<path d="M45.5085 27.222L45.6946 25.6871H50.102V42.4759H45.6964C45.6425 42.0071 45.5922 41.5643 45.5104 40.9355C43.2146 42.8927 40.6843 43.3969 37.9253 42.6099C36.0648 42.0778 34.6378 40.9355 33.555 39.3559C31.1029 35.7801 31.436 30.8778 34.3606 27.7429C35.045 26.983 35.8725 26.3655 36.7957 25.9256C37.7189 25.4857 38.7198 25.232 39.7411 25.1792C41.8713 25.0452 43.7671 25.6499 45.5085 27.222ZM40.9988 38.6173C43.7057 38.6266 45.6313 36.7122 45.6071 34.0387C45.5848 31.4173 43.6592 29.4676 41.0602 29.4341C38.4611 29.4006 36.4611 31.395 36.4667 34.0703C36.4722 36.7457 38.3215 38.608 40.9988 38.6173Z" fill="#2A43D4"/>
<path d="M59.3094 25.5946C60.3978 25.5946 61.2555 25.6188 62.1113 25.5946C62.7197 25.5723 63.0229 25.7285 62.9839 26.4132C62.9346 27.3372 62.9346 28.2631 62.9839 29.1871C63.0136 29.8178 62.755 29.989 62.169 29.9648C61.3076 29.9295 60.4462 29.9555 59.4322 29.9555V31.096C59.4322 34.5174 59.4006 37.9388 59.4546 41.3602C59.4694 42.2513 59.1643 42.4876 58.3383 42.4281C57.5333 42.3654 56.7247 42.3654 55.9197 42.4281C55.0285 42.5062 54.8313 42.1285 54.8406 41.3118C54.876 37.963 54.8574 34.5936 54.8536 31.2336C54.8536 29.9778 54.8536 29.9778 53.5718 29.9741C52.3439 29.9741 52.3439 29.9741 52.342 28.7853C52.342 27.9834 52.3625 27.1816 52.342 26.3816C52.3234 25.8234 52.528 25.6374 53.0973 25.6225C54.6992 25.589 54.6992 25.5648 54.9299 23.9276C55.3969 20.642 57.8453 18.5471 61.3485 18.4392C61.8397 18.4243 62.3308 18.4392 62.8946 18.4392V22.6811C61.7988 22.8671 60.476 22.6811 59.8006 23.8737C59.5476 24.3257 59.5048 24.8839 59.3094 25.5946Z" fill="#2A43D4"/>
<path d="M64.4365 29.9679V25.6274C65.1063 25.6274 65.7388 25.5939 66.377 25.6274C67.0746 25.6739 67.3946 25.4656 67.3667 24.6972C67.3351 23.8804 67.1509 22.8367 67.5658 22.3009C67.9807 21.7651 69.0542 21.7093 69.8486 21.4618C70.4886 21.2628 71.136 21.0897 71.8951 20.8721C71.8951 22.2228 71.9286 23.4507 71.8821 24.6749C71.8542 25.3707 72.1184 25.6163 72.79 25.5846C73.4988 25.5511 74.2114 25.5958 74.9221 25.5753C75.4244 25.5604 75.657 25.739 75.6458 26.2674C75.6216 27.2535 75.616 28.2395 75.6458 29.2237C75.6644 29.819 75.3816 29.9567 74.8551 29.9381C74.083 29.9121 73.3091 29.9493 72.537 29.927C72.0551 29.9139 71.8858 30.113 71.8895 30.58C71.9044 32.673 71.8802 34.7679 71.9044 36.8609C71.9156 37.8321 72.3918 38.3065 73.3928 38.3735C74.0923 38.42 74.7974 38.3735 75.6253 38.3735C75.6253 39.6758 75.6458 40.8721 75.6012 42.0609C75.6012 42.2321 75.2905 42.5037 75.0933 42.5372C73.3574 42.8293 71.6235 42.7474 69.9918 42.0888C68.0439 41.3018 67.4356 39.5939 67.376 37.6832C67.3053 35.406 67.3332 33.1251 67.3593 30.8479C67.3593 30.1837 67.1732 29.8823 66.4663 29.9344C65.8263 30.0051 65.1807 29.9679 64.4365 29.9679Z" fill="#2A43D4"/>
<path d="M101.046 34.4258C101.046 37.0751 101.059 39.5569 101.022 42.0369C101.022 42.223 100.674 42.5411 100.479 42.5486C99.3072 42.5988 98.1314 42.6044 96.9612 42.5486C96.7509 42.5374 96.403 42.1765 96.3863 41.9588C96.3348 41.13 96.328 40.299 96.3658 39.4695C96.3587 39.2563 96.4243 39.047 96.5519 38.876C98.0012 37.4193 99.4654 35.9867 101.046 34.4258Z" fill="#2A43D4"/>
<path d="M30.1057 21.0496C30.0861 21.7801 29.7846 22.4747 29.2645 22.9879C28.7443 23.5011 28.0457 23.7932 27.315 23.8031C26.9533 23.8056 26.5947 23.7359 26.2602 23.5981C25.9257 23.4603 25.622 23.2572 25.367 23.0006C25.112 22.744 24.9107 22.4391 24.775 22.1038C24.6392 21.7685 24.5717 21.4095 24.5764 21.0477C24.5913 20.3177 24.8858 19.6212 25.3992 19.1019C25.9126 18.5827 26.6057 18.2802 27.3355 18.257C28.7662 18.2384 30.1002 19.5817 30.1057 21.0496Z" fill="#2A43D4"/>
<path d="M99.706 24.9075L96.3758 28.2117C96.3758 27.1642 96.3553 26.2173 96.4 25.274C96.4 25.1438 96.733 24.9317 96.9191 24.9242C97.7972 24.8833 98.6791 24.9075 99.706 24.9075Z" fill="#2A43D4"/>
</g>
</svg>
