<svg width="136" height="68" viewBox="0 0 136 68" fill="none" xmlns="http://www.w3.org/2000/svg">
<mask id="mask0_11_6891" style="mask-type:luminance" maskUnits="userSpaceOnUse" x="23" y="17" width="90" height="35">
<path d="M23 17H113V52H23V17Z" fill="white"/>
</mask>
<g mask="url(#mask0_11_6891)">
<path d="M95.3649 52C105.104 52 113 44.165 113 34.5C113 24.835 105.104 17 95.3649 17C85.6249 17 77.7299 24.835 77.7299 34.5C77.7299 44.165 85.6249 52 95.3649 52ZM72.2569 42.345C72.7399 42.345 73.2049 42.155 73.5469 41.815C73.7159 41.6474 73.85 41.448 73.9415 41.2283C74.033 41.0086 74.0801 40.773 74.0801 40.535C74.0801 40.297 74.033 40.0614 73.9415 39.8417C73.85 39.622 73.7159 39.4226 73.5469 39.255C73.2038 38.9147 72.7401 38.7238 72.2569 38.7238C71.7737 38.7238 71.31 38.9147 70.9669 39.255C70.798 39.4226 70.6638 39.622 70.5723 39.8417C70.4808 40.0614 70.4337 40.297 70.4337 40.535C70.4337 40.773 70.4808 41.0086 70.5723 41.2283C70.6638 41.448 70.798 41.6474 70.9669 41.815C71.3089 42.155 71.7729 42.345 72.2569 42.345ZM64.1359 27.045H68.3059V42.463H64.4599L58.1089 34.008L58.1589 42.342H53.9789V26.945H57.8359L64.1359 35.892V27.045ZM45.3269 42.723C41.3099 42.723 38.5429 40.108 38.5429 36.333V27.045H42.7229V36.342C42.7229 37.895 43.8029 38.967 45.3269 38.967C46.8619 38.967 47.9419 37.895 47.9419 36.351V27.045H52.1219V36.332C52.1219 40.11 49.3549 42.723 45.3269 42.723ZM32.0919 34.54L38.1389 42.344H32.8879L28.3879 36.111H28.2279V42.342H24.0459V27.045H28.2259V33.417H28.3359L32.5859 27.045H37.4119L32.0919 34.54Z" fill="#0C2F75"/>
<path d="M109.605 42.339V38.642H103.658L110.059 27.042H97.9856V30.728H103.204L96.7736 42.338L109.605 42.339ZM95.8446 36.329V27.04H91.6646V36.347C91.6646 37.89 90.5846 38.962 89.0496 38.962C87.5256 38.962 86.4456 37.89 86.4456 36.337V27.04H82.2656V36.327C82.2656 40.105 85.0316 42.719 89.0496 42.719C93.0776 42.719 95.8446 40.104 95.8446 36.327V36.329Z" fill="#021923"/>
</g>
</svg>
