<svg width="214" height="46" viewBox="0 0 214 46" fill="none" xmlns="http://www.w3.org/2000/svg">
<g clip-path="url(#clip0_11_7146)">
<mask id="mask0_11_7146" style="mask-type:luminance" maskUnits="userSpaceOnUse" x="0" y="0" width="214" height="46">
<path d="M214 0H0V46H214V0Z" fill="white"/>
</mask>
<g mask="url(#mask0_11_7146)">
<path d="M0.000976562 13.2606C0.000976562 12.9437 0.142437 12.7853 0.425358 12.7853H1.82603C1.92497 12.7852 2.02235 12.81 2.10919 12.8575C2.21982 12.9285 2.3053 13.0326 2.35344 13.1551L8.75519 25.8123L9.16661 27.0402L9.03763 25.8029L8.93532 13.2606C8.93056 13.1371 8.96934 13.0159 9.04484 12.9182C9.0852 12.8719 9.13578 12.8356 9.19256 12.8123C9.24934 12.7889 9.31076 12.7792 9.37195 12.7838H10.8129C10.9219 12.7797 11.0281 12.8189 11.1083 12.8929C11.1852 12.9656 11.2239 13.0838 11.2243 13.2476V30.6987C11.2243 31.0084 11.074 31.1632 10.7733 31.1632H9.41014C9.30764 31.1606 9.2069 31.136 9.11473 31.0909C8.99984 31.029 8.91259 30.9258 8.87047 30.802L2.50835 18.3247L2.05803 17.0621L2.20214 18.3377L2.27635 30.6843C2.27635 31.0021 2.13921 31.161 1.86494 31.161H0.423917C0.141957 31.161 0.000976562 31.0021 0.000976562 30.6843V13.2606Z" fill="#0F1826"/>
<path d="M26.6075 30.671C26.6587 30.8155 26.6529 30.9346 26.5888 31.0249C26.5558 31.0697 26.5121 31.1055 26.4618 31.1291C26.4114 31.1527 26.356 31.1633 26.3006 31.16H24.642C24.5429 31.1588 24.4457 31.1325 24.3595 31.0834C24.3078 31.051 24.2637 31.0076 24.2304 30.9563C24.197 30.9051 24.1752 30.8471 24.1664 30.7866L23.304 27.3975H17.7503L16.9015 30.7866C16.8927 30.847 16.871 30.9049 16.8378 30.9561C16.8045 31.0074 16.7607 31.0508 16.7091 31.0834C16.6226 31.1324 16.5253 31.1587 16.426 31.16H14.7709C14.7161 31.164 14.6612 31.1537 14.6115 31.13C14.5619 31.1063 14.5192 31.0701 14.4878 31.0249C14.4574 30.9716 14.4392 30.9122 14.4347 30.8509C14.4303 30.7897 14.4395 30.7282 14.4618 30.671L19.3613 13.17C19.388 13.0492 19.4536 12.9406 19.5479 12.8608C19.6277 12.8009 19.725 12.7692 19.8246 12.7706H21.2512C21.3527 12.7701 21.4518 12.8016 21.5344 12.8608C21.6315 12.9392 21.6993 13.0481 21.7268 13.17L26.6075 30.671ZM18.3014 25.232H22.7621L20.7303 17.1651L20.5379 15.7992L20.3448 17.1651L18.3014 25.232Z" fill="#0F1826"/>
<path d="M34.5237 13.2474C34.5237 13.0762 34.5662 12.9585 34.6527 12.8863C34.7278 12.8215 34.8232 12.7853 34.9222 12.7837H36.4648C36.6363 12.7837 36.753 12.8285 36.8186 12.9188C36.8891 13.0326 36.9229 13.1656 36.9151 13.2994L36.9022 26.9209C36.911 27.5613 36.7907 28.1969 36.5484 28.7895C36.3325 29.322 36.0093 29.804 35.5989 30.2053C35.1885 30.6067 34.6998 30.9187 34.1635 31.1219C33.6019 31.339 33.0045 31.4483 32.4026 31.444C31.7425 31.446 31.0886 31.3166 30.4788 31.0634C29.9055 30.8378 29.3889 30.4884 28.9657 30.0398C28.8739 29.9443 28.8038 29.83 28.7604 29.7047C28.7092 29.5667 28.7431 29.4381 28.8634 29.3175L29.6985 28.3381C29.8188 28.2181 29.9362 28.1712 30.0522 28.1936C30.1748 28.2236 30.2849 28.2913 30.3671 28.3872C30.6002 28.5975 30.8623 28.7732 31.1453 28.9087C31.4992 29.0817 31.8892 29.1679 32.2829 29.16C32.5928 29.1633 32.8997 29.0998 33.1829 28.9737C33.453 28.8519 33.6941 28.6738 33.8904 28.4515C34.0953 28.2132 34.2524 27.9375 34.353 27.6396C34.4669 27.3036 34.5231 26.9507 34.5194 26.5958L34.5237 13.2474Z" fill="#0F1826"/>
<path d="M40.4474 18.7116C40.4425 17.8943 40.564 17.0812 40.8077 16.3013C41.0328 15.5739 41.3975 14.8977 41.8812 14.3106C42.3652 13.7331 42.9711 13.2707 43.6551 12.9569C44.3617 12.6261 45.1824 12.4609 46.1171 12.4614C47.0423 12.4614 47.8589 12.6266 48.5669 12.9569C49.2513 13.2715 49.86 13.7302 50.3516 14.3019C50.8446 14.8843 51.2164 15.5597 51.4453 16.2883C51.6929 17.0672 51.8164 17.8804 51.8113 18.6979V25.258C51.8163 26.0745 51.6927 26.8868 51.4453 27.6647C51.2171 28.3917 50.8478 29.0662 50.3588 29.6497C49.869 30.2244 49.2593 30.6843 48.5726 30.9968C47.8603 31.3276 47.0406 31.493 46.1135 31.493C45.1865 31.493 44.3723 31.3279 43.671 30.9975C42.9893 30.6827 42.384 30.2231 41.8971 29.6504C41.409 29.0665 41.0408 28.3917 40.8134 27.6647C40.5657 26.8858 40.4422 26.0726 40.4474 25.2551V18.7116ZM42.8251 25.4126C42.821 25.9187 42.8922 26.4226 43.0362 26.9078C43.1651 27.3471 43.3794 27.7566 43.6667 28.1126C43.9465 28.4533 44.2975 28.7285 44.6948 28.9187C45.1393 29.1236 45.6244 29.2246 46.1135 29.2141C46.6052 29.2244 47.0928 29.1234 47.5401 28.9187C47.9413 28.7288 48.2966 28.4537 48.5813 28.1126C48.8717 27.7602 49.0881 27.3526 49.2175 26.9143C49.3639 26.4318 49.4367 25.9299 49.4337 25.4256V18.5311C49.4383 18.0309 49.3654 17.5331 49.2175 17.0554C49.0834 16.6172 48.8678 16.2084 48.582 15.8505C48.3008 15.5051 47.9473 15.2257 47.5466 15.0322C47.0995 14.8332 46.616 14.7299 46.1268 14.7288C45.6377 14.7277 45.1537 14.8288 44.7057 15.0257C44.3045 15.2152 43.9509 15.4926 43.671 15.8375C43.3834 16.1956 43.1681 16.6062 43.0369 17.0467C42.8936 17.5275 42.8224 18.0271 42.8258 18.5289L42.8251 25.4126Z" fill="#0F1826"/>
<path d="M53.9944 13.2182C53.99 13.1589 53.9974 13.0993 54.0162 13.0429C54.035 12.9864 54.0648 12.9343 54.1039 12.8896C54.1402 12.8535 54.1834 12.8251 54.231 12.8064C54.2786 12.7876 54.3295 12.7788 54.3806 12.7805H64.6897C64.7388 12.7798 64.7874 12.789 64.8328 12.8078C64.8781 12.8265 64.9192 12.8544 64.9534 12.8896C64.9928 12.9342 65.0228 12.9863 65.0418 13.0427C65.0607 13.0992 65.0682 13.1589 65.0637 13.2182V14.6484C65.0637 14.7929 65.0276 14.8998 64.9541 14.9641C64.8815 15.0284 64.7873 15.063 64.6904 15.0609H60.7182V30.7221C60.7271 30.841 60.6899 30.9587 60.6145 31.0508C60.5799 31.0871 60.5379 31.1156 60.4915 31.1344C60.445 31.1532 60.3951 31.1619 60.345 31.1599H58.7231C58.671 31.1628 58.6189 31.1546 58.5702 31.1358C58.5215 31.117 58.4774 31.088 58.4407 31.0508C58.3649 30.9589 58.3277 30.841 58.337 30.7221V15.0638H54.3806C54.2796 15.0674 54.1808 15.0329 54.1039 14.967C54.0319 14.9027 53.9944 14.798 53.9944 14.6513V13.2182Z" fill="#0F1826"/>
<path d="M145.765 13.2182C145.761 13.1589 145.768 13.0994 145.787 13.0429C145.805 12.9865 145.835 12.9344 145.874 12.8896C145.91 12.8535 145.954 12.8253 146.001 12.8065C146.049 12.7878 146.1 12.7789 146.151 12.7805H156.461C156.51 12.7797 156.558 12.789 156.604 12.8077C156.649 12.8265 156.69 12.8543 156.724 12.8896C156.763 12.9344 156.793 12.9865 156.812 13.0429C156.83 13.0994 156.838 13.1589 156.833 13.2182V14.6484C156.833 14.7929 156.797 14.8998 156.724 14.9641C156.652 15.0283 156.557 15.0628 156.461 15.0608H152.488V30.7221C152.497 30.8409 152.461 30.9586 152.385 31.0508C152.351 31.087 152.309 31.1155 152.262 31.1343C152.216 31.1531 152.166 31.1618 152.116 31.1598H150.496C150.444 31.1627 150.392 31.1544 150.343 31.1356C150.294 31.1168 150.25 31.0879 150.213 31.0508C150.138 30.9586 150.101 30.8409 150.11 30.7221V15.0637H146.151C146.05 15.0672 145.951 15.0326 145.874 14.9669C145.802 14.9027 145.765 14.7979 145.765 14.6513V13.2182Z" fill="#0F1826"/>
<path d="M169.666 30.671C169.718 30.8155 169.711 30.9346 169.647 31.0249C169.614 31.0698 169.571 31.1057 169.52 31.1293C169.47 31.1529 169.414 31.1635 169.359 31.16H167.702C167.602 31.1588 167.505 31.1325 167.419 31.0834C167.367 31.0508 167.323 31.0074 167.29 30.9561C167.257 30.9049 167.235 30.847 167.226 30.7866L166.362 27.3975H160.808L159.959 30.7866C159.95 30.847 159.929 30.9049 159.895 30.9561C159.862 31.0074 159.818 31.0508 159.767 31.0834C159.68 31.1324 159.583 31.1587 159.484 31.16H157.826C157.772 31.1643 157.717 31.154 157.667 31.1303C157.617 31.1066 157.575 31.0703 157.543 31.0249C157.513 30.9717 157.494 30.9122 157.49 30.8509C157.485 30.7896 157.495 30.7281 157.517 30.671L162.417 13.17C162.443 13.0491 162.509 12.9404 162.603 12.8608C162.683 12.801 162.779 12.7692 162.879 12.7705H164.307C164.408 12.7699 164.507 12.8015 164.589 12.8608C164.687 12.9389 164.755 13.0479 164.782 13.17L169.666 30.671ZM161.362 25.232H165.823L163.791 17.1651L163.598 15.7992L163.406 17.1651L161.362 25.232Z" fill="#0F1826"/>
<path d="M172.548 13.3506C172.54 13.2091 172.584 13.0696 172.669 12.957C172.715 12.9065 172.772 12.8672 172.836 12.8422C172.899 12.8171 172.967 12.807 173.035 12.8125H174.681C175.007 12.8125 175.17 12.9931 175.17 13.3542V15.5573C175.175 15.7995 175.126 16.0398 175.025 16.2601C174.937 16.4461 174.808 16.6092 174.646 16.7368C174.484 16.8635 174.298 16.9577 174.1 17.0142C173.895 17.0741 173.683 17.1045 173.47 17.1045C173.204 17.1045 173.071 16.9969 173.071 16.7816V16.2522C173.068 16.2088 173.077 16.1655 173.098 16.1271C173.118 16.0888 173.149 16.057 173.187 16.0355C173.27 15.9906 173.363 15.9682 173.458 15.9705C173.503 15.9756 173.55 15.9702 173.593 15.9547C173.636 15.9392 173.675 15.9139 173.708 15.8809C173.76 15.8054 173.785 15.7146 173.78 15.623C173.787 15.5394 173.767 15.4556 173.722 15.3847C173.694 15.3575 173.661 15.337 173.624 15.3245C173.587 15.312 173.548 15.3079 173.509 15.3124H172.983C172.869 15.3147 172.759 15.2731 172.674 15.1961C172.589 15.1189 172.546 14.9946 172.546 14.822L172.548 13.3506Z" fill="#0F1826"/>
<path d="M179.671 13.2604C179.671 12.9426 179.812 12.7837 180.095 12.7837H181.626C181.908 12.7837 182.05 12.9426 182.05 13.2604V28.8928H188.054C188.159 28.8878 188.262 28.9226 188.343 28.9903C188.415 29.0546 188.452 29.1593 188.452 29.3052V30.7231C188.457 30.7825 188.449 30.8421 188.43 30.8986C188.412 30.955 188.382 31.0071 188.343 31.0518C188.304 31.0888 188.259 31.1176 188.21 31.1365C188.16 31.1553 188.107 31.1639 188.054 31.1616H180.095C179.812 31.1616 179.671 31.0027 179.671 30.6849V13.2604Z" fill="#0F1826"/>
<path d="M192.259 13.2604C192.259 12.9426 192.403 12.7837 192.696 12.7837H194.225C194.5 12.7837 194.637 12.9426 194.637 13.2604V30.6841C194.637 31.002 194.5 31.1609 194.225 31.1609H192.696C192.404 31.1609 192.259 31.002 192.259 30.6841V13.2604Z" fill="#0F1826"/>
<path d="M202.455 18.4145L201.992 16.7395L202.147 18.4008L202.248 30.6983C202.266 31.0074 202.137 31.162 201.864 31.162H200.359C200.221 31.162 200.127 31.1194 200.076 31.0334C200.02 30.9266 199.993 30.8066 199.999 30.686V13.1958C200.001 13.0835 200.04 12.9749 200.108 12.8859C200.143 12.8467 200.185 12.8159 200.233 12.7959C200.281 12.7758 200.333 12.7671 200.385 12.7704H202.197C202.242 12.7659 202.287 12.7729 202.329 12.7909C202.37 12.8088 202.407 12.8371 202.434 12.8729C202.491 12.9616 202.536 13.0569 202.57 13.1568L206.793 24.3946L206.999 25.4644L207.205 24.3809L211.456 13.1554C211.488 13.0554 211.534 12.96 211.59 12.8715C211.618 12.8355 211.655 12.8073 211.696 12.7893C211.738 12.7714 211.784 12.7644 211.829 12.7689H213.617C213.669 12.7657 213.72 12.7744 213.768 12.7945C213.816 12.8145 213.858 12.8453 213.892 12.8845C213.96 12.9733 213.999 13.082 214.001 13.1944V30.6838C214.019 31.0016 213.904 31.1603 213.655 31.1598H212.147C211.892 31.1598 211.765 31.0052 211.765 30.6961L211.879 18.4167L212.023 16.7929L211.587 18.4167L207.984 27.9145C207.959 28.027 207.906 28.1314 207.83 28.2178C207.763 28.2766 207.675 28.3066 207.586 28.3016H206.427C206.342 28.3053 206.259 28.2752 206.196 28.2178C206.12 28.1314 206.067 28.027 206.042 27.9145L202.455 18.4145Z" fill="#0F1826"/>
<path d="M139.664 13.8509L137.845 14.1673C134.14 14.8124 130.692 15.7967 127.554 16.9553V6.97317L126.586 7.41088C124.386 8.40349 122.299 9.4407 120.31 10.5339L120.243 0.075716L119.19 0.751978C114.067 4.0389 109.369 7.7739 105.174 11.8854C101.133 8.04772 96.5788 4.32102 91.5784 0.769611L90.4942 0V10.8399C88.328 9.61703 86.1071 8.50306 83.8397 7.50734L82.8722 7.08208L82.9177 16.3641C79.5992 15.219 76.258 14.4712 72.9467 14.133L71.3174 13.9671L84.3601 30.3426L84.3023 18.3555C86.5439 19.2341 88.6182 20.237 90.4953 21.2711V31.6484L90.6305 31.832C94.4653 37.0181 104.554 45.4537 104.982 45.8105L105.418 46.1746L105.857 45.8126C106.285 45.4599 116.381 37.1114 120.218 31.7231L120.444 31.3352L120.383 21.6736C122.146 20.7422 124.085 19.8211 126.181 18.9685V30.3934L139.664 13.8509ZM127.554 18.4292C130.223 17.4189 133.127 16.5332 136.23 15.8828L127.554 26.5267V18.4292ZM74.4656 15.7117C77.4629 16.1452 80.2961 16.8993 82.9228 17.839L82.9641 26.3815L74.4656 15.7117ZM118.875 2.60133L118.888 11.3336C115.819 13.1031 112.984 15.0219 110.318 17.1399C109.737 16.4989 109.141 15.859 108.527 15.22C107.759 14.4193 106.966 13.6238 106.155 12.8313C109.982 9.08182 114.211 5.68288 118.875 2.60133ZM95.7704 22.8871C94.4859 22.0169 93.1829 21.2058 91.8675 20.4548V13.2452C94.4167 14.7937 96.8824 16.4989 99.2489 18.3514C98.045 19.8149 96.8844 21.3271 95.7704 22.8871ZM100.316 19.1998C101.657 20.2879 102.965 21.4236 104.237 22.6039C103.008 23.8486 101.81 25.1545 100.634 26.5277C99.5452 25.6285 98.2938 24.6576 96.8958 23.6661C97.9903 22.132 99.1291 20.6426 100.316 19.1998ZM109.257 17.9998C107.867 19.1511 106.524 20.3584 105.216 21.6331C103.914 20.4227 102.575 19.2589 101.202 18.1439C102.478 16.6452 103.807 15.1951 105.189 13.7928C106.621 15.1869 107.978 16.5892 109.257 17.9998ZM109.05 27.482C107.209 28.9662 105.937 30.1663 105.279 30.8156C104.646 30.1497 103.427 28.9226 101.686 27.4176C102.845 26.0651 104.029 24.7779 105.24 23.552C106.552 24.8142 107.822 26.1242 109.05 27.482ZM100.795 28.4756C103.316 30.66 104.728 32.2479 104.749 32.2718L105.249 32.8392L105.765 32.2863C105.786 32.2635 107.261 30.6963 109.969 28.5161C110.831 29.5035 111.67 30.5148 112.486 31.5478L105.463 38.2181L98.331 31.5955C99.1436 30.5179 99.9634 29.4786 100.795 28.4756ZM106.219 22.5822C107.5 21.3365 108.817 20.1561 110.177 19.0308C111.573 20.6208 112.87 22.2181 114.063 23.8175C113.934 23.9025 113.809 23.9866 113.685 24.0695C112.361 24.9595 111.175 25.8235 110.134 26.6263C108.873 25.2291 107.567 23.8808 106.219 22.5822ZM111.24 18.1719C113.635 16.2749 116.17 14.5407 118.893 12.932L118.905 20.9019C117.566 21.6342 116.333 22.3664 115.216 23.0728C113.998 21.4381 112.672 19.8035 111.24 18.1719ZM91.8675 2.67497C96.4147 5.96915 100.542 9.37639 104.206 12.849C103.49 13.575 102.788 14.3104 102.102 15.0582C101.434 15.7884 100.778 16.5342 100.134 17.2914C97.4926 15.2221 94.7306 13.3313 91.8675 11.6354V2.67497ZM86.2764 17.6627C85.6167 17.3806 84.9548 17.113 84.292 16.8619L84.2548 9.20629C86.3797 10.1771 88.4612 11.2537 90.4922 12.4289V19.6946C89.0973 18.9478 87.6899 18.2684 86.2764 17.6627ZM94.9795 24.0146C93.8953 25.5859 92.8566 27.1998 91.8685 28.8542V22.0522C92.9888 22.7118 94.0296 23.3736 94.9795 24.0146ZM105.421 44.3792C103.465 42.7196 95.4637 35.8388 92.0027 31.3653C93.2892 29.0876 94.6563 26.899 96.1049 24.7956C97.4606 25.7581 98.68 26.7051 99.7435 27.5857C98.7688 28.7629 97.8085 29.9879 96.8576 31.2657L96.4869 31.7636L105.473 40.109L114.34 31.6878L113.956 31.1931C113.02 29.9868 112.051 28.8096 111.053 27.6635C112.054 26.8918 113.19 26.0651 114.45 25.2188C114.589 25.1244 114.733 25.0289 114.877 24.9335C116.385 27.0432 117.711 29.1571 118.846 31.2647C115.401 35.8854 107.382 42.731 105.421 44.3792ZM118.916 28.5959C118.045 27.1303 117.083 25.6606 116.03 24.1888C116.917 23.6298 117.878 23.0541 118.907 22.4764L118.916 28.5959ZM120.37 20.1229L120.318 12.1084C122.18 11.0619 124.128 10.0672 126.179 9.11502V17.4822C124.089 18.3099 122.147 19.2081 120.37 20.1229Z" fill="#BA8D5B"/>
</g>
</g>
<defs>
<clipPath id="clip0_11_7146">
<rect width="214" height="46" fill="white"/>
</clipPath>
</defs>
</svg>
