<svg width="136" height="68" viewBox="0 0 136 68" fill="none" xmlns="http://www.w3.org/2000/svg">
<mask id="mask0_11_6824" style="mask-type:luminance" maskUnits="userSpaceOnUse" x="32" y="13" width="72" height="42">
<path d="M103.824 13H32.1768V55H103.824V13Z" fill="white"/>
</mask>
<g mask="url(#mask0_11_6824)">
<path d="M59.3666 55.0002C58.9377 54.8897 58.5067 54.7872 58.08 54.6677C56.9489 54.3501 56.0678 53.6966 55.7863 52.543C55.3853 50.9003 56.228 49.0141 57.8955 48.4796C58.443 48.3038 59.0327 48.228 59.6093 48.1806C60.244 48.1282 60.8858 48.1502 61.5243 48.1611C61.8423 48.1663 61.9691 48.0665 61.9225 47.7352C61.8279 47.0459 61.4259 46.6133 60.7112 46.6224C60.01 46.6312 59.3093 46.7416 58.6093 46.8177C58.2454 46.8569 57.8827 46.9111 57.5218 46.9725C57.2568 47.0176 57.1082 46.9172 57.0521 46.6628C56.9547 46.2193 56.8242 45.7806 56.7743 45.3307C56.7556 45.1634 56.8864 44.8534 57.0123 44.8153C59.0532 44.2005 61.1174 43.8568 63.1838 44.6797C64.1111 45.049 64.6341 45.7818 64.7661 46.7635C64.8416 47.2966 64.8853 47.8337 64.8969 48.3719C64.919 49.9624 64.915 51.5534 64.9193 53.1445C64.9214 53.9214 64.8108 54.1386 64.0759 54.3753C63.4356 54.5816 62.7626 54.6862 62.1048 54.8392C61.8974 54.8876 61.6925 54.9472 61.4863 55.0017L59.3666 55.0002ZM61.9115 51.2811H61.913C61.913 50.9991 61.9363 50.7141 61.9014 50.436C61.8882 50.3302 61.7409 50.1552 61.6563 50.1568C60.9958 50.1689 60.3304 50.175 59.6782 50.2654C59.1657 50.3365 58.8106 50.8242 58.7812 51.328C58.7481 51.8905 58.9748 52.3155 59.5511 52.4502C60.0645 52.5719 60.6212 52.5823 61.1508 52.5415C61.9115 52.484 61.9084 52.4454 61.9103 51.6836C61.9118 51.5501 61.9115 51.4156 61.9115 51.2811Z" fill="black"/>
<path d="M89.8004 54.9999C89.4542 54.894 89.1068 54.7915 88.7619 54.682C87.1348 54.1648 86.247 52.9991 85.9649 51.3886C85.8178 50.5492 85.8117 49.6807 85.7973 48.8246C85.7667 46.7365 87.4084 44.7804 89.4717 44.3746C90.8123 44.1108 92.114 44.1312 93.3495 44.7883C94.6022 45.4551 95.282 46.5464 95.5246 47.8867C95.6744 48.7118 95.7198 49.5651 95.7185 50.4056C95.7158 52.4913 94.3139 54.2467 92.2803 54.7915C92.0242 54.86 91.7687 54.9302 91.5126 54.9999H89.8004ZM88.7689 49.5934C88.8388 50.0424 88.9052 50.492 88.9797 50.9405C89.1142 51.7478 89.7523 52.3882 90.4664 52.439C91.3971 52.505 92.1244 52.018 92.4001 51.1638C92.7466 50.0902 92.72 49.0154 92.3802 47.9555C92.1887 47.3574 91.8288 46.8527 91.1367 46.7605C90.3843 46.6601 89.7364 46.8701 89.3075 47.5418C88.9077 48.1672 88.8152 48.8651 88.7689 49.5934Z" fill="black"/>
<path d="M81.1505 54.9997C80.847 54.8959 80.543 54.7931 80.2401 54.6879C79.4742 54.4223 78.9362 53.924 78.874 53.1038C78.7665 51.6822 78.7129 50.2557 78.666 48.8305C78.6464 48.2391 78.6939 47.644 78.7273 47.0523C78.7426 46.7816 78.6265 46.6928 78.3707 46.6955C78.0604 46.6989 77.7411 46.7223 77.4418 46.6608C76.816 46.5327 77.0641 46.0025 77.0378 45.6289C77.0148 45.3086 76.9137 44.8988 77.4553 44.8188C77.7068 44.7823 77.9418 44.6363 78.193 44.5982C78.7104 44.5198 78.8459 44.1991 78.8431 43.74C78.8409 43.3899 78.8394 43.0331 78.9044 42.692C78.9399 42.5095 79.0836 42.2661 79.2414 42.2053C79.8446 41.9698 80.4707 41.7903 81.0926 41.6042C81.4358 41.5013 81.6398 41.6002 81.6349 42.0045C81.6275 42.664 81.6573 43.3245 81.6444 43.984C81.6367 44.368 81.7715 44.5103 82.1716 44.489C82.6995 44.461 83.2316 44.482 83.7594 44.5194C83.871 44.5271 84.0557 44.6831 84.063 44.7814C84.0992 45.263 84.0891 45.7485 84.0906 46.2325C84.0906 46.554 83.9188 46.6888 83.6004 46.683C83.0842 46.6751 82.5674 46.6885 82.0512 46.6776C81.7553 46.6712 81.6438 46.7859 81.6456 47.0849C81.6548 48.5147 81.6413 49.9445 81.6487 51.3743C81.6524 52.1547 81.963 52.4449 82.7601 52.4114C83.1247 52.3959 83.4862 52.3165 83.8507 52.2897C84.4264 52.2462 84.5134 52.2897 84.6448 52.8373C84.7444 53.2529 84.7765 53.6867 84.8105 54.115C84.8351 54.4217 84.688 54.6298 84.3593 54.6821C84.0385 54.7329 83.7178 54.7858 83.4001 54.8509C83.2184 54.8883 83.0426 54.9522 82.864 55.003L81.1505 54.9997Z" fill="black"/>
<path d="M57.8405 34.5302C58.1695 34.0161 58.4755 33.5457 58.7742 33.0699C61.4491 28.8144 64.1232 24.5581 66.7967 20.3011C68.08 18.2586 69.3734 16.2219 70.6417 14.1702C71.0152 13.5658 71.5608 13.2323 72.2041 13.0246C72.633 12.8858 73.4216 13.3562 73.6927 13.891C74.4412 15.3658 75.1867 16.8422 75.9291 18.3201C77.6493 21.7285 79.3698 25.1369 81.0905 28.5453C82.5781 31.4987 84.0626 34.4537 85.544 37.4105C85.7431 37.806 85.967 38.1923 86.1407 38.5991C86.3144 39.0058 86.217 39.2154 85.7768 39.233C84.7468 39.2738 83.7141 39.2677 82.6826 39.244C82.2592 39.234 81.9599 38.9626 81.7697 38.589C81.282 37.6309 80.7954 36.6725 80.3099 35.7136C78.5535 32.2477 76.7971 28.7818 75.0406 25.3158C74.0977 23.4579 73.1413 21.6071 72.2035 19.7462C72.0402 19.4216 71.9256 19.4724 71.7676 19.7264C71.0043 20.9482 70.2398 22.17 69.4739 23.3919C67.7126 26.1988 65.951 29.0063 64.1893 31.8144C62.8178 34.0078 61.4628 36.2116 60.0879 38.4019C59.882 38.7296 59.6198 39.0317 59.3431 39.3048C58.9176 39.7253 58.3738 39.7916 57.8797 39.4995C57.2902 39.15 56.7351 38.7308 56.2104 38.2885C53.6538 36.1331 51.1129 33.9604 48.5653 31.7935C48.0816 31.3825 48.0139 31.3922 47.7192 31.9742C46.9484 33.4977 46.1941 35.0294 45.4249 36.5538C44.3288 38.7256 43.2192 40.8916 42.1255 43.064C40.3762 46.5347 38.63 50.0069 36.8868 53.4807C36.7804 53.6977 36.6623 53.9089 36.5333 54.1134C36.3087 54.4615 36.0039 54.6787 35.5622 54.6747C34.5978 54.6662 33.6321 54.6863 32.669 54.6586C32.1681 54.6443 32.074 54.5065 32.2762 54.0547C32.6938 53.1247 33.1441 52.2081 33.6027 51.2967C35.0291 48.462 36.4612 45.63 37.899 42.8006C39.5086 39.6236 41.119 36.4471 42.7302 33.2713C43.7069 31.3414 44.6731 29.4078 45.6519 27.4779C45.7808 27.2258 45.9342 26.9869 46.1099 26.7645C46.7272 25.9811 47.5329 25.8558 48.311 26.4782C49.3677 27.3239 50.39 28.2122 51.4214 29.089C53.4421 30.8066 55.4609 32.5266 57.4777 34.2491C57.5684 34.3276 57.6677 34.3972 57.8405 34.5302Z" fill="#FF0000"/>
<path d="M70.4414 47.8448C70.5455 47.6903 70.6381 47.5266 70.7554 47.383C71.3191 46.6919 71.9146 46.025 72.4492 45.3144C72.887 44.7312 73.4182 44.4531 74.1535 44.4957C74.7355 44.5292 75.3216 44.493 75.9055 44.5064C76.0694 44.5103 76.2318 44.5806 76.5066 44.6481C76.195 45.0524 75.9551 45.3865 75.6917 45.7019C75.1032 46.408 74.4969 47.0983 73.9173 47.8123C73.8318 47.9179 73.7947 48.1469 73.8517 48.2686C74.5337 49.7431 75.2392 51.2073 75.9349 52.6764C76.1761 53.1861 76.4102 53.699 76.6371 54.2151C76.7713 54.5193 76.6536 54.6909 76.3258 54.6961C75.5651 54.7079 74.8042 54.7049 74.0435 54.7119C73.7145 54.7149 73.5184 54.5479 73.3928 54.2589C72.9388 53.2136 72.4804 52.17 72.0176 51.1279C71.9156 50.8986 71.7817 50.6832 71.6193 50.382C70.9947 51.0933 70.1761 51.5824 70.2214 52.6372C70.2438 53.1622 70.2383 53.6891 70.2352 54.2151C70.2334 54.5437 70.0934 54.7575 69.7236 54.753C69.1256 54.746 68.527 54.7557 67.9296 54.7335C67.3475 54.7119 67.2556 54.5954 67.2538 54.0283C67.2446 49.8873 67.2344 45.7464 67.2232 41.6054C67.2232 41.4165 67.2176 41.2275 67.2232 41.0389C67.2323 40.756 67.3843 40.5625 67.6658 40.5558C68.4127 40.5385 69.1602 40.5415 69.9074 40.5558C70.2337 40.5616 70.2349 40.8229 70.2352 41.0587C70.2364 42.2863 70.2364 43.5139 70.2352 44.7415C70.2352 45.6049 70.2352 46.4683 70.2374 47.3316C70.2374 47.4688 70.2591 47.6054 70.2711 47.7429L70.4414 47.8448Z" fill="black"/>
<path d="M45.4825 50.7651C45.435 49.3244 45.3367 47.9359 45.36 46.5511C45.379 45.4687 45.4739 44.3748 45.6731 43.3113C45.8964 42.119 47.0418 41.2167 48.3736 41.1793C50.5042 41.1185 52.638 41.1574 54.7702 41.1458C55.0505 41.1443 55.174 41.2715 55.1798 41.5264C55.1933 42.1044 55.2028 42.6846 55.2012 43.2635C55.2012 43.5409 55.0631 43.725 54.765 43.7502C54.4669 43.7755 54.1707 43.8166 53.8738 43.8144C52.5966 43.805 51.3197 43.7651 50.0444 43.7688C48.7691 43.7724 48.5203 44.0325 48.5151 45.2899C48.5151 45.5865 48.5325 45.8843 48.5114 46.1794C48.4897 46.4857 48.6324 46.5947 48.9152 46.5928C49.6354 46.588 50.355 46.5794 51.0756 46.5849C52.0253 46.5925 52.975 46.6202 53.9262 46.6223C54.2571 46.6223 54.4194 46.8003 54.4237 47.0808C54.4335 47.6448 54.413 48.2089 54.3624 48.7707C54.3514 48.8897 54.1694 49.0634 54.042 49.088C53.6956 49.1513 53.3437 49.1806 52.9915 49.1753C51.7823 49.168 50.5732 49.1263 49.3643 49.1291C48.5145 49.1312 48.5234 49.154 48.5243 49.9979C48.5243 51.3997 48.5053 52.8022 48.5148 54.204C48.5172 54.5481 48.3922 54.7136 48.0531 54.7099C47.2835 54.7023 46.5137 54.6986 45.7453 54.6621C45.6534 54.6579 45.4975 54.4611 45.496 54.3515C45.4758 53.1389 45.4825 51.926 45.4825 50.7651Z" fill="black"/>
<path d="M100.582 51.068C100.582 52.0649 100.577 53.0618 100.584 54.0588C100.588 54.4679 100.466 54.7232 99.9927 54.728C99.4379 54.7329 98.8834 54.8016 98.3295 54.7965C97.7756 54.7913 97.6417 54.6626 97.571 54.1147C97.5266 53.771 97.533 53.4196 97.5342 53.0716C97.5373 52.1428 97.5495 51.214 97.5596 50.285C97.5719 49.1271 97.529 47.9647 97.6154 46.812C97.6978 45.7169 98.3549 44.9581 99.3751 44.5374C100.697 43.9923 102.069 43.9634 103.448 44.2454C103.607 44.2779 103.822 44.5657 103.822 44.7349C103.822 45.3631 103.756 45.9931 103.676 46.6173C103.665 46.7086 103.442 46.8303 103.312 46.8358C102.662 46.8695 102.01 46.8577 101.36 46.886C100.858 46.9079 100.62 47.0962 100.603 47.5969C100.569 48.6185 100.596 49.6418 100.598 50.6643C100.598 50.799 100.598 50.9337 100.598 51.0686L100.582 51.068Z" fill="black"/>
</g>
</svg>
