<svg width="136" height="68" viewBox="0 0 136 68" fill="none" xmlns="http://www.w3.org/2000/svg">
<mask id="mask0_11_6806" style="mask-type:luminance" maskUnits="userSpaceOnUse" x="41" y="13" width="53" height="41">
<path d="M93.2021 13H41.9727V53.7604H93.2021V13Z" fill="white"/>
</mask>
<g mask="url(#mask0_11_6806)">
<path d="M74.1674 20.9875C74.8969 19.3441 75.627 17.6999 76.3578 16.0548C76.7671 15.1356 77.1848 14.221 77.5804 13.2962C77.6736 13.0786 77.7959 12.9999 78.0208 13.004C78.683 13.0129 79.3458 13.0145 80.008 13.004C80.283 12.9997 80.3118 13.0848 80.2052 13.3234C79.2238 15.5152 78.2467 17.7091 77.274 19.9051C76.1014 22.5372 74.9262 25.1682 73.7484 27.7981C73.5903 28.1498 73.7891 28.1412 74.0252 28.1409C75.591 28.1409 77.1568 28.1409 78.7226 28.1409C81.6132 28.1409 84.5038 28.1409 87.3944 28.1409C89.9833 28.1409 92.1109 29.6671 92.9277 32.1133C93.13 32.7193 93.1906 33.3476 93.1906 33.9837C93.1906 38.611 93.1564 43.2389 93.2011 47.8659C93.2339 51.273 90.481 53.769 87.2835 53.7601C74.1254 53.7237 60.9671 53.745 47.8088 53.7447C44.6023 53.7447 42.06 51.3842 42.0186 48.1778C41.9534 43.3102 41.9576 38.4419 42.0312 33.5727C42.0762 30.5141 44.6435 28.1423 47.7153 28.1415C55.3033 28.1395 62.8912 28.1421 70.4789 28.1493C70.8514 28.1493 71.0332 28.047 71.1792 27.6934C71.6639 26.5291 72.1858 25.3813 72.7078 24.2338C72.7834 24.0679 72.7974 23.9537 72.7196 23.7786C71.1845 20.3207 69.6618 16.8573 68.1262 13.398C67.9962 13.1077 68.0021 12.9929 68.3595 13.0034C68.9614 13.0207 69.5646 13.0255 70.1657 13.001C70.4889 12.9876 70.6421 13.1066 70.7685 13.4028C71.8236 15.8746 72.896 18.3388 73.9636 20.8052C73.9932 20.8736 74.0129 20.9484 74.1674 20.9875ZM68.6877 46.8829C68.6991 46.7795 68.7203 46.6758 68.7203 46.5724C68.7219 43.1008 68.7219 39.6291 68.7203 36.1573C68.7203 36.0536 68.6996 35.9502 68.6883 35.8465C68.6748 35.6806 68.5488 35.7232 68.4516 35.7226C68.0602 35.7207 67.6689 35.7226 67.2774 35.7226C66.404 35.7226 66.4056 35.7226 66.363 36.5728C66.3582 36.6687 66.4156 36.7993 66.2822 36.8481C66.1796 36.8853 66.126 36.7805 66.0625 36.7245C65.2597 36.0164 64.3144 35.6335 63.2649 35.4802C61.5329 35.2274 59.976 35.599 58.6674 36.7999C56.8329 38.4833 56.3861 40.6101 56.8927 42.9459C57.3236 44.9371 58.5562 46.3632 60.4998 46.9958C62.4884 47.6421 64.3887 47.3704 66.052 45.9934C66.125 45.9328 66.1778 45.7909 66.3033 45.8703C66.348 45.8972 66.3539 45.9993 66.3641 46.0688C66.4064 46.3602 66.219 46.7669 66.4597 46.9185C66.69 47.0636 67.0705 46.9742 67.3854 46.9793C67.7314 46.9847 68.0778 46.9834 68.4238 46.9793C68.5189 46.9772 68.642 47.0294 68.6877 46.8829ZM81.9449 46.9793C80.6312 45.183 79.3943 43.4823 78.1433 41.7918C77.9739 41.5629 77.9515 41.4148 78.129 41.1668C79.289 39.538 80.429 37.8949 81.5684 36.2518C81.6737 36.0999 81.9091 35.9486 81.8181 35.7671C81.74 35.6117 81.4868 35.7105 81.3128 35.7075C80.726 35.6984 80.1384 35.7181 79.5521 35.6981C79.2513 35.6879 79.0587 35.7749 78.8826 36.0358C78.0671 37.2445 77.2169 38.43 76.4049 39.64C76.2032 39.9398 76.1165 39.9282 75.9247 39.6433C75.1275 38.4583 74.3142 37.2822 73.5009 36.1077C73.3932 35.9526 73.3172 35.7178 73.0969 35.7137C72.2322 35.6981 71.3671 35.7075 70.4429 35.7075C70.5471 35.8839 70.6007 35.9901 70.668 36.0865C71.8333 37.7495 72.9914 39.4173 74.1744 41.0687C74.3869 41.365 74.3993 41.5589 74.179 41.8524C73.0693 43.3319 71.9732 44.8221 70.8907 46.323C70.7507 46.5164 70.5441 46.6874 70.5094 46.9823C71.2904 46.9823 72.0418 46.9678 72.7929 46.9893C73.0956 46.9979 73.2865 46.9104 73.4662 46.6575C74.2741 45.5156 75.109 44.3934 75.9212 43.255C76.1151 42.983 76.2204 42.9782 76.4205 43.2612C77.2368 44.4155 78.076 45.5536 78.9087 46.6963C79.0032 46.8261 79.073 46.9845 79.2801 46.9831C80.1303 46.9766 80.9824 46.9793 81.9449 46.9793ZM49.3678 40.8678H49.3813C49.3813 41.8015 49.3374 42.7379 49.3918 43.6687C49.4726 45.0565 50.008 46.2201 51.3308 46.8506C52.7358 47.5207 54.1538 47.421 55.5542 46.7967C56.2566 46.4843 56.256 46.4843 55.8706 45.8089C55.8035 45.6915 55.7389 45.5729 55.6767 45.4532C55.2806 44.6972 55.2903 44.7333 54.4866 44.9439C52.8304 45.378 51.7143 44.7066 51.7372 42.9733C51.7582 41.3768 51.7537 39.7798 51.7335 38.1833C51.7286 37.7988 51.8113 37.6584 52.2266 37.6716C53.2338 37.7042 54.2424 37.6757 55.2504 37.6865C55.4976 37.6889 55.6021 37.6267 55.5887 37.3584C55.5664 36.9368 55.5664 36.5143 55.5887 36.0927C55.6054 35.7913 55.499 35.7092 55.2052 35.714C54.1818 35.7302 53.1584 35.7086 52.135 35.7261C51.8118 35.7318 51.7273 35.623 51.7337 35.3114C51.7526 34.4081 51.7324 33.5038 51.7445 32.6002C51.7483 32.3266 51.6554 32.2232 51.3804 32.2296C50.8687 32.2434 50.357 32.2566 49.8453 32.2264C49.4793 32.2054 49.3441 32.3034 49.357 32.6947C49.3859 33.5835 49.3557 34.4722 49.3719 35.3609C49.3767 35.637 49.2943 35.7329 49.0172 35.7248C48.461 35.7084 47.9028 35.7415 47.3474 35.7127C47.013 35.6954 46.9343 35.8223 46.9507 36.1258C46.9728 36.517 46.9728 36.9091 46.9507 37.3003C46.934 37.5906 47.014 37.7015 47.3232 37.6881C47.8788 37.6636 48.4368 37.6972 48.9929 37.6751C49.2973 37.663 49.3764 37.7737 49.3716 38.064C49.3581 38.9999 49.3678 39.9339 49.3678 40.8678ZM85.8766 41.3666C85.8766 39.6198 85.8701 37.8734 85.8828 36.1269C85.885 35.8123 85.7926 35.7008 85.4726 35.7159C84.9619 35.7426 84.4502 35.7426 83.9394 35.7159C83.5953 35.6957 83.504 35.8107 83.5085 36.1468C83.5263 37.4715 83.5158 38.7966 83.5158 40.1216C83.5158 42.2596 83.5233 44.3977 83.5085 46.5358C83.5061 46.8878 83.5947 47.0144 83.9613 46.9896C84.4568 46.9595 84.9537 46.9595 85.4492 46.9896C85.784 47.0079 85.8879 46.9066 85.8844 46.5633C85.8674 44.8297 85.8766 43.098 85.8766 41.3666ZM84.631 34.0744C85.5545 34.0839 86.1895 33.5046 86.199 32.6444C86.2081 31.8276 85.5472 31.1607 84.7207 31.1524C83.8643 31.1438 83.1684 31.8012 83.1652 32.622C83.1619 33.4208 83.8134 34.0664 84.631 34.0744Z" fill="black"/>
<path d="M49.3687 18.9364C49.3687 17.2182 49.3803 15.5 49.3595 13.782C49.3552 13.4117 49.4673 13.3132 49.8195 13.3328C50.3157 13.3587 50.8129 13.3587 51.3091 13.3328C51.6436 13.3164 51.7669 13.4217 51.7491 13.7661C51.7381 13.974 51.6129 14.2757 51.8334 14.3812C51.9824 14.4526 52.1192 14.1658 52.2606 14.0427C53.9529 12.5537 57.4262 12.5561 58.8751 14.7753C59.0637 15.065 59.1474 14.9535 59.316 14.7577C60.6701 13.1885 62.4109 12.7357 64.374 13.1481C66.1926 13.53 67.4821 15.2175 67.5149 17.2225C67.5532 19.558 67.5203 21.8945 67.529 24.2305C67.529 24.4875 67.4519 24.5782 67.1958 24.5712C66.6841 24.5572 66.1708 24.5443 65.6607 24.575C65.2912 24.5976 65.1776 24.4942 65.1814 24.1083C65.2016 22.0437 65.1876 19.9789 65.1921 17.9141C65.194 17.0402 64.9382 16.2737 64.2455 15.7133C63.0551 14.7505 61.08 15.1162 60.2362 16.4323C59.7536 17.1848 59.6257 18.0258 59.6214 18.8928C59.6122 20.6411 59.6098 22.3895 59.626 24.1376C59.6292 24.4718 59.5452 24.5936 59.2007 24.5742C58.7046 24.5474 58.2073 24.5474 57.7112 24.5742C57.3689 24.5922 57.2504 24.5071 57.2533 24.1328C57.2738 22.0529 57.2695 19.973 57.2609 17.8931C57.2552 16.5533 56.4586 15.4461 55.3784 15.2409C53.703 14.9226 52.3621 15.7709 51.9083 17.425C51.771 17.9257 51.7408 18.4344 51.7397 18.9469C51.7367 20.6802 51.7287 22.4135 51.7467 24.1465C51.7502 24.4939 51.6433 24.5901 51.3118 24.5742C50.8004 24.5466 50.288 24.547 49.7767 24.5755C49.4193 24.5976 49.3576 24.4608 49.3603 24.1365C49.3778 22.4027 49.3687 20.6694 49.3687 18.9364Z" fill="black"/>
<path d="M66.3593 41.3415C66.3668 42.9741 65.6491 44.1987 64.1719 44.8712C62.7909 45.4997 61.4204 45.3416 60.2529 44.3382C59.0658 43.3178 58.8352 41.9502 59.0903 40.4722C59.3652 38.8811 60.6127 37.6908 62.1389 37.5386C63.8829 37.3646 65.4848 38.2593 66.0932 39.7545C66.2995 40.2613 66.3687 40.7957 66.3593 41.3415Z" fill="black"/>
</g>
<path d="M55.8977 45.8104C56.2831 46.4865 56.2831 46.4858 55.5816 46.7985C54.1814 47.4218 52.7626 47.5213 51.3583 46.8513C50.0362 46.2205 49.5007 45.0575 49.4198 43.6696C49.3649 42.7385 49.4088 41.8025 49.4088 40.8685H49.3958C49.3958 39.9346 49.3862 39 49.4012 38.0661C49.4067 37.7767 49.3272 37.6656 49.0227 37.6779C48.4666 37.6999 47.9091 37.6656 47.353 37.6903C47.0438 37.7047 46.9635 37.5929 46.9807 37.3029C47.0026 36.9119 47.0026 36.5199 46.9807 36.1289C46.9635 35.8245 47.0417 35.6983 47.377 35.7175C47.9318 35.747 48.4899 35.7141 49.0467 35.7299C49.321 35.7381 49.406 35.6421 49.4006 35.3664C49.3848 34.475 49.4156 33.5884 49.3862 32.7004C49.3731 32.3089 49.5082 32.2115 49.8737 32.2321C50.3846 32.2616 50.8975 32.2492 51.4083 32.2321C51.6826 32.2252 51.7766 32.3294 51.7731 32.603C51.7608 33.5068 51.7807 34.4106 51.7615 35.3143C51.7553 35.6263 51.8403 35.734 52.1633 35.7292C53.1864 35.7113 54.2095 35.7333 55.2319 35.7168C55.526 35.712 55.6323 35.7943 55.6159 36.0953C55.5936 36.5168 55.5936 36.9391 55.6159 37.3605C55.6289 37.6279 55.5254 37.6903 55.2778 37.6875C54.2698 37.6773 53.2611 37.7061 52.2545 37.6738C51.839 37.6594 51.7553 37.8 51.7608 38.1847C51.7807 39.781 51.7848 41.3787 51.7642 42.975C51.7409 44.7085 52.8579 45.3798 54.5132 44.9457C55.3169 44.7352 55.3073 44.6989 55.7036 45.4552C55.7667 45.5745 55.8314 45.6929 55.8977 45.8104Z" fill="#FBE500"/>
<path d="M68.7169 35.8467C68.733 35.9499 68.7437 36.0538 68.7491 36.158C68.7491 39.6323 68.7491 43.1038 68.7491 46.5725C68.7438 46.6768 68.7331 46.7807 68.7169 46.8838C68.6702 47.0306 68.5468 46.9778 68.4515 46.9798C68.1052 46.9839 67.7589 46.986 67.4133 46.9798C67.0986 46.9743 66.7173 47.0642 66.4876 46.9188C66.2469 46.7673 66.4334 46.3606 66.3916 46.0685C66.382 46 66.3758 45.8985 66.3313 45.8704C66.2051 45.7915 66.1523 45.9328 66.0796 45.9931C64.4161 47.3707 62.5139 47.6429 60.5253 46.9963C58.5813 46.3634 57.3498 44.9392 56.9178 42.9465C56.4117 40.6096 56.8581 38.4833 58.6931 36.8005C60.0021 35.5985 61.5587 35.2234 63.2874 35.4799C64.3365 35.6335 65.2821 36.0168 66.0851 36.7237C66.1482 36.78 66.2017 36.8849 66.3045 36.8478C66.4417 36.7992 66.3806 36.6682 66.3861 36.5736C66.4279 35.7233 66.4273 35.7233 67.3002 35.7233C67.6924 35.7233 68.0833 35.7233 68.4748 35.7233C68.577 35.724 68.7031 35.6821 68.7169 35.8467Z" fill="#FBE500"/>
<path d="M78.1726 41.7925C79.424 43.4834 80.6604 45.184 81.9742 46.9805C81.0142 46.9805 80.1591 46.9805 79.3068 46.9805C79.101 46.9805 79.0325 46.8235 78.9351 46.6939C78.1027 45.5508 77.2627 44.4132 76.4467 43.2585C76.2464 42.9753 76.1422 42.9808 75.9468 43.253C75.1356 44.3913 74.3011 45.5158 73.4926 46.6548C73.3136 46.9078 73.123 46.9976 72.8199 46.9867C72.0691 46.9661 71.3161 46.9798 70.5365 46.9798C70.5715 46.685 70.7779 46.5135 70.9177 46.3202C72.0039 44.8233 73.0956 43.3312 74.2092 41.8514C74.4293 41.5579 74.4149 41.3639 74.2044 41.0677C73.0215 39.4179 71.8627 37.7502 70.6976 36.086C70.6291 35.9907 70.5769 35.8844 70.4727 35.7075C71.3971 35.7075 72.2624 35.6979 73.1264 35.7137C73.3472 35.7185 73.4233 35.953 73.531 36.108C74.3449 37.2826 75.1582 38.4579 75.955 39.6435C76.1463 39.928 76.2334 39.9397 76.435 39.64C77.2455 38.4311 78.0965 37.2462 78.9118 36.0401C79.088 35.7795 79.2807 35.6924 79.581 35.702C80.168 35.7226 80.755 35.702 81.342 35.7116C81.5161 35.7116 81.7692 35.6163 81.8473 35.7713C81.9385 35.9523 81.7033 36.1038 81.5977 36.2554C80.4588 37.9011 79.3184 39.5413 78.1582 41.1698C77.9806 41.4167 78.0032 41.5634 78.1726 41.7925Z" fill="#FBE500"/>
<path d="M85.9123 46.5613C85.9123 46.9041 85.8115 47.0063 85.4769 46.9878C84.9813 46.9576 84.4844 46.9576 83.9889 46.9878C83.6227 47.0132 83.5343 46.8863 83.5363 46.5346C83.5514 44.3965 83.5439 42.2585 83.5439 40.1198C83.5439 38.795 83.5541 37.4695 83.5363 36.1427C83.5322 35.8074 83.6234 35.6922 83.9676 35.7128C84.4784 35.7388 84.9901 35.7388 85.5009 35.7128C85.8204 35.6977 85.9123 35.8081 85.9123 36.1242C85.9 37.8714 85.9061 39.6213 85.9061 41.3643C85.9048 43.0985 85.8959 44.8299 85.9123 46.5613Z" fill="#FBE500"/>
<path d="M83.1934 32.6224C83.1975 31.7995 83.8928 31.144 84.7493 31.1529C84.9444 31.1535 85.1376 31.1925 85.3177 31.2679C85.4977 31.3432 85.6611 31.4533 85.7985 31.5919C85.9359 31.7306 86.0446 31.8949 86.1184 32.0756C86.1922 32.2563 86.2295 32.4498 86.2283 32.645C86.2187 33.5049 85.5838 34.085 84.6601 34.0754C84.4684 34.0763 84.2784 34.0394 84.1009 33.9669C83.9234 33.8944 83.762 33.7876 83.6258 33.6527C83.4896 33.5177 83.3813 33.3573 83.3071 33.1805C83.2329 33.0038 83.1943 32.8141 83.1934 32.6224Z" fill="#FBE500"/>
<path d="M93.2222 33.9829C93.2222 33.3465 93.1612 32.7177 92.9582 32.1129C92.1422 29.6663 90.0151 28.1406 87.4252 28.14C84.5346 28.14 81.6439 28.14 78.7529 28.14C77.1881 28.14 75.6226 28.14 74.0565 28.14C73.8199 28.14 73.621 28.1482 73.7822 27.7971C74.9644 25.169 76.1397 22.538 77.3081 19.904C78.286 17.7097 79.2569 15.5154 80.2396 13.3212C80.3465 13.0819 80.3177 12.9968 80.0428 13.0016C79.3804 13.0119 78.7173 13.0099 78.0542 13.0016C77.8293 12.9975 77.7072 13.0757 77.614 13.2931C77.219 14.2181 76.8 15.1335 76.3913 16.0517C75.6599 17.6974 74.9285 19.3417 74.197 20.9846C74.1486 20.9779 74.1032 20.957 74.0666 20.9245C74.03 20.8921 74.0038 20.8495 73.9913 20.8022C72.925 18.3392 71.8512 15.8754 70.7993 13.4035C70.6732 13.1066 70.5202 12.9879 70.1966 13.001C69.5952 13.0256 68.9918 13.0215 68.3897 13.001C68.0325 12.9907 68.027 13.1038 68.1566 13.3966C69.6919 16.8546 71.2142 20.3188 72.7509 23.7768C72.8284 23.9517 72.814 24.0662 72.7385 24.2321C72.2167 25.3793 71.6935 26.5272 71.2101 27.6908C71.0633 28.0453 70.8816 28.1475 70.5093 28.1468C62.9207 28.1358 55.3321 28.1336 47.7436 28.14C44.6688 28.1427 42.1022 30.5152 42.0576 33.5714C41.9854 38.4399 41.9811 43.3085 42.0446 48.177C42.0871 51.384 44.6298 53.7442 47.8361 53.7442C60.995 53.7442 74.1538 53.7229 87.312 53.76C90.5074 53.7689 93.2619 51.2722 93.2297 47.8629C93.1852 43.2399 93.2181 38.6121 93.2222 33.9829ZM46.9811 36.1291C46.9639 35.8247 47.0421 35.6985 47.3774 35.7177C47.9321 35.7472 48.4903 35.7143 49.0471 35.73C49.3214 35.7383 49.4064 35.6423 49.4009 35.3666C49.3852 34.4752 49.416 33.5886 49.3865 32.7006C49.3735 32.3091 49.5086 32.2117 49.8741 32.2323C50.3849 32.2617 50.8979 32.2494 51.4087 32.2323C51.683 32.2254 51.7769 32.3296 51.7735 32.6032C51.7612 33.507 51.7811 34.4107 51.7619 35.3145C51.7557 35.6265 51.8407 35.7342 52.1637 35.7294C53.1868 35.7115 54.2099 35.7335 55.2323 35.717C55.5264 35.7122 55.6327 35.7945 55.6163 36.0955C55.594 36.5169 55.594 36.9392 55.6163 37.3606C55.6293 37.6281 55.5257 37.6905 55.2782 37.6877C54.2702 37.6774 53.2615 37.7062 52.2549 37.674C51.8393 37.6596 51.7557 37.8002 51.7612 38.1849C51.7811 39.7812 51.7852 41.3789 51.7646 42.9752C51.7413 44.7087 52.8583 45.38 54.5136 44.9459C55.3173 44.7354 55.3077 44.6991 55.704 45.4554C55.7671 45.5747 55.8318 45.6931 55.8981 45.8106C56.2835 46.4867 56.2835 46.486 55.582 46.7987C54.1817 47.422 52.763 47.5214 51.3587 46.8515C50.0366 46.2206 49.5011 45.0577 49.4201 43.6698C49.3653 42.7386 49.4092 41.8026 49.4092 40.8687H49.3961C49.3961 39.9348 49.3865 39.0002 49.4016 38.0662C49.4071 37.7769 49.3276 37.6658 49.0231 37.6781C48.467 37.7001 47.9095 37.6658 47.3534 37.6905C47.0441 37.7049 46.9639 37.5931 46.9811 37.303C47.003 36.912 47.003 36.5201 46.9811 36.1291ZM66.3916 36.5735C66.4334 35.7232 66.4327 35.7232 67.3056 35.7232C67.6978 35.7232 68.0887 35.7232 68.4802 35.7232C68.5769 35.7232 68.7031 35.682 68.7168 35.8466C68.7329 35.9498 68.7437 36.0537 68.7491 36.1579C68.7491 39.6322 68.7491 43.1037 68.7491 46.5724C68.7438 46.6767 68.733 46.7806 68.7168 46.8837C68.6702 47.0305 68.5468 46.9777 68.4515 46.9797C68.1052 46.9838 67.7589 46.9859 67.4133 46.9797C67.0985 46.9742 66.7173 47.0641 66.4876 46.9187C66.2469 46.7672 66.4334 46.3605 66.3916 46.0684C66.382 45.9998 66.3758 45.8984 66.3312 45.8703C66.2051 45.7914 66.1523 45.9326 66.0796 45.993C64.416 47.3706 62.5139 47.6428 60.5253 46.9962C58.5813 46.3633 57.3497 44.9391 56.9177 42.9464C56.4117 40.6095 56.8581 38.4831 58.6931 36.8004C60.0021 35.5984 61.5587 35.2233 63.2873 35.4798C64.3365 35.6334 65.2821 36.0167 66.0851 36.7236C66.1481 36.7799 66.2016 36.8848 66.3045 36.8477C66.4444 36.7997 66.3861 36.6688 66.3916 36.5735ZM78.1721 41.7924C79.4236 43.4833 80.6599 45.1839 81.9737 46.9804C81.0137 46.9804 80.1586 46.9804 79.3063 46.9804C79.1006 46.9804 79.032 46.8234 78.9346 46.6938C78.1022 45.5507 77.2622 44.4131 76.4462 43.2584C76.246 42.9752 76.1417 42.9807 75.9463 43.2529C75.1351 44.3912 74.3006 45.5157 73.4921 46.6547C73.3132 46.9077 73.1225 46.9976 72.8194 46.9866C72.0686 46.966 71.3157 46.9797 70.536 46.9797C70.571 46.6849 70.7774 46.5134 70.9173 46.3201C72.0034 44.8232 73.0951 43.3311 74.2087 41.8513C74.4288 41.5578 74.4144 41.3638 74.2039 41.0676C73.021 39.4178 71.8622 37.7501 70.6972 36.0859C70.6286 35.9906 70.5765 35.8843 70.4722 35.7074C71.3966 35.7074 72.262 35.6978 73.126 35.7136C73.3468 35.7184 73.4229 35.9529 73.5305 36.1079C74.3445 37.2825 75.1577 38.4578 75.9545 39.6434C76.1458 39.9279 76.2329 39.9396 76.4345 39.6399C77.245 38.431 78.096 37.2461 78.9113 36.04C79.0876 35.7794 79.2802 35.6923 79.5806 35.7019C80.1676 35.7225 80.7545 35.7019 81.3415 35.7115C81.5157 35.7115 81.7687 35.6162 81.8469 35.7712C81.9381 35.9522 81.7029 36.1037 81.5973 36.2553C80.4583 37.901 79.318 39.5412 78.1577 41.1697C77.9801 41.4166 78.0028 41.5633 78.1721 41.7924ZM83.544 40.1213C83.544 38.7965 83.5543 37.471 83.5365 36.1442C83.5324 35.8089 83.6236 35.6937 83.9678 35.7143C84.4785 35.7403 84.9903 35.7403 85.501 35.7143C85.8206 35.6992 85.9125 35.8096 85.9125 36.1257C85.9001 37.8729 85.9063 39.6228 85.9063 41.3659C85.9063 43.0973 85.8974 44.8287 85.9138 46.5601C85.9138 46.9029 85.813 47.0051 85.4784 46.9866C84.9829 46.9564 84.486 46.9564 83.9904 46.9866C83.6242 47.012 83.5358 46.8851 83.5378 46.5333C83.5536 44.398 83.544 42.26 83.544 40.1213ZM84.659 34.0754C84.2719 34.0771 83.9 33.9249 83.6251 33.6525C83.3502 33.38 83.1947 33.0095 83.1929 32.6224C83.197 31.7996 83.8924 31.144 84.7488 31.153C84.944 31.1535 85.1371 31.1926 85.3172 31.2679C85.4973 31.3432 85.6607 31.4534 85.7981 31.592C85.9355 31.7306 86.0442 31.895 86.118 32.0757C86.1917 32.2564 86.2291 32.4499 86.2279 32.6451C86.2176 33.5029 85.5826 34.085 84.659 34.0754Z" fill="#020200"/>
<path d="M49.3967 18.9371C49.3967 17.2187 49.4077 15.5003 49.3871 13.7826C49.383 13.4124 49.4962 13.3136 49.8473 13.3335C50.3434 13.3592 50.8405 13.3592 51.3366 13.3335C51.6713 13.317 51.7954 13.422 51.7769 13.7669C51.7659 13.9726 51.6397 14.2757 51.8612 14.384C52.01 14.4526 52.1471 14.1701 52.2884 14.046C53.9807 12.5545 57.4539 12.5573 58.9028 14.7762C59.0921 15.0663 59.1771 14.9545 59.3437 14.7591C60.698 13.1895 62.439 12.7363 64.4022 13.1484C66.2207 13.5303 67.5099 15.2178 67.5428 17.2228C67.5812 19.5583 67.5483 21.8952 67.5572 24.2314C67.5572 24.4879 67.4804 24.5784 67.2239 24.5743C66.7124 24.5606 66.1988 24.5468 65.6886 24.5784C65.3197 24.601 65.2086 24.4982 65.2086 24.1114C65.2285 22.0468 65.2148 19.9821 65.2189 17.9174C65.2189 17.0432 64.9652 16.2772 64.2726 15.7163C63.0815 14.7563 61.1067 15.1191 60.2626 16.4356C59.7826 17.1899 59.6523 18.0292 59.6454 18.8959C59.6365 20.6445 59.6345 22.393 59.6502 24.1409C59.6537 24.4748 59.5707 24.5969 59.2251 24.5777C58.729 24.5506 58.2318 24.5506 57.7357 24.5777C57.3929 24.5955 57.2749 24.5091 57.2783 24.1361C57.2989 22.0564 57.2948 19.9766 57.2859 17.8962C57.2804 16.5556 56.4836 15.4489 55.4029 15.2439C53.7277 14.925 52.3858 15.7732 51.9332 17.4279C51.7961 17.9284 51.7659 18.4372 51.7645 18.9494C51.7645 20.6829 51.7535 22.4164 51.7714 24.1491C51.7755 24.4968 51.6678 24.5928 51.3366 24.577C50.8255 24.5489 50.3132 24.5489 49.802 24.577C49.4447 24.599 49.383 24.4625 49.3858 24.1382C49.405 22.4033 49.3967 20.6699 49.3967 18.9371Z" fill="#020200"/>
<path d="M66.3872 41.342C66.3947 42.9747 65.6768 44.1994 64.1998 44.8721C62.8187 45.5002 61.448 45.3424 60.2809 44.3386C59.0932 43.3182 58.8628 41.951 59.1152 40.4726C59.3895 38.881 60.6375 37.6913 62.1639 37.5391C63.9083 37.365 65.5102 38.2598 66.1184 39.7553C66.3153 40.2603 66.4068 40.8003 66.3872 41.342Z" fill="#020200"/>
</svg>
