<svg width="69" height="46" viewBox="0 0 69 46" fill="none" xmlns="http://www.w3.org/2000/svg">
<path d="M68.6638 13.8509L66.8448 14.1673C63.1398 14.8124 59.6918 15.7967 56.5538 16.9553V6.97317L55.5858 7.41088C53.3858 8.40349 51.2988 9.4407 49.3098 10.5339L49.2428 0.075716L48.1898 0.751978C43.0668 4.0389 38.3688 7.7739 34.1738 11.8854C30.1328 8.04772 25.5788 4.32102 20.5784 0.769611L19.4942 0V10.8399C17.328 9.61703 15.1071 8.50306 12.8397 7.50734L11.8722 7.08208L11.9177 16.3641C8.59919 15.219 5.25799 14.4712 1.94669 14.133L0.317383 13.9671L13.3601 30.3426L13.3023 18.3555C15.5439 19.2341 17.6182 20.237 19.4953 21.2711V31.6484L19.6305 31.832C23.4653 37.0181 33.5538 45.4537 33.9818 45.8105L34.4178 46.1746L34.8568 45.8126C35.2848 45.4599 45.3808 37.1114 49.2178 31.7231L49.4438 31.3352L49.3828 21.6736C51.1458 20.7422 53.0848 19.8211 55.1808 18.9685V30.3934L68.6638 13.8509ZM56.5538 18.4292C59.2228 17.4189 62.1268 16.5332 65.2298 15.8828L56.5538 26.5267V18.4292ZM3.46558 15.7117C6.46288 16.1452 9.29608 16.8993 11.9228 17.839L11.9641 26.3815L3.46558 15.7117ZM47.8748 2.60133L47.8878 11.3336C44.8188 13.1031 41.9838 15.0219 39.3178 17.1399C38.7368 16.4989 38.1408 15.859 37.5268 15.22C36.7588 14.4193 35.9658 13.6238 35.1548 12.8313C38.9818 9.08182 43.2108 5.68288 47.8748 2.60133ZM24.7704 22.8871C23.4859 22.0169 22.1829 21.2058 20.8675 20.4548V13.2452C23.4167 14.7937 25.8824 16.4989 28.2489 18.3514C27.045 19.8149 25.8844 21.3271 24.7704 22.8871ZM29.3158 19.1998C30.6568 20.2879 31.9648 21.4236 33.2368 22.6039C32.0078 23.8486 30.8098 25.1545 29.6338 26.5277C28.5452 25.6285 27.2938 24.6576 25.8958 23.6661C26.9903 22.132 28.1291 20.6426 29.3158 19.1998ZM38.2568 17.9998C36.8668 19.1511 35.5238 20.3584 34.2158 21.6331C32.9138 20.4227 31.5748 19.2589 30.2018 18.1439C31.4778 16.6452 32.8068 15.1951 34.1888 13.7928C35.6208 15.1869 36.9778 16.5892 38.2568 17.9998ZM38.0498 27.482C36.2088 28.9662 34.9368 30.1663 34.2788 30.8156C33.6458 30.1497 32.4268 28.9226 30.6858 27.4176C31.8448 26.0651 33.0288 24.7779 34.2398 23.552C35.5518 24.8142 36.8218 26.1242 38.0498 27.482ZM29.7948 28.4756C32.3158 30.66 33.7278 32.2479 33.7488 32.2718L34.2488 32.8392L34.7648 32.2863C34.7858 32.2635 36.2608 30.6963 38.9688 28.5161C39.8308 29.5035 40.6698 30.5148 41.4858 31.5478L34.4628 38.2181L27.331 31.5955C28.1436 30.5179 28.9634 29.4786 29.7948 28.4756ZM35.2188 22.5822C36.4998 21.3365 37.8168 20.1561 39.1768 19.0308C40.5728 20.6208 41.8698 22.2181 43.0628 23.8175C42.9338 23.9025 42.8088 23.9866 42.6848 24.0695C41.3608 24.9595 40.1748 25.8235 39.1338 26.6263C37.8728 25.2291 36.5668 23.8808 35.2188 22.5822ZM40.2398 18.1719C42.6348 16.2749 45.1698 14.5407 47.8928 12.932L47.9048 20.9019C46.5658 21.6342 45.3328 22.3664 44.2158 23.0728C42.9978 21.4381 41.6718 19.8035 40.2398 18.1719ZM20.8675 2.67497C25.4147 5.96915 29.5418 9.37639 33.2058 12.849C32.4898 13.575 31.7878 14.3104 31.1018 15.0582C30.4338 15.7884 29.7778 16.5342 29.1338 17.2914C26.4926 15.2221 23.7306 13.3313 20.8675 11.6354V2.67497ZM15.2764 17.6627C14.6167 17.3806 13.9548 17.113 13.292 16.8619L13.2548 9.20629C15.3797 10.1771 17.4612 11.2537 19.4922 12.4289V19.6946C18.0973 18.9478 16.6899 18.2684 15.2764 17.6627ZM23.9795 24.0146C22.8953 25.5859 21.8566 27.1998 20.8685 28.8542V22.0522C21.9888 22.7118 23.0296 23.3736 23.9795 24.0146ZM34.4208 44.3792C32.4648 42.7196 24.4637 35.8388 21.0027 31.3653C22.2892 29.0876 23.6563 26.899 25.1049 24.7956C26.4606 25.7581 27.68 26.7051 28.7435 27.5857C27.7688 28.7629 26.8085 29.9879 25.8576 31.2657L25.4869 31.7636L34.4728 40.109L43.3398 31.6878L42.9558 31.1931C42.0198 29.9868 41.0508 28.8096 40.0528 27.6635C41.0538 26.8918 42.1898 26.0651 43.4498 25.2188C43.5888 25.1244 43.7328 25.0289 43.8768 24.9335C45.3848 27.0432 46.7108 29.1571 47.8458 31.2647C44.4008 35.8854 36.3818 42.731 34.4208 44.3792ZM47.9158 28.5959C47.0448 27.1303 46.0828 25.6606 45.0298 24.1888C45.9168 23.6298 46.8778 23.0541 47.9068 22.4764L47.9158 28.5959ZM49.3698 20.1229L49.3178 12.1084C51.1798 11.0619 53.1278 10.0672 55.1788 9.11502V17.4822C53.0888 18.3099 51.1468 19.2081 49.3698 20.1229Z" fill="#BA8D5B"/>
</svg>
