<svg width="49" height="48" viewBox="0 0 49 48" fill="none" xmlns="http://www.w3.org/2000/svg">
<g clip-path="url(#clip0_11_6617)">
<path d="M24.0171 41.4661C33.6994 41.4661 41.5479 33.7215 41.5479 24.1685C41.5479 14.6155 33.6994 6.87183 24.0171 6.87183C14.3348 6.87183 6.48535 14.6155 6.48535 24.1685C6.48535 33.7215 14.3348 41.4651 24.0171 41.4651V41.4661Z" fill="#607987" fill-opacity="0.1"/>
<path d="M33.3764 21.2239L27.4812 20.3785L24.8441 15.1083C24.767 14.955 24.6487 14.8263 24.5025 14.7365C24.3563 14.6467 24.188 14.5994 24.0164 14.5999C23.6657 14.5999 23.3444 14.7968 23.1896 15.1073L20.5526 20.3785L14.6574 21.2239C13.9021 21.3316 13.5994 22.2505 14.146 22.7765L18.4121 26.879L17.4051 32.6723C17.2758 33.4149 18.0673 33.983 18.7442 33.6323L24.0164 30.8973L29.2895 33.6323C29.9625 33.9811 30.7589 33.4168 30.6286 32.6723L29.6216 26.879L33.8877 22.7765C34.4343 22.2514 34.1326 21.3326 33.3764 21.2239ZM27.9857 25.9092C27.8789 26.0117 27.799 26.1388 27.7529 26.2794C27.7068 26.4199 27.6959 26.5697 27.7212 26.7154L28.4941 31.1628L24.4464 29.0635C24.3137 28.9948 24.1664 28.959 24.0169 28.959C23.8674 28.959 23.7201 28.9948 23.5873 29.0635L19.5397 31.1628L20.3135 26.7154C20.3386 26.5695 20.3274 26.4197 20.281 26.2791C20.2345 26.1385 20.1542 26.0115 20.0471 25.9092L16.7723 22.7599L21.298 22.1114C21.4455 22.0908 21.5859 22.0348 21.707 21.9481C21.8281 21.8614 21.9264 21.7467 21.9935 21.6137L24.0164 17.568L26.0402 21.6137C26.1073 21.7467 26.2056 21.8615 26.3267 21.9482C26.4478 22.0349 26.5882 22.0909 26.7357 22.1114L31.2614 22.7608L27.9857 25.9092Z" fill="#4E6575"/>
<path d="M47.5449 24.1696C47.5449 23.3604 47.1639 22.6679 46.8279 22.0566C46.2656 21.0339 46.245 20.9428 46.5046 19.7604C46.6535 19.0894 46.821 18.3273 46.5986 17.571C46.2166 16.275 44.8863 15.5697 44.5503 14.838C44.2075 14.0896 44.5405 12.631 43.8137 11.5064C43.0839 10.3769 41.6037 10.0683 41.0747 9.45904C40.5418 8.84778 40.4449 7.34704 39.429 6.46933C38.4102 5.58867 36.9066 5.70818 36.2218 5.26933C35.54 4.83243 35.0287 3.41986 33.7964 2.85855C33.0685 2.52647 32.2829 2.58329 31.5893 2.63325C30.3942 2.71945 30.3129 2.69398 29.3686 1.98867C28.8083 1.57039 28.1735 1.09529 27.3653 0.979695C26.5787 0.869001 25.846 1.14231 25.1995 1.38427C24.069 1.80549 23.9652 1.80549 22.8347 1.38427C22.1882 1.14231 21.4545 0.869001 20.6679 0.980674C19.8607 1.09529 19.2249 1.57039 18.6646 1.98965C17.7222 2.693 17.64 2.71945 16.4439 2.63325C15.7503 2.58329 14.9647 2.52647 14.2369 2.85855C13.5022 3.19357 13.03 3.82443 12.6127 4.38182C11.9025 5.33202 11.8271 5.38002 10.6633 5.63178C9.98249 5.77872 9.21155 5.94525 8.60518 6.46933C7.99881 6.99243 7.72453 7.72712 7.48257 8.37659C7.06624 9.49235 7.00551 9.5619 5.96126 10.1261C5.34902 10.4572 4.65449 10.8324 4.21955 11.5064C3.49269 12.63 3.82575 14.0925 3.48289 14.837C3.14689 15.5688 1.81563 16.278 1.43555 17.5701C1.06036 18.8435 1.7931 20.1581 1.67653 20.9732C1.56485 21.7568 0.488281 22.8197 0.488281 24.1686C0.488281 25.5204 1.56387 26.5794 1.67653 27.365C1.79408 28.1879 1.05938 29.4907 1.43457 30.7671C1.81661 32.0631 3.14689 32.7684 3.48289 33.5002C3.82575 34.2476 3.49269 35.7072 4.21955 36.8318C4.94934 37.9612 6.42951 38.2698 6.95849 38.8791C7.49138 39.4904 7.58836 40.9911 8.6042 41.8688C9.62298 42.7495 11.1266 42.63 11.8114 43.0688C12.4932 43.5057 13.0045 44.9183 14.2369 45.4796C15.4584 46.036 16.872 45.5012 17.6556 45.7304C18.4246 45.9547 19.319 47.1665 20.6679 47.3575C21.43 47.4652 22.1294 47.2174 22.8347 46.9539C23.9652 46.5327 24.068 46.5327 25.1985 46.9539C25.845 47.1959 26.5787 47.4692 27.3653 47.3575C28.7133 47.1665 29.6135 45.9528 30.3786 45.7304C31.1652 45.5002 32.5719 46.038 33.7973 45.4796C35.0306 44.9173 35.541 43.5057 36.2218 43.0698C36.9046 42.631 38.4112 42.7475 39.428 41.8698C40.4449 40.9911 40.5428 39.4894 41.0737 38.8781C41.6057 38.2688 43.0829 37.9622 43.8137 36.8318C44.5405 35.7082 44.2084 34.2457 44.5503 33.5012C44.8863 32.7694 46.2176 32.0612 46.5977 30.7681C46.9729 29.4946 46.2401 28.18 46.3567 27.365C46.4684 26.5813 47.5449 25.5185 47.5449 24.1696ZM44.5288 27.1113C44.3573 28.3142 45.0205 29.6014 44.8266 30.2597C44.6258 30.9415 43.3768 31.6448 42.8693 32.7498C42.357 33.8646 42.6391 35.2644 42.2581 35.8532C41.876 36.4439 40.4782 36.7701 39.6749 37.6919C38.8706 38.6156 38.7453 40.039 38.2124 40.4994C37.6873 40.9529 36.2483 40.8814 35.2158 41.5426C34.1902 42.2009 33.6622 43.5361 33.0225 43.827C32.3936 44.1131 31.0408 43.638 29.8545 43.9838C28.6937 44.3237 27.8013 45.4561 27.1018 45.556C26.4338 45.652 25.2533 44.8145 24.0161 44.8145C22.7691 44.8145 21.6063 45.653 20.9304 45.556C20.5954 45.508 20.1986 45.2112 19.7784 44.8977C18.8478 44.2022 18.2816 43.8506 17.1188 43.8506C16.3018 43.8506 15.4515 44.0279 15.0107 43.827C14.3701 43.5351 13.846 42.2019 12.8164 41.5426C11.7849 40.8804 10.3469 40.9549 9.82085 40.4994C9.286 40.038 9.16453 38.6186 8.35832 37.6919C7.55506 36.7691 6.15816 36.4448 5.77514 35.8532C5.39604 35.2674 5.67424 33.8607 5.16387 32.7498C4.65644 31.6448 3.40746 30.9425 3.20665 30.2597C3.01269 29.5985 3.67685 28.323 3.50346 27.1103C3.33302 25.9132 2.33383 24.8925 2.33383 24.1696C2.33383 23.4457 3.33302 22.4259 3.50346 21.2279C3.67587 20.0239 3.01367 18.7368 3.20665 18.0785C3.40746 17.3967 4.65644 16.6933 5.16387 15.5883C5.6762 14.4736 5.39408 13.0747 5.77514 12.485C6.15718 11.8943 7.55506 11.5691 8.35832 10.6463C9.16257 9.72255 9.28795 8.2992 9.82085 7.8388C10.3459 7.38525 11.7849 7.45774 12.8174 6.79553C13.8431 6.13725 14.3711 4.80304 15.0107 4.51112C15.6357 4.22704 16.9973 4.6992 18.1787 4.35439C19.3395 4.01545 20.232 2.88206 20.9314 2.78312C21.6034 2.68712 22.7779 3.52369 24.0171 3.52369C25.2612 3.52369 26.4269 2.68614 27.1028 2.78312C27.8111 2.88304 28.678 4.01055 29.8555 4.35439C31.031 4.69725 32.3985 4.22704 33.0235 4.51112C33.6631 4.80304 34.1872 6.13627 35.2158 6.79553C36.2483 7.45774 37.6863 7.38427 38.2133 7.8388C38.7472 8.30018 38.8677 9.71961 39.6749 10.6463C40.4782 11.5701 41.876 11.8933 42.2581 12.485C42.6372 13.0708 42.359 14.4775 42.8693 15.5883C43.3768 16.6933 44.6248 17.3967 44.8266 18.0785C45.0205 18.7397 44.3564 20.0151 44.5298 21.2279C44.7002 22.4249 45.6994 23.4457 45.6994 24.1696C45.6994 24.8925 44.7002 25.9123 44.5288 27.1113Z" fill="#4E6575"/>
</g>
<defs>
<clipPath id="clip0_11_6617">
<rect width="48" height="48" fill="white" transform="translate(0.379883)"/>
</clipPath>
</defs>
</svg>
