<svg width="25" height="24" viewBox="0 0 25 24" fill="none" xmlns="http://www.w3.org/2000/svg">
<g clip-path="url(#clip0_11_2973)">
<path fill-rule="evenodd" clip-rule="evenodd" d="M12.2002 0C5.57278 0 0.200195 5.37258 0.200195 12C0.200195 18.6274 5.57278 24 12.2002 24C18.8276 24 24.2002 18.6274 24.2002 12C24.2002 5.37258 18.8276 0 12.2002 0ZM13.3549 11.9991V20H10.2509V11.9994H8.7002V9.24221H10.2509V7.58682C10.2509 5.33752 11.1266 4 13.6144 4H15.6855V6.75748H14.3909C13.4225 6.75748 13.3584 7.1428 13.3584 7.86191L13.3549 9.2419H15.7002L15.4258 11.9991H13.3549Z" fill="#BA8D5B"/>
</g>
<defs>
<clipPath id="clip0_11_2973">
<rect width="24" height="24" fill="white" transform="translate(0.200195)"/>
</clipPath>
</defs>
</svg>
