<svg width="25" height="26" viewBox="0 0 25 26" fill="none" xmlns="http://www.w3.org/2000/svg">
<g clip-path="url(#clip0_11_2970)">
<path fill-rule="evenodd" clip-rule="evenodd" d="M24.2002 13.2C24.2002 20.0759 18.8276 25.65 12.2002 25.65C5.57278 25.65 0.200195 20.0759 0.200195 13.2C0.200195 6.32405 5.57278 0.75 12.2002 0.75C18.8276 0.75 24.2002 6.32405 24.2002 13.2ZM12.5748 9.74022C11.4105 10.2532 9.08354 11.315 5.59388 12.9256C5.02722 13.1643 4.73037 13.3978 4.70335 13.6261C4.65768 14.012 5.11389 14.164 5.73512 14.3709C5.81962 14.3991 5.90717 14.4282 5.99693 14.4591C6.60813 14.6696 7.43028 14.9158 7.8577 14.9256C8.24541 14.9345 8.67811 14.7651 9.15586 14.4176C12.4164 12.0862 14.0994 10.9078 14.2051 10.8824C14.2796 10.8644 14.383 10.8419 14.4529 10.9078C14.5229 10.9737 14.5161 11.0985 14.5086 11.132C14.4635 11.3361 12.6727 13.0997 11.746 14.0123C11.4571 14.2968 11.2521 14.4987 11.2102 14.5448C11.1164 14.648 11.0208 14.7457 10.9288 14.8395C10.361 15.4194 9.93521 15.8542 10.9524 16.5643C11.4412 16.9055 11.8324 17.1877 12.2226 17.4692C12.6488 17.7766 13.0739 18.0833 13.6238 18.4652C13.764 18.5625 13.8978 18.6635 14.0281 18.762C14.5241 19.1365 14.9697 19.473 15.5201 19.4193C15.84 19.3882 16.1704 19.0695 16.3382 18.1193C16.7348 15.8736 17.5143 11.0078 17.6944 9.00269C17.7102 8.82702 17.6903 8.60219 17.6744 8.5035C17.6585 8.40481 17.6251 8.26419 17.504 8.1601C17.3606 8.03682 17.1392 8.01082 17.0402 8.01258C16.5899 8.02107 15.8992 8.27551 12.5748 9.74022Z" fill="#BA8D5B"/>
</g>
<defs>
<clipPath id="clip0_11_2970">
<rect width="24" height="26" fill="white" transform="translate(0.200195)"/>
</clipPath>
</defs>
</svg>
