<svg width="25" height="24" viewBox="0 0 25 24" fill="none" xmlns="http://www.w3.org/2000/svg">
<g clip-path="url(#clip0_11_2990)">
<path d="M0.200195 12C0.200195 5.37258 5.57278 0 12.2002 0C18.8276 0 24.2002 5.37258 24.2002 12C24.2002 18.6274 18.8276 24 12.2002 24C5.57278 24 0.200195 18.6274 0.200195 12Z" fill="#BA8D5B"/>
<path fill-rule="evenodd" clip-rule="evenodd" d="M8.85967 7.41135C8.85967 8.1959 8.26911 8.82367 7.32088 8.82367H7.3035C6.39052 8.82367 5.80029 8.1959 5.80029 7.41135C5.80029 6.6102 6.40849 6 7.3388 6C8.26911 6 8.84202 6.6102 8.85967 7.41135ZM8.68058 9.93886V18.1097H5.96112V9.93886H8.68058ZM18.4882 18.1098L18.4883 13.4249C18.4883 10.9152 17.1467 9.74713 15.3572 9.74713C13.9133 9.74713 13.2669 10.5402 12.9059 11.0965V9.93921H10.1862C10.222 10.7059 10.1862 18.1101 10.1862 18.1101H12.9059V13.5468C12.9059 13.3026 12.9236 13.059 12.9955 12.8841C13.192 12.3963 13.6396 11.8912 14.3909 11.8912C15.3753 11.8912 15.7688 12.6404 15.7688 13.7384V18.1098H18.4882Z" fill="white"/>
</g>
<defs>
<clipPath id="clip0_11_2990">
<rect width="24" height="24" fill="white" transform="translate(0.200195)"/>
</clipPath>
</defs>
</svg>
