<svg width="25" height="24" viewBox="0 0 25 24" fill="none" xmlns="http://www.w3.org/2000/svg">
<g clip-path="url(#clip0_11_2980)">
<mask id="mask0_11_2980" style="mask-type:luminance" maskUnits="userSpaceOnUse" x="0" y="0" width="25" height="24">
<path d="M24.2002 0H0.200195V24H24.2002V0Z" fill="white"/>
</mask>
<g mask="url(#mask0_11_2980)">
<path d="M12.2002 24C18.8276 24 24.2002 18.6274 24.2002 12C24.2002 5.37258 18.8276 0 12.2002 0C5.57278 0 0.200195 5.37258 0.200195 12C0.200195 18.6274 5.57278 24 12.2002 24Z" fill="#BA8D5B"/>
<path d="M14.7497 5.33203H9.65639C7.38439 5.33203 5.53906 7.17736 5.53906 9.44936V14.5427C5.53906 16.8147 7.38439 18.66 9.65639 18.66H14.7497C17.0217 18.66 18.8671 16.8147 18.8671 14.5427V9.44936C18.8671 7.17736 17.0217 5.33203 14.7497 5.33203ZM17.3791 14.548C17.3791 15.9987 16.2004 17.1827 14.7444 17.1827H9.65106C8.20039 17.1827 7.01639 16.004 7.01639 14.548V9.4547C7.01639 8.00403 8.19506 6.82003 9.65106 6.82003H14.7444C16.1951 6.82003 17.3791 7.9987 17.3791 9.4547V14.548Z" fill="white"/>
<path d="M12.2 8.58984C10.3227 8.58984 8.79199 10.1205 8.79199 11.9978C8.79199 13.8752 10.3227 15.4058 12.2 15.4058C14.0773 15.4058 15.608 13.8752 15.608 11.9978C15.608 10.1205 14.0773 8.58984 12.2 8.58984ZM12.2 14.0672C11.0587 14.0672 10.1307 13.1392 10.1307 11.9978C10.1307 10.8565 11.0587 9.92851 12.2 9.92851C13.3413 9.92851 14.2693 10.8565 14.2693 11.9978C14.2693 13.1392 13.3413 14.0672 12.2 14.0672Z" fill="white"/>
<path d="M15.8674 8.96289C16.1814 8.91199 16.3946 8.6162 16.3437 8.30222C16.2928 7.98824 15.997 7.77497 15.6831 7.82587C15.3691 7.87677 15.1558 8.17256 15.2067 8.48654C15.2576 8.80052 15.5534 9.01379 15.8674 8.96289Z" fill="white"/>
</g>
</g>
<defs>
<clipPath id="clip0_11_2980">
<rect width="24" height="24" fill="white" transform="translate(0.200195)"/>
</clipPath>
</defs>
</svg>
