<svg width="25" height="24" viewBox="0 0 25 24" fill="none" xmlns="http://www.w3.org/2000/svg">
<g clip-path="url(#clip0_11_2976)">
<path fill-rule="evenodd" clip-rule="evenodd" d="M12.2002 0C5.57278 0 0.200195 5.37258 0.200195 12C0.200195 18.6274 5.57278 24 12.2002 24C18.8276 24 24.2002 18.6274 24.2002 12C24.2002 5.37258 18.8276 0 12.2002 0ZM17.201 7.87466C17.7518 8.0258 18.1855 8.47111 18.3327 9.03661C18.6002 10.0615 18.6002 12.2 18.6002 12.2C18.6002 12.2 18.6002 14.3384 18.3327 15.3634C18.1855 15.9289 17.7518 16.3742 17.201 16.5254C16.2029 16.8 12.2002 16.8 12.2002 16.8C12.2002 16.8 8.1975 16.8 7.19933 16.5254C6.64856 16.3742 6.21482 15.9289 6.06762 15.3634C5.8002 14.3384 5.8002 12.2 5.8002 12.2C5.8002 12.2 5.8002 10.0615 6.06762 9.03661C6.21482 8.47111 6.64856 8.0258 7.19933 7.87466C8.1975 7.6 12.2002 7.6 12.2002 7.6C12.2002 7.6 16.2029 7.6 17.201 7.87466Z" fill="#BA8D5B"/>
<path d="M11 14.4004V10.4004L14.2 12.4005L11 14.4004Z" fill="#BA8D5B"/>
</g>
<defs>
<clipPath id="clip0_11_2976">
<rect width="24" height="24" fill="white" transform="translate(0.200195)"/>
</clipPath>
</defs>
</svg>
