<svg width="49" height="48" viewBox="0 0 49 48" fill="none" xmlns="http://www.w3.org/2000/svg">
<g clip-path="url(#clip0_11_6651)">
<mask id="mask0_11_6651" style="mask-type:luminance" maskUnits="userSpaceOnUse" x="0" y="0" width="48" height="48">
<path d="M0.488281 0.719971H47.5459V47.1487H0.488281V0.719971Z" fill="white"/>
</mask>
<g mask="url(#mask0_11_6651)">
<path d="M33.1817 17.4836C34.7017 19.5215 35.5223 21.9962 35.521 24.5386C35.521 31.1381 30.0725 36.5072 23.376 36.5072C16.6785 36.5072 11.231 31.1381 11.231 24.5386C11.231 17.9381 16.6785 12.569 23.376 12.569C26.0797 12.569 28.5796 13.4437 30.5995 14.9219L34.0986 11.4738C31.0542 9.04246 27.2721 7.72149 23.376 7.72879C13.9709 7.72879 6.31836 15.2697 6.31836 24.5386C6.31836 33.8075 13.9709 41.3484 23.376 41.3484C32.7811 41.3484 40.4326 33.8075 40.4326 24.5386C40.4326 20.5663 39.0279 16.9125 36.6828 14.0325L33.1817 17.4836Z" fill="#607987" fill-opacity="0.1"/>
<path d="M23.7726 24.2036C24.4658 22.0672 25.5968 20.0988 27.0934 18.424C25.9683 17.758 24.6844 17.4077 23.3769 17.4102C19.388 17.4102 16.1436 20.6076 16.1436 24.5387C16.1436 28.4688 19.388 31.6671 23.3769 31.6671C27.3658 31.6671 30.6102 28.4698 30.6102 24.5387C30.6114 23.273 30.2698 22.0307 29.6218 20.9436C27.9153 22.418 25.9251 23.5275 23.7736 24.2036H23.7726Z" fill="#607987" fill-opacity="0.1"/>
<path d="M47.2765 9.56756C47.3985 9.44775 47.4838 9.29562 47.5223 9.12904C47.5608 8.96246 47.551 8.78834 47.494 8.62715C47.436 8.46515 47.3336 8.32274 47.1985 8.21621C47.0633 8.10967 46.901 8.04331 46.7299 8.0247L43.0143 7.60837L40.6104 5.23972L40.1882 1.578C40.1679 1.40765 40.0998 1.24651 39.9919 1.11321C39.8839 0.979903 39.7404 0.879881 39.5779 0.824698C39.4148 0.768251 39.2392 0.758424 39.0708 0.796323C38.9024 0.834222 38.748 0.918344 38.6248 1.03923L34.9885 4.62258C34.8886 4.72249 34.7926 4.82633 34.7044 4.93409C31.2445 2.99391 27.3433 1.97712 23.3764 1.9816C17.2638 1.9816 11.5155 4.32772 7.19261 8.58796C2.86967 12.8482 0.488281 18.5132 0.488281 24.5387C0.488281 30.5631 2.86869 36.2281 7.19261 40.4894C11.5155 44.7496 17.2628 47.0957 23.3764 47.0957C29.4891 47.0957 35.2373 44.7496 39.5603 40.4894C43.8832 36.2281 46.2646 30.5641 46.2646 24.5387C46.2646 20.635 45.2449 16.8165 43.3092 13.4438C43.4238 13.3527 43.5345 13.2557 43.6403 13.1509L47.2765 9.56756ZM42.3413 11.8676C42.1096 12.0964 41.8294 12.2702 41.5215 12.3762C41.2136 12.4822 40.8858 12.5176 40.5624 12.4799L39.6612 12.379L42.6881 9.39711L44.6277 9.61458L42.3413 11.8676ZM29.7536 19.58C28.4856 20.8262 27.0139 21.8466 25.4022 22.5971C26.1683 21.0029 27.2035 19.5527 28.4625 18.3104L39.8679 7.07058L41.157 8.34209L29.7536 19.58ZM22.9689 23.7158L22.9631 23.7207L21.9825 24.6876C21.8972 24.7711 21.8294 24.8708 21.7831 24.9809C21.7369 25.0909 21.713 25.2091 21.7129 25.3285C21.7128 25.4479 21.7365 25.5661 21.7826 25.6762C21.8287 25.7863 21.8964 25.8862 21.9815 25.9698C22.1548 26.1406 22.3886 26.236 22.632 26.2353C22.8671 26.2353 23.1022 26.1471 23.2814 25.9708L24.262 25.004L24.2679 24.9981C26.8168 24.1588 29.1386 22.7443 31.0535 20.8642L33.0382 18.908C34.0651 20.6064 34.6065 22.5539 34.6035 24.5387C34.6035 30.6386 29.5684 35.6012 23.3774 35.6012C17.1864 35.6012 12.1513 30.6386 12.1513 24.5387C12.1513 18.4387 17.1864 13.4761 23.3774 13.4761C25.4365 13.4761 27.4182 14.0208 29.1609 15.0601L27.1645 17.0271C25.2652 18.9003 23.8286 21.1905 22.9689 23.7158ZM38.5768 3.64984L38.7972 5.562L35.7702 8.54584L35.6674 7.65735C35.63 7.33735 35.6666 7.01304 35.7743 6.70939C35.882 6.40574 36.0579 6.13084 36.2884 5.90584L38.5768 3.64984ZM44.4259 24.5387C44.4259 35.9764 34.9826 45.2815 23.3764 45.2815C11.7693 45.2815 2.32698 35.9764 2.32698 24.5387C2.32698 13.1 11.7702 3.79482 23.3764 3.79482C27.0891 3.79482 30.7155 4.75384 33.9051 6.57196C33.814 6.98927 33.7905 7.42421 33.8404 7.86209L34.1088 10.1827L30.4942 13.7445C28.3721 12.3785 25.9002 11.6552 23.3764 11.6619C16.1725 11.6619 10.3116 17.4386 10.3116 24.5387C10.3116 31.6387 16.1725 37.4144 23.3764 37.4144C30.5804 37.4144 36.4413 31.6387 36.4413 24.5387C36.4413 22.0564 35.7271 19.6662 34.3724 17.5914L37.9988 14.0188L40.3547 14.2823C40.7846 14.33 41.2192 14.3102 41.6429 14.2236C43.4672 17.355 44.4275 20.9146 44.4259 24.5387Z" fill="#4E6575"/>
</g>
</g>
<defs>
<clipPath id="clip0_11_6651">
<rect width="48" height="48" fill="white" transform="translate(0.379883)"/>
</clipPath>
</defs>
</svg>
