<svg width="136" height="68" viewBox="0 0 136 68" fill="none" xmlns="http://www.w3.org/2000/svg">
<path d="M9.8696 42.5496V37.1593H8.51172V34.4017H9.8696V31.4951H13.0949V34.4017H15.7683V37.1593H13.0949V42.0195C13.0949 42.7623 13.413 43.1229 14.1347 43.1229C14.6908 43.1254 15.2385 42.9868 15.7265 42.7199V45.3084C15.0466 45.7114 14.2619 45.9659 13.1791 45.9659C11.2069 45.9659 9.8696 45.1805 9.8696 42.5496Z" fill="black"/>
<path d="M25.1893 39.1963C25.0022 37.7536 24.1501 36.7775 22.7923 36.7775C21.4568 36.7775 20.5836 37.7324 20.3341 39.1963H25.1893ZM17.1693 40.1089C17.1693 36.8623 19.4821 34.189 22.7923 34.189C26.5902 34.189 28.3298 37.1386 28.3298 40.364C28.3298 40.6178 28.3086 40.9147 28.2874 41.2129H20.3728C20.6915 42.6768 21.7101 43.4403 23.1515 43.4403C24.2337 43.4403 25.0184 43.1009 25.9097 42.2732L27.7566 43.9074C26.6962 45.2223 25.1675 46.0282 23.1091 46.0282C19.6935 46.0282 17.168 43.6305 17.168 40.1082L17.1693 40.1089Z" fill="black"/>
<path d="M32.8458 40.0032L29.0048 34.4014H32.4635L34.5854 37.7115L36.7286 34.4014H40.1018L36.2614 39.9395L40.2721 45.7746H36.8134L34.5218 42.2312L32.2302 45.7746H28.8564L32.8458 40.0032Z" fill="black"/>
<path d="M41.7324 34.4017H44.9577V36.014C45.7 35.0585 46.6549 34.189 48.2885 34.189C50.7292 34.189 52.1507 35.802 52.1507 38.4117V45.7718H48.9253V39.4302C48.9253 37.9021 48.2036 37.1174 46.9743 37.1174C45.7449 37.1174 44.9583 37.9021 44.9583 39.4302V45.773H41.7324V34.4017Z" fill="black"/>
<path d="M63.2471 40.1089C63.2471 38.4329 62.0376 36.9683 60.2531 36.9683C58.4062 36.9683 57.3035 38.3905 57.3035 40.1089C57.3035 41.7849 58.5129 43.2494 60.2974 43.2494C62.1399 43.2494 63.2471 41.8273 63.2471 40.1089ZM54.123 40.1089C54.123 36.8411 56.7539 34.189 60.298 34.189C63.8203 34.189 66.43 36.7987 66.43 40.1089C66.43 43.376 63.7991 46.0288 60.255 46.0288C56.7321 46.0288 54.1211 43.4191 54.1211 40.1089H54.123Z" fill="black"/>
<path d="M68.4922 34.4017H71.717V36.014C72.4598 35.0585 73.436 34.189 75.0696 34.189C76.5553 34.189 77.6799 34.8464 78.2737 35.9922C79.2717 34.8252 80.4568 34.189 82.0087 34.189C84.4063 34.189 85.8484 35.6317 85.8484 38.368V45.773H82.6237V39.4302C82.6237 37.9021 81.9438 37.1174 80.735 37.1174C79.5262 37.1174 78.7845 37.9021 78.7845 39.4302V45.773H75.558V39.4302C75.558 37.9021 74.8781 37.1174 73.6686 37.1174C72.4592 37.1174 71.7182 37.9021 71.7182 39.4302V45.773H68.4922V34.4017Z" fill="black"/>
<path d="M95.158 41.7644V41.1918C94.5096 40.9062 93.8081 40.7614 93.0996 40.767C91.7205 40.767 90.8716 41.3191 90.8716 42.38C90.8716 43.2533 91.5927 43.7591 92.6325 43.7591C94.14 43.7591 95.158 42.932 95.158 41.7632V41.7644ZM87.7529 42.4642C87.7529 39.9818 89.641 38.836 92.3343 38.836C93.2811 38.8275 94.2221 38.9854 95.1143 39.3025V39.1116C95.1143 37.775 94.2866 37.0327 92.6736 37.0327C91.4436 37.0327 90.5735 37.266 89.5337 37.6477L88.7303 35.1865C89.9822 34.6344 91.2128 34.2739 93.1433 34.2739C94.9047 34.2739 96.1778 34.7405 96.9837 35.547C97.8326 36.3959 98.2149 37.6477 98.2149 39.1759V45.7732H95.0962V44.5438C94.3109 45.417 93.2287 45.9871 91.6588 45.9871C89.5156 45.9871 87.7548 44.7559 87.7548 42.4642H87.7529Z" fill="black"/>
<path d="M100.802 34.4022H104.028V36.6932C104.686 35.1226 105.747 34.1047 107.656 34.1895V37.5633H107.486C105.343 37.5633 104.028 38.8576 104.028 41.5733V45.7736H100.802V34.4022Z" fill="black"/>
<path d="M110.13 42.5496V37.1593H108.771V34.4017H110.13V31.4951H113.356V34.4017H116.029V37.1593H113.356V42.0195C113.356 42.7623 113.673 43.1229 114.395 43.1229C114.951 43.1255 115.499 42.9869 115.987 42.7199V45.3084C115.307 45.7114 114.522 45.9659 113.44 45.9659C111.467 45.9659 110.129 45.1812 110.129 42.5503L110.13 42.5496Z" fill="black"/>
<path d="M128.254 30.5133L126.936 28.2305L124.199 29.8104V26.6499H121.562V29.8104L118.825 28.2305L117.506 30.5133L120.244 32.0939L117.506 33.6744L118.825 35.958L121.562 34.3774V37.5379H124.199V34.3774L126.936 35.958L128.254 33.6744L125.517 32.0939L128.254 30.5133Z" fill="black"/>
<mask id="mask0_11_6763" style="mask-type:luminance" maskUnits="userSpaceOnUse" x="0" y="23" width="136" height="30">
<path d="M136 23H0V52.0132H136V23Z" fill="white"/>
</mask>
<g mask="url(#mask0_11_6763)">
<path d="M136 23H0V52.0132H136V23Z" fill="#FDC100"/>
<path d="M9.8696 42.5496V37.1593H8.51172V34.4017H9.8696V31.4951H13.0949V34.4017H15.7683V37.1593H13.0949V42.0195C13.0949 42.7623 13.413 43.1229 14.1347 43.1229C14.6908 43.1254 15.2385 42.9868 15.7265 42.7199V45.3084C15.0466 45.7114 14.2619 45.9659 13.1791 45.9659C11.2069 45.9659 9.8696 45.1805 9.8696 42.5496Z" fill="black"/>
<path d="M25.1893 39.1963C25.0022 37.7536 24.1501 36.7775 22.7923 36.7775C21.4568 36.7775 20.5836 37.7324 20.3341 39.1963H25.1893ZM17.1693 40.1089C17.1693 36.8623 19.4821 34.189 22.7923 34.189C26.5902 34.189 28.3298 37.1386 28.3298 40.364C28.3298 40.6178 28.3086 40.9147 28.2874 41.2129H20.3728C20.6915 42.6768 21.7101 43.4403 23.1515 43.4403C24.2337 43.4403 25.0184 43.1009 25.9097 42.2732L27.7566 43.9074C26.6962 45.2223 25.1675 46.0282 23.1091 46.0282C19.6935 46.0282 17.168 43.6305 17.168 40.1082L17.1693 40.1089Z" fill="black"/>
<path d="M32.8458 40.0032L29.0048 34.4014H32.4635L34.5854 37.7115L36.7286 34.4014H40.1018L36.2614 39.9395L40.2721 45.7746H36.8134L34.5218 42.2312L32.2302 45.7746H28.8564L32.8458 40.0032Z" fill="black"/>
<path d="M41.7324 34.4017H44.9577V36.014C45.7 35.0585 46.6549 34.189 48.2885 34.189C50.7292 34.189 52.1507 35.802 52.1507 38.4117V45.7718H48.9253V39.4302C48.9253 37.9021 48.2036 37.1174 46.9743 37.1174C45.7449 37.1174 44.9583 37.9021 44.9583 39.4302V45.773H41.7324V34.4017Z" fill="black"/>
<path d="M63.2471 40.1089C63.2471 38.4329 62.0376 36.9683 60.2531 36.9683C58.4062 36.9683 57.3035 38.3905 57.3035 40.1089C57.3035 41.7849 58.5129 43.2494 60.2974 43.2494C62.1399 43.2494 63.2471 41.8273 63.2471 40.1089ZM54.123 40.1089C54.123 36.8411 56.7539 34.189 60.298 34.189C63.8203 34.189 66.43 36.7987 66.43 40.1089C66.43 43.376 63.7991 46.0288 60.255 46.0288C56.7321 46.0288 54.1211 43.4191 54.1211 40.1089H54.123Z" fill="black"/>
<path d="M68.4922 34.4017H71.717V36.014C72.4598 35.0585 73.436 34.189 75.0696 34.189C76.5553 34.189 77.6799 34.8464 78.2737 35.9922C79.2717 34.8252 80.4568 34.189 82.0087 34.189C84.4063 34.189 85.8484 35.6317 85.8484 38.368V45.773H82.6237V39.4302C82.6237 37.9021 81.9438 37.1174 80.735 37.1174C79.5262 37.1174 78.7845 37.9021 78.7845 39.4302V45.773H75.558V39.4302C75.558 37.9021 74.8781 37.1174 73.6686 37.1174C72.4592 37.1174 71.7182 37.9021 71.7182 39.4302V45.773H68.4922V34.4017Z" fill="black"/>
<path d="M95.158 41.7644V41.1918C94.5096 40.9062 93.8081 40.7614 93.0996 40.767C91.7205 40.767 90.8716 41.3191 90.8716 42.38C90.8716 43.2533 91.5927 43.7591 92.6325 43.7591C94.14 43.7591 95.158 42.932 95.158 41.7632V41.7644ZM87.7529 42.4642C87.7529 39.9818 89.641 38.836 92.3343 38.836C93.2811 38.8275 94.2221 38.9854 95.1143 39.3025V39.1116C95.1143 37.775 94.2866 37.0327 92.6736 37.0327C91.4436 37.0327 90.5735 37.266 89.5337 37.6477L88.7303 35.1865C89.9822 34.6344 91.2128 34.2739 93.1433 34.2739C94.9047 34.2739 96.1778 34.7405 96.9837 35.547C97.8326 36.3959 98.2149 37.6477 98.2149 39.1759V45.7732H95.0962V44.5438C94.3109 45.417 93.2287 45.9871 91.6588 45.9871C89.5156 45.9871 87.7548 44.7559 87.7548 42.4642H87.7529Z" fill="black"/>
<path d="M100.802 34.4022H104.028V36.6932C104.686 35.1226 105.747 34.1047 107.656 34.1895V37.5633H107.486C105.343 37.5633 104.028 38.8576 104.028 41.5733V45.7736H100.802V34.4022Z" fill="black"/>
<path d="M110.13 42.5496V37.1593H108.771V34.4017H110.13V31.4951H113.356V34.4017H116.029V37.1593H113.356V42.0195C113.356 42.7623 113.673 43.1229 114.395 43.1229C114.951 43.1255 115.499 42.9869 115.987 42.7199V45.3084C115.307 45.7114 114.522 45.9659 113.44 45.9659C111.467 45.9659 110.129 45.1812 110.129 42.5503L110.13 42.5496Z" fill="black"/>
<path d="M128.254 30.5133L126.936 28.2305L124.199 29.8104V26.6499H121.562V29.8104L118.825 28.2305L117.506 30.5133L120.244 32.0939L117.506 33.6744L118.825 35.958L121.562 34.3774V37.5379H124.199V34.3774L126.936 35.958L128.254 33.6744L125.517 32.0939L128.254 30.5133Z" fill="black"/>
</g>
</svg>
