<svg width="136" height="68" viewBox="0 0 136 68" fill="none" xmlns="http://www.w3.org/2000/svg">
<mask id="mask0_11_6796" style="mask-type:luminance" maskUnits="userSpaceOnUse" x="49" y="13" width="38" height="42">
<path d="M86.5295 13H49.4707V55H86.5295V13Z" fill="white"/>
</mask>
<g mask="url(#mask0_11_6796)">
<path d="M61.48 13C62.0147 13.212 62.1944 13.6071 62.1937 14.1647C62.1844 21.5914 62.1844 29.0182 62.1937 36.445C62.1954 37.9568 62.3894 39.4438 62.9608 40.8627C63.6229 42.5075 64.739 43.6866 66.5104 44.1784C68.6928 44.7841 71.6449 44.1225 72.9471 41.0863C73.4209 39.9816 73.6633 38.8268 73.7508 37.6383C73.8758 35.9364 73.7913 34.2313 73.8043 32.5277C73.806 32.292 73.8736 32.2441 74.0997 32.2446C78.1452 32.2513 82.1907 32.2513 86.2361 32.2446C86.462 32.2446 86.5318 32.2928 86.5296 32.5267C86.5052 34.1891 86.564 35.8516 86.4692 37.5128C86.3134 40.2449 85.8629 42.9176 84.8481 45.482C83.3312 49.3152 80.6279 51.9735 76.738 53.4568C74.562 54.2849 72.3092 54.7547 69.9871 54.9246C66.9047 55.1503 63.8735 54.8798 60.9053 54.0122C59.0647 53.4742 57.3328 52.7059 55.7724 51.5913C53.4986 49.967 52.0367 47.7559 51.0504 45.2066C50.3042 43.285 49.8954 41.2853 49.6724 39.2443C49.5032 37.6973 49.4726 36.1452 49.4736 34.5905C49.4783 27.782 49.4768 20.9734 49.4688 14.1649C49.4688 13.6064 49.6489 13.2135 50.1814 13H61.48Z" fill="#1F3E79"/>
<path d="M76.5957 13C76.5404 13.6467 76.6358 14.282 76.7622 14.9118C77.5879 19.0245 81.0033 22.171 85.2287 22.7126C85.5819 22.7573 85.9375 22.7807 86.2935 22.7825C86.4913 22.784 86.527 22.8473 86.5265 23.0278C86.5202 25.1994 86.5202 27.371 86.5265 29.5425C86.5265 29.7579 86.4815 29.8189 86.2524 29.8182C82.9109 29.8098 79.5701 29.8079 76.2299 29.8124C75.5008 29.8124 74.7715 29.8088 74.0424 29.8153C73.88 29.817 73.8037 29.7941 73.8037 29.6028C73.8094 24.4077 73.8109 19.2125 73.8081 14.0172C73.8081 13.4985 74.0954 13.1867 74.5588 13H76.5957Z" fill="#1F3E79"/>
<path d="M85.6296 13.0001C85.7056 12.9984 85.781 13.0144 85.8496 13.0469C85.8741 13.0596 85.9059 13.0637 85.931 13.0758C86.3186 13.2618 86.5213 13.5649 86.5215 13.9913C86.5215 16.044 86.5196 18.097 86.5269 20.1497C86.5269 20.3425 86.4535 20.3627 86.2897 20.3596C82.9819 20.2977 79.9679 17.8713 79.2442 14.6866C79.1217 14.1322 79.053 13.5674 79.0391 13.0001H85.6296Z" fill="#EE7F1B"/>
</g>
</svg>
